{"glyphs":{"0":{"ha":696,"x_min":36,"x_max":660,"o":"m 332 -17 q 115 76 194 -17 q 36 329 36 168 q 78 528 36 442 q 194 661 119 614 q 367 708 269 708 q 581 617 503 708 q 660 365 660 525 q 619 165 660 251 q 503 31 578 79 q 332 -17 429 -17 m 354 165 q 497 210 446 165 q 547 333 547 254 q 492 469 547 419 q 339 519 436 519 q 199 474 250 519 q 149 349 149 429 q 204 215 149 265 q 354 165 260 165 z "},"1":{"ha":507,"x_min":29,"x_max":474,"o":"m 356 558 q 342 183 342 401 q 355 111 342 132 q 403 90 368 90 q 446 92 428 90 q 469 94 464 93 l 474 88 l 458 -6 q 378 -2 438 -4 q 258 0 319 0 q 124 -8 197 0 q 43 -15 50 -15 l 54 72 q 151 106 125 79 q 178 200 178 132 l 178 499 q 163 563 178 547 q 107 578 147 578 q 67 575 90 578 q 38 571 44 572 l 29 581 l 38 660 q 204 681 111 667 q 349 701 307 694 q 394 708 392 708 l 408 667 q 372 623 383 646 q 356 558 361 600 z "},"2":{"ha":672,"x_min":21,"x_max":651,"o":"m 125 149 q 283 352 236 276 q 331 476 331 428 q 308 539 331 517 q 244 561 286 561 q 162 533 204 561 q 89 454 119 504 l 69 454 l 46 557 q 172 668 100 628 q 317 708 243 708 q 474 659 414 708 q 533 529 533 610 q 511 438 533 485 q 434 322 489 390 q 274 140 379 253 l 279 129 l 413 129 q 505 155 478 129 q 546 256 532 181 l 651 265 q 632 158 646 240 q 613 4 618 75 l 593 -12 q 370 -6 538 -11 q 121 0 203 0 l 32 -12 l 21 33 l 125 149 z "},"3":{"ha":599,"x_min":15,"x_max":542,"o":"m 33 22 q 153 4 86 4 q 298 42 240 4 q 356 136 356 79 q 306 220 356 193 q 150 247 256 247 l 138 261 l 128 347 l 218 367 q 294 424 265 388 q 322 500 322 461 q 298 554 322 533 q 236 575 274 575 q 161 557 201 575 q 85 507 121 539 l 68 506 l 39 604 q 156 672 78 636 q 297 708 233 708 q 447 664 390 708 q 503 546 503 619 q 461 438 503 489 q 349 357 419 386 l 349 346 q 492 274 443 321 q 542 163 542 228 q 481 21 542 92 q 323 -94 419 -50 q 128 -139 226 -139 q 44 -107 69 -139 q 15 3 19 -75 l 33 22 z "},"4":{"ha":650,"x_min":3,"x_max":625,"o":"m 7 194 l 375 706 l 383 708 l 500 693 l 500 218 l 614 218 l 625 203 l 613 88 l 501 92 q 506 -33 503 28 q 510 -110 508 -93 l 499 -122 l 339 -139 l 328 -125 q 331 -42 329 -104 q 336 96 333 19 q 3 101 117 101 l 7 194 m 336 465 l 322 465 l 149 218 l 336 218 l 336 465 z "},"5":{"ha":593,"x_min":1,"x_max":544,"o":"m 533 181 q 470 26 533 100 q 308 -93 407 -47 q 113 -139 210 -139 q 32 -108 57 -139 q 1 3 7 -76 l 19 22 q 139 4 75 4 q 289 42 229 4 q 349 138 349 79 q 290 223 349 192 q 86 275 232 254 l 74 290 q 92 518 85 404 q 101 665 100 632 l 113 676 l 381 686 q 440 700 422 689 q 468 742 458 711 l 544 747 l 508 543 l 492 525 q 388 531 469 526 q 214 536 307 536 l 203 413 q 451 326 369 379 q 533 181 533 274 z "},"6":{"ha":644,"x_min":39,"x_max":610,"o":"m 563 747 q 494 715 563 751 q 357 615 426 679 q 250 458 288 551 l 257 450 q 309 476 267 454 q 376 501 351 497 q 501 469 449 501 q 582 383 554 438 q 610 265 610 329 q 572 119 610 183 q 467 19 535 56 q 308 -17 399 -17 q 166 22 226 -17 q 72 128 106 60 q 39 283 39 196 q 146 591 39 469 q 387 777 253 713 q 521 831 521 842 l 535 824 l 563 747 m 322 379 q 260 367 290 379 q 213 340 231 354 q 208 282 208 311 q 241 145 208 194 q 333 96 274 96 q 415 131 386 96 q 444 231 444 165 q 411 338 444 296 q 322 379 378 379 z "},"7":{"ha":593,"x_min":35,"x_max":594,"o":"m 115 -67 l 425 547 l 239 536 q 172 522 194 532 q 138 488 150 511 q 118 414 126 464 l 35 406 q 47 522 38 432 q 61 690 57 611 l 69 697 q 134 694 83 696 q 239 692 185 692 l 540 692 l 594 625 q 322 18 433 288 l 279 -139 l 257 -139 l 131 -101 l 115 -67 z "},"8":{"ha":665,"x_min":53,"x_max":610,"o":"m 53 181 q 99 308 53 258 q 208 386 146 358 q 108 475 144 425 q 71 596 71 525 q 107 713 71 658 q 207 799 143 767 q 350 831 271 831 q 469 806 414 831 q 557 738 524 782 q 590 636 590 694 q 553 522 590 569 q 465 449 517 475 q 571 361 532 410 q 610 242 610 313 q 571 110 610 169 q 464 17 532 51 q 311 -17 396 -17 q 127 38 201 -17 q 53 181 53 92 m 233 629 q 253 574 233 599 q 301 533 272 550 q 382 490 329 517 q 438 604 438 535 q 408 690 438 660 q 332 721 379 721 q 260 694 288 721 q 233 629 233 668 m 335 86 q 417 117 385 86 q 450 194 450 147 q 428 253 450 228 q 377 294 406 278 q 282 343 349 310 q 204 217 204 293 q 241 124 204 163 q 335 86 278 86 z "},"9":{"ha":644,"x_min":33,"x_max":604,"o":"m 81 -56 q 149 -24 81 -60 q 285 75 217 11 q 392 232 354 139 l 386 242 q 334 215 376 238 q 268 190 292 193 q 142 222 196 190 q 61 308 89 254 q 33 426 33 361 q 71 572 33 508 q 176 672 108 636 q 335 708 244 708 q 477 670 417 708 q 571 564 538 632 q 604 408 604 496 q 497 100 604 222 q 256 -87 390 -22 q 122 -140 122 -151 l 108 -132 l 81 -56 m 322 313 q 432 350 374 313 q 436 410 436 379 q 403 546 436 496 q 313 596 371 596 q 229 561 258 596 q 200 461 200 526 q 233 353 200 394 q 322 313 265 313 z "}," ":{"ha":242,"x_min":0,"x_max":0,"o":""},"A":{"ha":868,"x_min":-17,"x_max":881,"o":"m 767 183 q 806 113 782 133 q 875 88 829 92 l 881 78 l 871 -4 q 803 -1 853 -3 q 700 0 753 0 q 556 -5 626 0 q 465 -11 485 -10 l 458 0 l 465 85 q 534 94 513 89 q 564 108 556 99 q 572 135 572 117 q 564 181 572 151 l 536 286 q 410 288 500 288 q 278 278 356 288 l 244 174 q 236 131 236 144 q 250 98 236 107 q 300 89 264 89 l 358 89 l 365 79 l 356 -8 q 272 -3 336 -7 q 153 0 207 0 q 47 -1 94 0 q -17 -4 -1 -3 l -6 89 q 48 115 28 94 q 85 181 68 135 l 332 885 l 553 907 l 568 900 q 655 576 589 821 q 767 183 721 331 m 408 397 q 511 403 453 397 l 431 708 l 411 708 l 311 397 l 408 397 z "},"Á":{"ha":868,"x_min":-17,"x_max":881,"o":"m 767 183 q 806 113 782 133 q 875 88 829 92 l 881 78 l 871 -4 q 803 -1 853 -3 q 700 0 753 0 q 556 -5 626 0 q 465 -11 485 -10 l 458 0 l 465 85 q 534 94 513 89 q 564 108 556 99 q 572 135 572 117 q 564 181 572 151 l 536 286 q 410 288 500 288 q 278 278 356 288 l 244 174 q 236 131 236 144 q 250 98 236 107 q 300 89 264 89 l 358 89 l 365 79 l 356 -8 q 272 -3 336 -7 q 153 0 207 0 q 47 -1 94 0 q -17 -4 -1 -3 l -6 89 q 48 115 28 94 q 85 181 68 135 l 332 885 l 553 907 l 568 900 q 655 576 589 821 q 767 183 721 331 m 408 397 q 511 403 453 397 l 431 708 l 411 708 l 311 397 l 408 397 m 675 1058 q 551 1025 647 1051 q 356 968 456 999 l 338 981 l 319 1046 q 507 1131 413 1086 q 629 1190 601 1176 l 646 1183 l 682 1076 l 675 1058 z "},"Ă":{"ha":868,"x_min":-17,"x_max":881,"o":"m 767 183 q 806 113 782 133 q 875 88 829 92 l 881 78 l 871 -4 q 803 -1 853 -3 q 700 0 753 0 q 556 -5 626 0 q 465 -11 485 -10 l 458 0 l 465 85 q 534 94 513 89 q 564 108 556 99 q 572 135 572 117 q 564 181 572 151 l 536 286 q 410 288 500 288 q 278 278 356 288 l 244 174 q 236 131 236 144 q 250 98 236 107 q 300 89 264 89 l 358 89 l 365 79 l 356 -8 q 272 -3 336 -7 q 153 0 207 0 q 47 -1 94 0 q -17 -4 -1 -3 l -6 89 q 48 115 28 94 q 85 181 68 135 l 332 885 l 553 907 l 568 900 q 655 576 589 821 q 767 183 721 331 m 408 397 q 511 403 453 397 l 431 708 l 411 708 l 311 397 l 408 397 m 440 1094 q 527 1116 489 1094 q 583 1178 565 1138 l 607 1172 l 646 1124 q 574 1008 625 1054 q 440 963 522 963 q 306 1009 358 963 q 235 1124 254 1056 l 274 1172 l 297 1178 q 353 1116 315 1138 q 440 1094 392 1094 z "},"Â":{"ha":868,"x_min":-17,"x_max":881,"o":"m 767 183 q 806 113 782 133 q 875 88 829 92 l 881 78 l 871 -4 q 803 -1 853 -3 q 700 0 753 0 q 556 -5 626 0 q 465 -11 485 -10 l 458 0 l 465 85 q 534 94 513 89 q 564 108 556 99 q 572 135 572 117 q 564 181 572 151 l 536 286 q 410 288 500 288 q 278 278 356 288 l 244 174 q 236 131 236 144 q 250 98 236 107 q 300 89 264 89 l 358 89 l 365 79 l 356 -8 q 272 -3 336 -7 q 153 0 207 0 q 47 -1 94 0 q -17 -4 -1 -3 l -6 89 q 48 115 28 94 q 85 181 68 135 l 332 885 l 553 907 l 568 900 q 655 576 589 821 q 767 183 721 331 m 408 397 q 511 403 453 397 l 431 708 l 411 708 l 311 397 l 408 397 m 210 1044 q 341 1146 274 1092 q 428 1217 408 1200 l 456 1217 q 521 1165 456 1219 q 588 1111 540 1150 q 672 1044 635 1072 l 639 988 l 617 982 q 442 1063 539 1021 q 265 982 381 1038 l 244 988 l 210 1044 z "},"Ä":{"ha":868,"x_min":-17,"x_max":881,"o":"m 767 183 q 806 113 782 133 q 875 88 829 92 l 881 78 l 871 -4 q 803 -1 853 -3 q 700 0 753 0 q 556 -5 626 0 q 465 -11 485 -10 l 458 0 l 465 85 q 534 94 513 89 q 564 108 556 99 q 572 135 572 117 q 564 181 572 151 l 536 286 q 410 288 500 288 q 278 278 356 288 l 244 174 q 236 131 236 144 q 250 98 236 107 q 300 89 264 89 l 358 89 l 365 79 l 356 -8 q 272 -3 336 -7 q 153 0 207 0 q 47 -1 94 0 q -17 -4 -1 -3 l -6 89 q 48 115 28 94 q 85 181 68 135 l 332 885 l 553 907 l 568 900 q 655 576 589 821 q 767 183 721 331 m 408 397 q 511 403 453 397 l 431 708 l 411 708 l 311 397 l 408 397 m 311 981 q 251 1003 272 981 q 229 1065 229 1026 q 255 1132 229 1106 q 322 1158 281 1158 q 383 1135 361 1158 q 406 1075 406 1113 q 380 1007 406 1033 q 311 981 354 981 m 560 981 q 498 1003 519 981 q 476 1065 476 1026 q 502 1132 476 1106 q 569 1158 528 1158 q 631 1135 608 1158 q 653 1075 653 1113 q 627 1007 653 1033 q 560 981 601 981 z "},"À":{"ha":868,"x_min":-17,"x_max":881,"o":"m 767 183 q 806 113 782 133 q 875 88 829 92 l 881 78 l 871 -4 q 803 -1 853 -3 q 700 0 753 0 q 556 -5 626 0 q 465 -11 485 -10 l 458 0 l 465 85 q 534 94 513 89 q 564 108 556 99 q 572 135 572 117 q 564 181 572 151 l 536 286 q 410 288 500 288 q 278 278 356 288 l 244 174 q 236 131 236 144 q 250 98 236 107 q 300 89 264 89 l 358 89 l 365 79 l 356 -8 q 272 -3 336 -7 q 153 0 207 0 q 47 -1 94 0 q -17 -4 -1 -3 l -6 89 q 48 115 28 94 q 85 181 68 135 l 332 885 l 553 907 l 568 900 q 655 576 589 821 q 767 183 721 331 m 408 397 q 511 403 453 397 l 431 708 l 411 708 l 311 397 l 408 397 m 261 1190 q 383 1131 289 1176 q 571 1046 476 1086 l 553 981 l 535 968 q 339 1026 435 1000 q 215 1058 243 1051 l 208 1076 l 244 1183 l 261 1190 z "},"Ā":{"ha":868,"x_min":-17,"x_max":881,"o":"m 767 183 q 806 113 782 133 q 875 88 829 92 l 881 78 l 871 -4 q 803 -1 853 -3 q 700 0 753 0 q 556 -5 626 0 q 465 -11 485 -10 l 458 0 l 465 85 q 534 94 513 89 q 564 108 556 99 q 572 135 572 117 q 564 181 572 151 l 536 286 q 410 288 500 288 q 278 278 356 288 l 244 174 q 236 131 236 144 q 250 98 236 107 q 300 89 264 89 l 358 89 l 365 79 l 356 -8 q 272 -3 336 -7 q 153 0 207 0 q 47 -1 94 0 q -17 -4 -1 -3 l -6 89 q 48 115 28 94 q 85 181 68 135 l 332 885 l 553 907 l 568 900 q 655 576 589 821 q 767 183 721 331 m 408 397 q 511 403 453 397 l 431 708 l 411 708 l 311 397 l 408 397 m 442 983 l 249 982 l 233 999 l 253 1104 l 467 1103 q 567 1106 510 1103 q 643 1111 625 1110 l 654 1092 l 638 985 l 442 983 z "},"Ą":{"ha":868,"x_min":-17,"x_max":886,"o":"m 886 -243 q 859 -266 881 -249 q 806 -303 838 -283 q 744 -335 775 -324 q 623 -301 668 -335 q 578 -208 578 -267 q 609 -117 578 -165 q 706 0 640 -68 l 700 0 q 556 -5 626 0 q 465 -11 485 -10 l 458 0 l 465 85 q 534 94 513 89 q 564 108 556 99 q 572 135 572 117 q 564 181 572 151 l 536 286 q 410 288 500 288 q 278 278 356 288 l 244 174 q 236 131 236 144 q 250 98 236 107 q 300 89 264 89 l 358 89 l 365 79 l 356 -8 q 272 -3 336 -7 q 153 0 207 0 q 47 -1 94 0 q -17 -4 -1 -3 l -6 89 q 48 115 28 94 q 85 181 68 135 l 332 885 l 553 907 l 568 900 q 655 576 589 821 q 767 183 721 331 q 806 113 782 133 q 875 88 829 92 l 881 78 l 871 -4 l 786 -1 q 711 -101 732 -65 q 690 -169 690 -137 q 710 -217 690 -199 q 760 -236 729 -236 q 804 -228 782 -236 q 841 -213 826 -221 q 860 -203 856 -206 l 886 -243 m 408 397 q 511 403 453 397 l 431 708 l 411 708 l 311 397 l 408 397 z "},"Å":{"ha":868,"x_min":-17,"x_max":881,"o":"m 767 183 q 806 113 782 133 q 875 88 829 92 l 881 78 l 871 -4 q 803 -1 853 -3 q 700 0 753 0 q 556 -5 626 0 q 465 -11 485 -10 l 458 0 l 465 85 q 534 94 513 89 q 564 108 556 99 q 572 135 572 117 q 564 181 572 151 l 536 286 q 410 288 500 288 q 278 278 356 288 l 244 174 q 236 131 236 144 q 250 98 236 107 q 300 89 264 89 l 358 89 l 365 79 l 356 -8 q 272 -3 336 -7 q 153 0 207 0 q 47 -1 94 0 q -17 -4 -1 -3 l -6 89 q 48 115 28 94 q 85 181 68 135 l 332 885 l 553 907 l 568 900 q 655 576 589 821 q 767 183 721 331 m 408 397 q 511 403 453 397 l 431 708 l 411 708 l 311 397 l 408 397 m 435 942 q 344 976 376 942 q 313 1068 313 1011 q 349 1163 313 1125 q 446 1200 386 1200 q 540 1165 508 1200 q 571 1079 571 1131 q 534 983 571 1024 q 435 942 497 942 m 444 1015 q 483 1026 467 1015 q 500 1065 500 1036 q 483 1108 500 1092 q 438 1124 467 1124 q 396 1110 410 1124 q 382 1074 382 1097 q 401 1030 382 1044 q 444 1015 421 1015 z "},"Ǻ":{"ha":868,"x_min":-17,"x_max":881,"o":"m 767 183 q 806 113 782 133 q 875 88 829 92 l 881 78 l 871 -4 q 803 -1 853 -3 q 700 0 753 0 q 556 -5 626 0 q 465 -11 485 -10 l 458 0 l 465 85 q 534 94 513 89 q 564 108 556 99 q 572 135 572 117 q 564 181 572 151 l 536 286 q 410 288 500 288 q 278 278 356 288 l 244 174 q 236 131 236 144 q 250 98 236 107 q 300 89 264 89 l 358 89 l 365 79 l 356 -8 q 272 -3 336 -7 q 153 0 207 0 q 47 -1 94 0 q -17 -4 -1 -3 l -6 89 q 48 115 28 94 q 85 181 68 135 l 332 885 l 553 907 l 568 900 q 655 576 589 821 q 767 183 721 331 m 408 397 q 511 403 453 397 l 431 708 l 411 708 l 311 397 l 408 397 m 447 926 q 366 957 394 926 q 337 1040 337 988 q 370 1125 337 1091 q 457 1158 403 1158 q 541 1127 513 1158 q 569 1050 569 1096 q 536 963 569 1000 q 447 926 503 926 m 456 992 q 491 1001 476 992 q 506 1037 506 1011 q 491 1075 506 1061 q 449 1090 476 1090 q 412 1078 424 1090 q 399 1045 399 1066 q 417 1005 399 1018 q 456 992 434 992 m 641 1240 q 530 1210 616 1234 q 354 1159 444 1186 l 337 1170 l 321 1229 q 490 1306 405 1265 q 600 1359 575 1346 l 615 1352 l 647 1256 l 641 1240 z "},"Ã":{"ha":868,"x_min":-17,"x_max":881,"o":"m 767 183 q 806 113 782 133 q 875 88 829 92 l 881 78 l 871 -4 q 803 -1 853 -3 q 700 0 753 0 q 556 -5 626 0 q 465 -11 485 -10 l 458 0 l 465 85 q 534 94 513 89 q 564 108 556 99 q 572 135 572 117 q 564 181 572 151 l 536 286 q 410 288 500 288 q 278 278 356 288 l 244 174 q 236 131 236 144 q 250 98 236 107 q 300 89 264 89 l 358 89 l 365 79 l 356 -8 q 272 -3 336 -7 q 153 0 207 0 q 47 -1 94 0 q -17 -4 -1 -3 l -6 89 q 48 115 28 94 q 85 181 68 135 l 332 885 l 553 907 l 568 900 q 655 576 589 821 q 767 183 721 331 m 408 397 q 511 403 453 397 l 431 708 l 411 708 l 311 397 l 408 397 m 193 1021 l 301 1154 l 325 1160 q 436 1135 353 1160 q 480 1123 443 1133 q 533 1113 517 1113 q 567 1128 547 1113 q 603 1162 588 1144 q 624 1185 619 1179 l 638 1185 l 693 1133 l 693 1119 l 585 985 l 561 979 q 449 1004 535 979 q 354 1026 371 1026 q 319 1010 339 1026 q 283 977 299 994 q 264 954 268 960 l 249 954 l 193 1006 l 193 1021 z "},"Æ":{"ha":1210,"x_min":-6,"x_max":1178,"o":"m 443 85 q 516 95 492 89 q 549 114 540 101 q 558 150 558 126 q 553 218 558 168 l 536 346 l 415 331 l 297 308 l 236 174 q 221 122 221 139 q 237 96 221 103 q 297 89 253 89 l 343 82 l 335 -8 q 233 -3 310 -6 q 103 0 157 0 q 40 -1 68 0 q 1 -4 11 -3 l -6 79 q 32 110 8 82 q 78 181 56 138 l 367 771 q 356 794 364 788 q 331 801 347 801 q 306 800 318 801 q 289 799 293 799 l 279 811 l 290 896 q 408 893 318 894 q 626 892 497 892 q 1072 908 956 892 l 1083 893 q 1076 849 1082 883 q 1062 756 1069 815 q 1051 640 1054 697 l 925 632 q 926 654 925 638 q 928 688 928 671 q 915 745 928 728 q 867 769 903 763 q 749 775 831 775 q 689 768 701 775 q 675 738 676 761 l 710 485 l 844 501 l 978 528 l 992 514 l 975 397 l 849 388 l 726 374 l 754 203 q 785 131 763 153 q 851 108 808 108 q 970 119 933 108 q 1024 163 1007 131 q 1050 268 1040 194 l 1167 278 l 1178 264 q 1160 165 1174 242 q 1139 6 1147 89 l 1125 -10 l 1063 -8 q 717 0 821 0 l 665 0 q 528 -5 594 0 q 444 -11 463 -10 l 438 0 l 443 85 m 494 708 l 474 708 l 350 440 l 439 446 l 525 457 l 494 708 z "},"Ǽ":{"ha":1210,"x_min":-6,"x_max":1178,"o":"m 443 85 q 516 95 492 89 q 549 114 540 101 q 558 150 558 126 q 553 218 558 168 l 536 346 l 415 331 l 297 308 l 236 174 q 221 122 221 139 q 237 96 221 103 q 297 89 253 89 l 343 82 l 335 -8 q 233 -3 310 -6 q 103 0 157 0 q 40 -1 68 0 q 1 -4 11 -3 l -6 79 q 32 110 8 82 q 78 181 56 138 l 367 771 q 356 794 364 788 q 331 801 347 801 q 306 800 318 801 q 289 799 293 799 l 279 811 l 290 896 q 408 893 318 894 q 626 892 497 892 q 1072 908 956 892 l 1083 893 q 1076 849 1082 883 q 1062 756 1069 815 q 1051 640 1054 697 l 925 632 q 926 654 925 638 q 928 688 928 671 q 915 745 928 728 q 867 769 903 763 q 749 775 831 775 q 689 768 701 775 q 675 738 676 761 l 710 485 l 844 501 l 978 528 l 992 514 l 975 397 l 849 388 l 726 374 l 754 203 q 785 131 763 153 q 851 108 808 108 q 970 119 933 108 q 1024 163 1007 131 q 1050 268 1040 194 l 1167 278 l 1178 264 q 1160 165 1174 242 q 1139 6 1147 89 l 1125 -10 l 1063 -8 q 717 0 821 0 l 665 0 q 528 -5 594 0 q 444 -11 463 -10 l 438 0 l 443 85 m 494 708 l 474 708 l 350 440 l 439 446 l 525 457 l 494 708 m 906 1149 q 803 1082 882 1135 q 643 969 724 1029 l 622 975 l 581 1031 q 724 1172 653 1099 q 814 1267 794 1244 l 832 1265 l 907 1168 l 906 1149 z "},"B":{"ha":874,"x_min":50,"x_max":822,"o":"m 253 0 q 137 -6 203 0 q 50 -14 71 -11 l 60 81 q 140 113 119 90 q 161 190 161 136 l 163 732 q 153 786 163 771 q 118 801 143 801 q 90 800 104 801 q 71 799 76 799 l 61 810 l 75 894 q 158 893 99 894 q 267 892 217 892 q 388 894 321 892 q 481 899 454 897 q 700 844 625 899 q 775 683 775 789 q 735 560 775 614 q 626 471 696 507 q 769 396 715 447 q 822 264 822 344 q 777 118 822 181 q 650 21 732 56 q 460 -14 568 -14 q 369 -7 428 -14 q 314 -3 353 -6 q 253 0 275 0 m 351 513 q 417 506 368 511 q 483 500 467 500 q 510 514 483 497 q 558 564 536 531 q 579 647 579 597 q 533 750 579 717 q 388 783 486 783 q 369 778 374 783 q 363 758 364 774 q 351 513 354 649 m 343 188 q 374 124 343 143 q 474 106 404 106 q 579 142 542 106 q 617 244 617 179 q 581 338 617 300 q 476 390 544 375 l 349 389 l 343 188 z "},"C":{"ha":857,"x_min":39,"x_max":799,"o":"m 451 -17 q 232 36 325 -17 q 89 188 139 89 q 39 422 39 288 q 99 679 39 569 q 268 849 158 789 q 525 908 378 908 q 635 901 576 908 q 737 885 694 893 q 790 874 779 876 l 799 856 q 789 810 796 846 q 774 717 782 775 q 763 593 767 658 l 625 583 q 626 610 625 590 q 628 657 628 631 q 591 745 628 717 q 476 774 554 774 q 312 697 368 774 q 256 469 256 621 q 317 207 256 300 q 486 114 378 114 q 603 159 561 114 q 661 306 644 204 l 799 315 q 784 209 794 290 q 771 56 774 128 l 757 39 q 710 23 757 38 q 596 -4 664 8 q 451 -17 528 -17 z "},"Ć":{"ha":857,"x_min":39,"x_max":799,"o":"m 451 -17 q 232 36 325 -17 q 89 188 139 89 q 39 422 39 288 q 99 679 39 569 q 268 849 158 789 q 525 908 378 908 q 635 901 576 908 q 737 885 694 893 q 790 874 779 876 l 799 856 q 789 810 796 846 q 774 717 782 775 q 763 593 767 658 l 625 583 q 626 610 625 590 q 628 657 628 631 q 591 745 628 717 q 476 774 554 774 q 312 697 368 774 q 256 469 256 621 q 317 207 256 300 q 486 114 378 114 q 603 159 561 114 q 661 306 644 204 l 799 315 q 784 209 794 290 q 771 56 774 128 l 757 39 q 710 23 757 38 q 596 -4 664 8 q 451 -17 528 -17 m 718 1058 q 594 1025 690 1051 q 399 968 499 999 l 381 981 l 363 1046 q 550 1131 456 1086 q 672 1190 644 1176 l 689 1183 l 725 1076 l 718 1058 z "},"Č":{"ha":857,"x_min":39,"x_max":799,"o":"m 451 -17 q 232 36 325 -17 q 89 188 139 89 q 39 422 39 288 q 99 679 39 569 q 268 849 158 789 q 525 908 378 908 q 635 901 576 908 q 737 885 694 893 q 790 874 779 876 l 799 856 q 789 810 796 846 q 774 717 782 775 q 763 593 767 658 l 625 583 q 626 610 625 590 q 628 657 628 631 q 591 745 628 717 q 476 774 554 774 q 312 697 368 774 q 256 469 256 621 q 317 207 256 300 q 486 114 378 114 q 603 159 561 114 q 661 306 644 204 l 799 315 q 784 209 794 290 q 771 56 774 128 l 757 39 q 710 23 757 38 q 596 -4 664 8 q 451 -17 528 -17 m 713 1139 q 582 1038 649 1092 q 496 967 515 983 l 467 967 q 381 1038 447 983 q 250 1139 314 1092 l 283 1197 l 306 1201 q 482 1121 393 1157 q 657 1201 532 1142 l 679 1197 l 713 1139 z "},"Ç":{"ha":857,"x_min":39,"x_max":799,"o":"m 486 114 q 603 159 561 114 q 661 306 644 204 l 799 315 q 784 209 794 290 q 771 56 774 128 l 757 39 q 712 24 747 35 q 617 0 676 13 q 489 -15 557 -12 l 476 -61 q 574 -128 538 -97 q 610 -196 610 -158 q 583 -262 610 -232 q 515 -311 557 -293 q 425 -329 472 -329 q 351 -312 385 -329 q 317 -269 317 -296 q 368 -182 317 -243 l 381 -182 q 401 -240 382 -219 q 453 -260 421 -260 q 492 -248 476 -260 q 508 -218 508 -236 q 475 -172 508 -197 q 389 -119 442 -147 l 418 -15 q 140 112 240 -4 q 39 422 39 228 q 99 679 39 569 q 268 849 158 789 q 525 908 378 908 q 635 901 576 908 q 737 885 694 893 q 790 874 779 876 l 799 856 q 789 810 796 846 q 774 717 782 775 q 763 593 767 658 l 625 583 q 626 610 625 590 q 628 657 628 631 q 591 745 628 717 q 476 774 554 774 q 312 697 368 774 q 256 469 256 621 q 317 207 256 300 q 486 114 378 114 z "},"Ĉ":{"ha":857,"x_min":39,"x_max":799,"o":"m 451 -17 q 232 36 325 -17 q 89 188 139 89 q 39 422 39 288 q 99 679 39 569 q 268 849 158 789 q 525 908 378 908 q 635 901 576 908 q 737 885 694 893 q 790 874 779 876 l 799 856 q 789 810 796 846 q 774 717 782 775 q 763 593 767 658 l 625 583 q 626 610 625 590 q 628 657 628 631 q 591 745 628 717 q 476 774 554 774 q 312 697 368 774 q 256 469 256 621 q 317 207 256 300 q 486 114 378 114 q 603 159 561 114 q 661 306 644 204 l 799 315 q 784 209 794 290 q 771 56 774 128 l 757 39 q 710 23 757 38 q 596 -4 664 8 q 451 -17 528 -17 m 249 1042 q 376 1167 311 1100 q 460 1256 440 1235 l 488 1256 q 572 1167 507 1235 q 699 1042 636 1100 l 658 985 l 636 979 q 503 1075 579 1024 l 474 1094 q 311 979 365 1022 l 289 985 l 249 1042 z "},"Ċ":{"ha":857,"x_min":39,"x_max":799,"o":"m 451 -17 q 232 36 325 -17 q 89 188 139 89 q 39 422 39 288 q 99 679 39 569 q 268 849 158 789 q 525 908 378 908 q 635 901 576 908 q 737 885 694 893 q 790 874 779 876 l 799 856 q 789 810 796 846 q 774 717 782 775 q 763 593 767 658 l 625 583 q 626 610 625 590 q 628 657 628 631 q 591 745 628 717 q 476 774 554 774 q 312 697 368 774 q 256 469 256 621 q 317 207 256 300 q 486 114 378 114 q 603 159 561 114 q 661 306 644 204 l 799 315 q 784 209 794 290 q 771 56 774 128 l 757 39 q 710 23 757 38 q 596 -4 664 8 q 451 -17 528 -17 m 479 975 q 406 1002 432 975 q 381 1075 381 1029 q 411 1155 381 1124 q 492 1186 442 1186 q 563 1159 538 1186 q 589 1086 589 1132 q 558 1006 589 1038 q 479 975 528 975 z "},"D":{"ha":963,"x_min":53,"x_max":924,"o":"m 442 -17 q 350 -7 419 -14 q 231 0 281 0 q 128 -6 186 0 q 53 -14 71 -11 l 63 82 q 142 117 121 93 q 163 199 163 140 l 163 725 q 154 785 163 769 q 119 800 146 800 q 91 799 104 800 q 74 797 78 797 l 65 810 l 76 896 q 149 894 96 896 q 254 892 203 892 q 382 894 315 892 q 474 899 449 897 q 804 788 685 899 q 924 482 924 678 q 862 224 924 338 q 690 47 800 110 q 442 -17 581 -17 m 400 778 q 370 771 378 778 q 361 744 363 764 q 343 203 343 365 q 353 142 343 163 q 387 113 363 121 q 458 104 411 104 q 642 188 579 104 q 704 439 704 272 q 630 697 704 615 q 400 778 556 778 z "},"Ð":{"ha":985,"x_min":11,"x_max":944,"o":"m 463 -17 q 371 -7 440 -14 q 251 0 301 0 q 149 -6 207 0 q 74 -14 92 -11 l 83 82 q 147 102 126 89 q 176 143 168 115 q 183 225 183 171 l 183 397 l 22 397 l 11 407 l 25 490 l 183 490 l 183 725 q 175 785 183 769 q 140 800 167 800 q 112 799 125 800 q 94 797 99 797 l 86 810 l 97 896 q 170 894 117 896 q 275 892 224 892 q 401 894 333 892 q 494 899 468 897 q 735 849 633 899 q 890 704 836 799 q 944 482 944 610 q 883 224 944 338 q 711 47 821 110 q 463 -17 601 -17 m 551 481 l 543 397 l 368 397 l 364 203 q 374 142 364 163 q 408 113 383 121 q 479 104 432 104 q 663 188 600 104 q 725 439 725 272 q 651 697 725 615 q 421 778 576 778 q 391 771 399 778 q 382 744 383 764 l 371 490 l 543 493 l 551 481 z "},"Ď":{"ha":963,"x_min":53,"x_max":924,"o":"m 442 -17 q 350 -7 419 -14 q 231 0 281 0 q 128 -6 186 0 q 53 -14 71 -11 l 63 82 q 142 117 121 93 q 163 199 163 140 l 163 725 q 154 785 163 769 q 119 800 146 800 q 91 799 104 800 q 74 797 78 797 l 65 810 l 76 896 q 149 894 96 896 q 254 892 203 892 q 382 894 315 892 q 474 899 449 897 q 804 788 685 899 q 924 482 924 678 q 862 224 924 338 q 690 47 800 110 q 442 -17 581 -17 m 400 778 q 370 771 378 778 q 361 744 363 764 q 343 203 343 365 q 353 142 343 163 q 387 113 363 121 q 458 104 411 104 q 642 188 579 104 q 704 439 704 272 q 630 697 704 615 q 400 778 556 778 m 701 1139 q 571 1038 638 1092 q 485 967 504 983 l 456 967 q 369 1038 436 983 q 239 1139 303 1092 l 272 1197 l 294 1201 q 471 1121 382 1157 q 646 1201 521 1142 l 668 1197 l 701 1139 z "},"Đ":{"ha":985,"x_min":11,"x_max":944,"o":"m 463 -17 q 371 -7 440 -14 q 251 0 301 0 q 149 -6 207 0 q 74 -14 92 -11 l 83 82 q 147 102 126 89 q 176 143 168 115 q 183 225 183 171 l 183 397 l 22 397 l 11 407 l 25 490 l 183 490 l 183 725 q 175 785 183 769 q 140 800 167 800 q 112 799 125 800 q 94 797 99 797 l 86 810 l 97 896 q 170 894 117 896 q 275 892 224 892 q 401 894 333 892 q 494 899 468 897 q 735 849 633 899 q 890 704 836 799 q 944 482 944 610 q 883 224 944 338 q 711 47 821 110 q 463 -17 601 -17 m 551 481 l 543 397 l 368 397 l 364 203 q 374 142 364 163 q 408 113 383 121 q 479 104 432 104 q 663 188 600 104 q 725 439 725 272 q 651 697 725 615 q 421 778 576 778 q 391 771 399 778 q 382 744 383 764 l 371 490 l 543 493 l 551 481 z "},"E":{"ha":829,"x_min":50,"x_max":776,"o":"m 343 193 q 349 138 343 154 q 372 115 354 121 q 432 110 390 110 q 563 121 522 110 q 621 163 603 132 q 649 268 639 194 l 765 278 l 776 264 q 759 165 772 242 q 738 6 746 89 l 724 -10 q 540 -4 681 -8 q 292 0 399 0 q 142 -6 214 0 q 50 -14 71 -11 l 60 81 q 139 114 118 89 q 160 200 160 139 l 161 726 q 152 786 161 771 q 117 801 143 801 q 91 800 103 801 q 75 799 79 799 l 65 811 l 76 896 q 175 893 101 894 q 332 892 249 892 q 754 908 626 892 l 765 893 q 750 797 761 872 q 733 640 739 721 l 607 632 q 608 654 607 638 q 610 688 610 671 q 598 745 610 728 q 551 769 586 763 q 433 775 515 775 q 385 772 399 775 q 366 760 371 769 q 361 729 361 751 l 351 514 l 481 513 q 567 517 510 513 q 642 524 624 522 l 653 511 l 633 392 q 563 394 615 393 q 451 396 510 396 q 346 388 421 396 q 343 193 343 286 z "},"É":{"ha":829,"x_min":50,"x_max":776,"o":"m 343 193 q 349 138 343 154 q 372 115 354 121 q 432 110 390 110 q 563 121 522 110 q 621 163 603 132 q 649 268 639 194 l 765 278 l 776 264 q 759 165 772 242 q 738 6 746 89 l 724 -10 q 540 -4 681 -8 q 292 0 399 0 q 142 -6 214 0 q 50 -14 71 -11 l 60 81 q 139 114 118 89 q 160 200 160 139 l 161 726 q 152 786 161 771 q 117 801 143 801 q 91 800 103 801 q 75 799 79 799 l 65 811 l 76 896 q 175 893 101 894 q 332 892 249 892 q 754 908 626 892 l 765 893 q 750 797 761 872 q 733 640 739 721 l 607 632 q 608 654 607 638 q 610 688 610 671 q 598 745 610 728 q 551 769 586 763 q 433 775 515 775 q 385 772 399 775 q 366 760 371 769 q 361 729 361 751 l 351 514 l 481 513 q 567 517 510 513 q 642 524 624 522 l 653 511 l 633 392 q 563 394 615 393 q 451 396 510 396 q 346 388 421 396 q 343 193 343 286 m 676 1058 q 553 1025 649 1051 q 357 968 457 999 l 339 981 l 321 1046 q 508 1131 414 1086 q 631 1190 603 1176 l 647 1183 l 683 1076 l 676 1058 z "},"Ĕ":{"ha":829,"x_min":50,"x_max":776,"o":"m 343 193 q 349 138 343 154 q 372 115 354 121 q 432 110 390 110 q 563 121 522 110 q 621 163 603 132 q 649 268 639 194 l 765 278 l 776 264 q 759 165 772 242 q 738 6 746 89 l 724 -10 q 540 -4 681 -8 q 292 0 399 0 q 142 -6 214 0 q 50 -14 71 -11 l 60 81 q 139 114 118 89 q 160 200 160 139 l 161 726 q 152 786 161 771 q 117 801 143 801 q 91 800 103 801 q 75 799 79 799 l 65 811 l 76 896 q 175 893 101 894 q 332 892 249 892 q 754 908 626 892 l 765 893 q 750 797 761 872 q 733 640 739 721 l 607 632 q 608 654 607 638 q 610 688 610 671 q 598 745 610 728 q 551 769 586 763 q 433 775 515 775 q 385 772 399 775 q 366 760 371 769 q 361 729 361 751 l 351 514 l 481 513 q 567 517 510 513 q 642 524 624 522 l 653 511 l 633 392 q 563 394 615 393 q 451 396 510 396 q 346 388 421 396 q 343 193 343 286 m 454 1135 q 541 1159 503 1135 q 597 1229 579 1183 l 621 1225 l 660 1176 q 588 1052 639 1101 q 454 1003 536 1003 q 320 1053 372 1003 q 249 1176 268 1103 l 288 1225 l 311 1229 q 367 1159 329 1183 q 454 1135 406 1135 z "},"Ě":{"ha":829,"x_min":50,"x_max":776,"o":"m 343 193 q 349 138 343 154 q 372 115 354 121 q 432 110 390 110 q 563 121 522 110 q 621 163 603 132 q 649 268 639 194 l 765 278 l 776 264 q 759 165 772 242 q 738 6 746 89 l 724 -10 q 540 -4 681 -8 q 292 0 399 0 q 142 -6 214 0 q 50 -14 71 -11 l 60 81 q 139 114 118 89 q 160 200 160 139 l 161 726 q 152 786 161 771 q 117 801 143 801 q 91 800 103 801 q 75 799 79 799 l 65 811 l 76 896 q 175 893 101 894 q 332 892 249 892 q 754 908 626 892 l 765 893 q 750 797 761 872 q 733 640 739 721 l 607 632 q 608 654 607 638 q 610 688 610 671 q 598 745 610 728 q 551 769 586 763 q 433 775 515 775 q 385 772 399 775 q 366 760 371 769 q 361 729 361 751 l 351 514 l 481 513 q 567 517 510 513 q 642 524 624 522 l 653 511 l 633 392 q 563 394 615 393 q 451 396 510 396 q 346 388 421 396 q 343 193 343 286 m 672 1139 q 542 1038 608 1092 q 456 967 475 983 l 426 967 q 340 1038 407 983 q 210 1139 274 1092 l 243 1197 l 265 1201 q 442 1121 353 1157 q 617 1201 492 1142 l 639 1197 l 672 1139 z "},"Ê":{"ha":829,"x_min":50,"x_max":776,"o":"m 343 193 q 349 138 343 154 q 372 115 354 121 q 432 110 390 110 q 563 121 522 110 q 621 163 603 132 q 649 268 639 194 l 765 278 l 776 264 q 759 165 772 242 q 738 6 746 89 l 724 -10 q 540 -4 681 -8 q 292 0 399 0 q 142 -6 214 0 q 50 -14 71 -11 l 60 81 q 139 114 118 89 q 160 200 160 139 l 161 726 q 152 786 161 771 q 117 801 143 801 q 91 800 103 801 q 75 799 79 799 l 65 811 l 76 896 q 175 893 101 894 q 332 892 249 892 q 754 908 626 892 l 765 893 q 750 797 761 872 q 733 640 739 721 l 607 632 q 608 654 607 638 q 610 688 610 671 q 598 745 610 728 q 551 769 586 763 q 433 775 515 775 q 385 772 399 775 q 366 760 371 769 q 361 729 361 751 l 351 514 l 481 513 q 567 517 510 513 q 642 524 624 522 l 653 511 l 633 392 q 563 394 615 393 q 451 396 510 396 q 346 388 421 396 q 343 193 343 286 m 211 1044 q 342 1146 275 1092 q 429 1217 410 1200 l 457 1217 q 522 1165 457 1219 q 589 1111 542 1150 q 674 1044 636 1072 l 640 988 l 618 982 q 443 1063 540 1021 q 267 982 382 1038 l 246 988 l 211 1044 z "},"Ë":{"ha":829,"x_min":50,"x_max":776,"o":"m 343 193 q 349 138 343 154 q 372 115 354 121 q 432 110 390 110 q 563 121 522 110 q 621 163 603 132 q 649 268 639 194 l 765 278 l 776 264 q 759 165 772 242 q 738 6 746 89 l 724 -10 q 540 -4 681 -8 q 292 0 399 0 q 142 -6 214 0 q 50 -14 71 -11 l 60 81 q 139 114 118 89 q 160 200 160 139 l 161 726 q 152 786 161 771 q 117 801 143 801 q 91 800 103 801 q 75 799 79 799 l 65 811 l 76 896 q 175 893 101 894 q 332 892 249 892 q 754 908 626 892 l 765 893 q 750 797 761 872 q 733 640 739 721 l 607 632 q 608 654 607 638 q 610 688 610 671 q 598 745 610 728 q 551 769 586 763 q 433 775 515 775 q 385 772 399 775 q 366 760 371 769 q 361 729 361 751 l 351 514 l 481 513 q 567 517 510 513 q 642 524 624 522 l 653 511 l 633 392 q 563 394 615 393 q 451 396 510 396 q 346 388 421 396 q 343 193 343 286 m 311 981 q 251 1003 272 981 q 229 1065 229 1026 q 255 1132 229 1106 q 322 1158 281 1158 q 383 1135 361 1158 q 406 1075 406 1113 q 380 1007 406 1033 q 311 981 354 981 m 560 981 q 498 1003 519 981 q 476 1065 476 1026 q 502 1132 476 1106 q 569 1158 528 1158 q 631 1135 608 1158 q 653 1075 653 1113 q 627 1007 653 1033 q 560 981 601 981 z "},"Ė":{"ha":829,"x_min":50,"x_max":776,"o":"m 343 193 q 349 138 343 154 q 372 115 354 121 q 432 110 390 110 q 563 121 522 110 q 621 163 603 132 q 649 268 639 194 l 765 278 l 776 264 q 759 165 772 242 q 738 6 746 89 l 724 -10 q 540 -4 681 -8 q 292 0 399 0 q 142 -6 214 0 q 50 -14 71 -11 l 60 81 q 139 114 118 89 q 160 200 160 139 l 161 726 q 152 786 161 771 q 117 801 143 801 q 91 800 103 801 q 75 799 79 799 l 65 811 l 76 896 q 175 893 101 894 q 332 892 249 892 q 754 908 626 892 l 765 893 q 750 797 761 872 q 733 640 739 721 l 607 632 q 608 654 607 638 q 610 688 610 671 q 598 745 610 728 q 551 769 586 763 q 433 775 515 775 q 385 772 399 775 q 366 760 371 769 q 361 729 361 751 l 351 514 l 481 513 q 567 517 510 513 q 642 524 624 522 l 653 511 l 633 392 q 563 394 615 393 q 451 396 510 396 q 346 388 421 396 q 343 193 343 286 m 438 975 q 365 1002 390 975 q 339 1075 339 1029 q 369 1155 339 1124 q 450 1186 400 1186 q 522 1159 496 1186 q 547 1086 547 1132 q 517 1006 547 1038 q 438 975 486 975 z "},"È":{"ha":829,"x_min":50,"x_max":776,"o":"m 343 193 q 349 138 343 154 q 372 115 354 121 q 432 110 390 110 q 563 121 522 110 q 621 163 603 132 q 649 268 639 194 l 765 278 l 776 264 q 759 165 772 242 q 738 6 746 89 l 724 -10 q 540 -4 681 -8 q 292 0 399 0 q 142 -6 214 0 q 50 -14 71 -11 l 60 81 q 139 114 118 89 q 160 200 160 139 l 161 726 q 152 786 161 771 q 117 801 143 801 q 91 800 103 801 q 75 799 79 799 l 65 811 l 76 896 q 175 893 101 894 q 332 892 249 892 q 754 908 626 892 l 765 893 q 750 797 761 872 q 733 640 739 721 l 607 632 q 608 654 607 638 q 610 688 610 671 q 598 745 610 728 q 551 769 586 763 q 433 775 515 775 q 385 772 399 775 q 366 760 371 769 q 361 729 361 751 l 351 514 l 481 513 q 567 517 510 513 q 642 524 624 522 l 653 511 l 633 392 q 563 394 615 393 q 451 396 510 396 q 346 388 421 396 q 343 193 343 286 m 261 1190 q 383 1131 289 1176 q 571 1046 476 1086 l 553 981 l 535 968 q 339 1026 435 1000 q 215 1058 243 1051 l 208 1076 l 244 1183 l 261 1190 z "},"Ē":{"ha":829,"x_min":50,"x_max":776,"o":"m 343 193 q 349 138 343 154 q 372 115 354 121 q 432 110 390 110 q 563 121 522 110 q 621 163 603 132 q 649 268 639 194 l 765 278 l 776 264 q 759 165 772 242 q 738 6 746 89 l 724 -10 q 540 -4 681 -8 q 292 0 399 0 q 142 -6 214 0 q 50 -14 71 -11 l 60 81 q 139 114 118 89 q 160 200 160 139 l 161 726 q 152 786 161 771 q 117 801 143 801 q 91 800 103 801 q 75 799 79 799 l 65 811 l 76 896 q 175 893 101 894 q 332 892 249 892 q 754 908 626 892 l 765 893 q 750 797 761 872 q 733 640 739 721 l 607 632 q 608 654 607 638 q 610 688 610 671 q 598 745 610 728 q 551 769 586 763 q 433 775 515 775 q 385 772 399 775 q 366 760 371 769 q 361 729 361 751 l 351 514 l 481 513 q 567 517 510 513 q 642 524 624 522 l 653 511 l 633 392 q 563 394 615 393 q 451 396 510 396 q 346 388 421 396 q 343 193 343 286 m 442 983 l 249 982 l 233 999 l 253 1104 l 467 1103 q 567 1106 510 1103 q 643 1111 625 1110 l 654 1092 l 638 985 l 442 983 z "},"Ę":{"ha":829,"x_min":50,"x_max":783,"o":"m 783 -243 q 756 -266 778 -249 q 703 -303 735 -283 q 642 -335 672 -324 q 520 -301 565 -335 q 475 -208 475 -267 q 505 -119 475 -165 q 597 -6 535 -72 q 292 0 417 0 q 142 -6 214 0 q 50 -14 71 -11 l 60 81 q 139 114 118 89 q 160 200 160 139 l 161 726 q 152 786 161 771 q 117 801 143 801 q 91 800 103 801 q 75 799 79 799 l 65 811 l 76 896 q 175 893 101 894 q 332 892 249 892 q 754 908 628 892 l 765 893 q 750 797 761 872 q 733 640 739 721 l 607 632 q 608 654 607 638 q 610 688 610 671 q 598 745 610 728 q 551 769 586 763 q 433 775 515 775 q 385 772 399 775 q 366 760 371 769 q 361 729 361 751 l 351 514 l 481 513 q 567 517 510 513 q 642 524 624 522 l 653 511 l 633 392 q 563 394 615 393 q 451 396 510 396 q 346 388 421 396 q 343 193 343 286 q 349 138 343 154 q 372 115 354 121 q 432 110 390 110 q 563 121 522 110 q 621 163 603 132 q 649 268 639 194 l 765 278 l 776 264 q 759 165 772 242 q 738 6 746 89 l 724 -10 l 678 -8 q 607 -103 626 -69 q 588 -169 588 -137 q 607 -217 588 -199 q 657 -236 626 -236 q 701 -228 679 -236 q 738 -213 724 -221 q 757 -203 753 -206 l 783 -243 z "},"F":{"ha":739,"x_min":50,"x_max":733,"o":"m 343 197 q 355 126 343 144 q 403 108 367 108 q 454 112 425 108 q 493 117 483 115 l 504 101 l 489 -6 q 401 -2 465 -4 q 274 0 336 0 q 139 -6 208 0 q 50 -15 69 -12 l 60 79 q 140 114 119 89 q 160 200 160 139 l 161 726 q 152 786 161 771 q 117 801 143 801 q 91 800 103 801 q 75 799 79 799 l 65 811 l 76 896 q 175 893 101 894 q 332 892 249 892 q 722 908 604 892 l 733 893 q 719 795 729 871 q 704 639 708 719 l 578 631 q 579 654 578 638 q 581 688 581 671 q 570 744 581 726 q 530 769 560 763 q 433 775 500 775 q 385 772 399 775 q 366 760 371 769 q 361 729 361 751 l 350 490 l 481 489 q 558 494 507 489 q 626 500 610 499 l 636 488 l 617 368 q 552 371 600 369 q 451 372 504 372 q 346 363 401 372 l 343 197 z "},"G":{"ha":908,"x_min":39,"x_max":840,"o":"m 840 407 q 803 367 815 390 q 788 303 792 344 q 783 178 783 261 q 793 57 783 94 l 781 39 q 734 23 781 38 q 615 -4 688 8 q 453 -17 542 -17 q 233 36 326 -17 q 89 188 139 89 q 39 422 39 288 q 98 682 39 572 q 269 850 157 792 q 533 908 381 908 q 649 901 588 908 q 753 885 710 893 q 808 874 796 876 l 818 856 q 808 813 815 847 q 794 721 801 778 q 782 600 786 664 l 644 592 q 647 617 646 597 q 649 667 649 638 q 615 749 649 725 q 500 774 581 774 q 315 699 375 774 q 254 469 254 624 q 315 206 254 299 q 488 114 376 114 q 553 122 524 114 q 600 139 583 131 q 621 150 617 147 l 621 279 q 609 333 621 319 q 560 346 597 346 l 489 346 l 481 357 l 496 457 q 556 456 531 457 l 689 454 q 775 457 732 454 q 831 461 818 460 l 840 407 z "},"Ğ":{"ha":908,"x_min":39,"x_max":840,"o":"m 840 407 q 803 367 815 390 q 788 303 792 344 q 783 178 783 261 q 793 57 783 94 l 781 39 q 734 23 781 38 q 615 -4 688 8 q 453 -17 542 -17 q 233 36 326 -17 q 89 188 139 89 q 39 422 39 288 q 98 682 39 572 q 269 850 157 792 q 533 908 381 908 q 649 901 588 908 q 753 885 710 893 q 808 874 796 876 l 818 856 q 808 813 815 847 q 794 721 801 778 q 782 600 786 664 l 644 592 q 647 617 646 597 q 649 667 649 638 q 615 749 649 725 q 500 774 581 774 q 315 699 375 774 q 254 469 254 624 q 315 206 254 299 q 488 114 376 114 q 553 122 524 114 q 600 139 583 131 q 621 150 617 147 l 621 279 q 609 333 621 319 q 560 346 597 346 l 489 346 l 481 357 l 496 457 q 556 456 531 457 l 689 454 q 775 457 732 454 q 831 461 818 460 l 840 407 m 492 1094 q 578 1116 540 1094 q 635 1178 617 1138 l 658 1172 l 697 1124 q 625 1008 676 1054 q 492 963 574 963 q 358 1009 410 963 q 286 1124 306 1056 l 325 1172 l 349 1178 q 405 1116 367 1138 q 492 1094 443 1094 z "},"Ĝ":{"ha":908,"x_min":39,"x_max":840,"o":"m 840 407 q 803 367 815 390 q 788 303 792 344 q 783 178 783 261 q 793 57 783 94 l 781 39 q 734 23 781 38 q 615 -4 688 8 q 453 -17 542 -17 q 233 36 326 -17 q 89 188 139 89 q 39 422 39 288 q 98 682 39 572 q 269 850 157 792 q 533 908 381 908 q 649 901 588 908 q 753 885 710 893 q 808 874 796 876 l 818 856 q 808 813 815 847 q 794 721 801 778 q 782 600 786 664 l 644 592 q 647 617 646 597 q 649 667 649 638 q 615 749 649 725 q 500 774 581 774 q 315 699 375 774 q 254 469 254 624 q 315 206 254 299 q 488 114 376 114 q 553 122 524 114 q 600 139 583 131 q 621 150 617 147 l 621 279 q 609 333 621 319 q 560 346 597 346 l 489 346 l 481 357 l 496 457 q 556 456 531 457 l 689 454 q 775 457 732 454 q 831 461 818 460 l 840 407 m 258 1042 q 385 1167 321 1100 q 469 1256 450 1235 l 497 1256 q 581 1167 517 1235 q 708 1042 646 1100 l 668 985 l 646 979 q 513 1075 589 1024 l 483 1094 q 321 979 375 1022 l 299 985 l 258 1042 z "},"Ģ":{"ha":908,"x_min":39,"x_max":840,"o":"m 840 407 q 803 367 815 390 q 788 303 792 344 q 783 178 783 261 q 793 57 783 94 l 781 39 q 734 23 781 38 q 615 -4 688 8 q 453 -17 542 -17 q 233 36 326 -17 q 89 188 139 89 q 39 422 39 288 q 98 682 39 572 q 269 850 157 792 q 533 908 381 908 q 649 901 588 908 q 753 885 710 893 q 808 874 796 876 l 818 856 q 808 813 815 847 q 794 721 801 778 q 782 600 786 664 l 644 592 q 647 617 646 597 q 649 667 649 638 q 615 749 649 725 q 500 774 581 774 q 315 699 375 774 q 254 469 254 624 q 315 206 254 299 q 488 114 376 114 q 553 122 524 114 q 600 139 583 131 q 621 150 617 147 l 621 279 q 609 333 621 319 q 560 346 597 346 l 489 346 l 481 357 l 496 457 q 556 456 531 457 l 689 454 q 775 457 732 454 q 831 461 818 460 l 840 407 m 367 -119 q 476 -71 428 -71 q 545 -103 518 -71 q 572 -190 572 -136 q 515 -326 572 -260 q 368 -442 457 -393 l 317 -400 l 317 -376 q 385 -309 358 -349 q 411 -235 411 -269 q 398 -181 411 -207 q 363 -139 385 -156 l 367 -119 z "},"Ġ":{"ha":908,"x_min":39,"x_max":840,"o":"m 840 407 q 803 367 815 390 q 788 303 792 344 q 783 178 783 261 q 793 57 783 94 l 781 39 q 734 23 781 38 q 615 -4 688 8 q 453 -17 542 -17 q 233 36 326 -17 q 89 188 139 89 q 39 422 39 288 q 98 682 39 572 q 269 850 157 792 q 533 908 381 908 q 649 901 588 908 q 753 885 710 893 q 808 874 796 876 l 818 856 q 808 813 815 847 q 794 721 801 778 q 782 600 786 664 l 644 592 q 647 617 646 597 q 649 667 649 638 q 615 749 649 725 q 500 774 581 774 q 315 699 375 774 q 254 469 254 624 q 315 206 254 299 q 488 114 376 114 q 553 122 524 114 q 600 139 583 131 q 621 150 617 147 l 621 279 q 609 333 621 319 q 560 346 597 346 l 489 346 l 481 357 l 496 457 q 556 456 531 457 l 689 454 q 775 457 732 454 q 831 461 818 460 l 840 407 m 489 975 q 416 1002 442 975 q 390 1075 390 1029 q 421 1155 390 1124 q 501 1186 451 1186 q 573 1159 547 1186 q 599 1086 599 1132 q 568 1006 599 1038 q 489 975 538 975 z "},"H":{"ha":1038,"x_min":51,"x_max":989,"o":"m 890 733 q 878 457 883 617 q 874 185 874 297 q 885 111 874 131 q 931 92 897 92 q 963 93 949 92 q 982 96 978 94 l 989 85 l 976 -4 q 899 -1 957 -3 q 774 0 842 0 q 660 -1 719 0 q 579 -3 601 -3 l 592 89 q 653 101 632 90 q 682 139 674 113 q 690 217 690 165 l 690 393 l 542 394 q 444 389 518 394 q 346 381 371 383 l 343 185 q 353 109 343 128 q 396 90 364 90 q 429 92 415 90 q 447 94 443 93 l 454 85 l 442 -4 q 372 -2 422 -4 q 272 0 321 0 q 132 -5 211 0 q 51 -12 53 -10 l 61 78 q 142 113 122 90 q 161 194 161 136 l 161 729 q 151 787 161 772 q 111 801 142 801 l 69 800 l 63 811 l 72 893 l 239 892 q 353 896 282 892 q 449 901 425 900 l 442 808 q 389 794 406 803 q 366 767 372 785 q 358 710 360 749 l 350 511 l 528 508 q 690 518 613 508 l 692 729 q 682 787 692 772 q 642 801 672 801 l 599 800 l 592 811 l 601 893 l 779 892 q 890 896 819 892 q 983 901 961 900 l 976 810 q 909 788 925 803 q 890 733 893 774 z "},"Ħ":{"ha":1035,"x_min":26,"x_max":1008,"o":"m 883 617 q 872 185 872 383 q 884 111 872 131 q 929 92 896 92 q 962 93 947 92 q 981 96 976 94 l 988 85 l 975 -4 q 898 -1 956 -3 q 772 0 840 0 q 659 -1 718 0 q 578 -3 600 -3 l 590 89 q 651 101 631 90 q 681 139 672 113 q 689 217 689 165 l 689 393 l 540 394 q 443 389 517 394 q 344 381 369 383 l 342 185 q 352 109 342 128 q 394 90 363 90 q 428 92 414 90 q 446 94 442 93 l 453 85 l 440 -4 q 370 -2 421 -4 q 271 0 319 0 q 131 -5 210 0 q 50 -12 51 -10 l 60 78 q 140 113 121 90 q 160 194 160 136 l 160 614 l 40 614 l 26 628 l 36 694 l 160 694 l 160 729 q 150 787 160 772 q 110 801 140 801 l 68 800 l 61 811 l 71 893 l 238 892 q 352 896 281 892 q 447 901 424 900 l 440 808 q 388 794 404 803 q 365 767 371 785 q 357 710 358 749 l 357 693 l 553 693 q 690 694 643 693 l 690 729 q 681 787 690 772 q 640 801 671 801 l 597 800 l 590 811 l 600 893 l 778 892 q 889 896 818 892 q 982 901 960 900 l 975 810 q 908 788 924 803 q 889 733 892 774 l 888 697 l 989 700 l 1008 681 l 1003 617 l 883 617 m 521 615 l 353 615 l 349 511 l 526 508 q 689 518 611 508 l 689 615 l 521 615 z "},"Ĥ":{"ha":1038,"x_min":51,"x_max":989,"o":"m 890 733 q 878 457 883 617 q 874 185 874 297 q 885 111 874 131 q 931 92 897 92 q 963 93 949 92 q 982 96 978 94 l 989 85 l 976 -4 q 899 -1 957 -3 q 774 0 842 0 q 660 -1 719 0 q 579 -3 601 -3 l 592 89 q 653 101 632 90 q 682 139 674 113 q 690 217 690 165 l 690 393 l 542 394 q 444 389 518 394 q 346 381 371 383 l 343 185 q 353 109 343 128 q 396 90 364 90 q 429 92 415 90 q 447 94 443 93 l 454 85 l 442 -4 q 372 -2 422 -4 q 272 0 321 0 q 132 -5 211 0 q 51 -12 53 -10 l 61 78 q 142 113 122 90 q 161 194 161 136 l 161 729 q 151 787 161 772 q 111 801 142 801 l 69 800 l 63 811 l 72 893 l 239 892 q 353 896 282 892 q 449 901 425 900 l 442 808 q 389 794 406 803 q 366 767 372 785 q 358 710 360 749 l 350 511 l 528 508 q 690 518 613 508 l 692 729 q 682 787 692 772 q 642 801 672 801 l 599 800 l 592 811 l 601 893 l 779 892 q 890 896 819 892 q 983 901 961 900 l 976 810 q 909 788 925 803 q 890 733 893 774 m 294 1078 q 422 1203 357 1136 q 506 1292 486 1271 l 533 1292 q 617 1203 553 1271 q 744 1078 682 1136 l 704 1021 l 682 1015 q 549 1111 625 1060 l 519 1131 q 357 1015 411 1058 l 335 1021 l 294 1078 z "},"I":{"ha":507,"x_min":50,"x_max":463,"o":"m 360 733 q 343 185 343 397 q 354 109 343 128 q 397 90 365 90 q 435 92 419 90 q 456 94 451 93 l 463 85 l 450 -4 q 365 -2 426 -4 q 244 0 303 0 q 132 -5 194 0 q 50 -12 69 -10 l 60 78 q 141 114 121 90 q 161 194 161 138 l 161 729 q 151 787 161 772 q 111 801 142 801 l 64 800 l 57 811 l 67 893 l 260 892 q 367 896 299 892 q 458 901 436 900 l 450 808 q 380 787 397 801 q 360 733 363 772 z "},"Ĳ":{"ha":969,"x_min":50,"x_max":936,"o":"m 360 733 q 343 185 343 397 q 354 109 343 128 q 397 90 365 90 q 435 92 419 90 q 456 94 451 93 l 463 85 l 450 -4 q 365 -2 426 -4 q 244 0 303 0 q 132 -5 194 0 q 50 -12 69 -10 l 60 78 q 141 114 121 90 q 161 194 161 138 l 161 729 q 151 787 161 772 q 111 801 142 801 l 64 800 l 57 811 l 67 893 l 260 892 q 367 896 299 892 q 458 901 436 900 l 450 808 q 380 787 397 801 q 360 733 363 772 m 656 729 q 647 788 656 774 q 608 801 638 801 q 574 799 592 801 q 550 797 557 797 l 543 808 l 553 892 l 725 892 q 851 897 785 893 q 936 903 917 901 l 928 808 q 870 787 883 800 q 856 733 857 774 q 844 445 850 638 q 838 140 839 253 q 771 -82 838 3 q 560 -214 704 -167 l 521 -157 l 525 -142 q 606 -64 578 -103 q 644 28 633 -25 q 656 171 656 82 l 656 729 z "},"Í":{"ha":507,"x_min":50,"x_max":500,"o":"m 360 733 q 343 185 343 397 q 354 109 343 128 q 397 90 365 90 q 435 92 419 90 q 456 94 451 93 l 463 85 l 450 -4 q 365 -2 426 -4 q 244 0 303 0 q 132 -5 194 0 q 50 -12 69 -10 l 60 78 q 141 114 121 90 q 161 194 161 138 l 161 729 q 151 787 161 772 q 111 801 142 801 l 64 800 l 57 811 l 67 893 l 260 892 q 367 896 299 892 q 458 901 436 900 l 450 808 q 380 787 397 801 q 360 733 363 772 m 493 1058 q 369 1025 465 1051 q 174 968 274 999 l 156 981 l 138 1046 q 325 1131 231 1086 q 447 1190 419 1176 l 464 1183 l 500 1076 l 493 1058 z "},"Ĭ":{"ha":507,"x_min":50,"x_max":467,"o":"m 360 733 q 343 185 343 397 q 354 109 343 128 q 397 90 365 90 q 435 92 419 90 q 456 94 451 93 l 463 85 l 450 -4 q 365 -2 426 -4 q 244 0 303 0 q 132 -5 194 0 q 50 -12 69 -10 l 60 78 q 141 114 121 90 q 161 194 161 138 l 161 729 q 151 787 161 772 q 111 801 142 801 l 64 800 l 57 811 l 67 893 l 260 892 q 367 896 299 892 q 458 901 436 900 l 450 808 q 380 787 397 801 q 360 733 363 772 m 261 1135 q 348 1159 310 1135 q 404 1229 386 1183 l 428 1225 l 467 1176 q 394 1052 446 1101 q 261 1003 343 1003 q 127 1053 179 1003 q 56 1176 75 1103 l 94 1225 l 118 1229 q 174 1159 136 1183 q 261 1135 213 1135 z "},"Î":{"ha":507,"x_min":26,"x_max":489,"o":"m 360 733 q 343 185 343 397 q 354 109 343 128 q 397 90 365 90 q 435 92 419 90 q 456 94 451 93 l 463 85 l 450 -4 q 365 -2 426 -4 q 244 0 303 0 q 132 -5 194 0 q 50 -12 69 -10 l 60 78 q 141 114 121 90 q 161 194 161 138 l 161 729 q 151 787 161 772 q 111 801 142 801 l 64 800 l 57 811 l 67 893 l 260 892 q 367 896 299 892 q 458 901 436 900 l 450 808 q 380 787 397 801 q 360 733 363 772 m 26 1044 q 158 1146 90 1092 q 244 1217 225 1200 l 272 1217 q 338 1165 272 1219 q 404 1111 357 1150 q 489 1044 451 1072 l 456 988 l 433 982 q 258 1063 356 1021 q 82 982 197 1038 l 61 988 l 26 1044 z "},"Ï":{"ha":507,"x_min":46,"x_max":469,"o":"m 360 733 q 343 185 343 397 q 354 109 343 128 q 397 90 365 90 q 435 92 419 90 q 456 94 451 93 l 463 85 l 450 -4 q 365 -2 426 -4 q 244 0 303 0 q 132 -5 194 0 q 50 -12 69 -10 l 60 78 q 141 114 121 90 q 161 194 161 138 l 161 729 q 151 787 161 772 q 111 801 142 801 l 64 800 l 57 811 l 67 893 l 260 892 q 367 896 299 892 q 458 901 436 900 l 450 808 q 380 787 397 801 q 360 733 363 772 m 128 981 q 67 1003 89 981 q 46 1065 46 1026 q 72 1132 46 1106 q 139 1158 97 1158 q 200 1135 178 1158 q 222 1075 222 1113 q 197 1007 222 1033 q 128 981 171 981 m 376 981 q 315 1003 336 981 q 293 1065 293 1026 q 319 1132 293 1106 q 386 1158 344 1158 q 447 1135 425 1158 q 469 1075 469 1113 q 444 1007 469 1033 q 376 981 418 981 z "},"İ":{"ha":507,"x_min":50,"x_max":463,"o":"m 360 733 q 343 185 343 397 q 354 109 343 128 q 397 90 365 90 q 435 92 419 90 q 456 94 451 93 l 463 85 l 450 -4 q 365 -2 426 -4 q 244 0 303 0 q 132 -5 194 0 q 50 -12 69 -10 l 60 78 q 141 114 121 90 q 161 194 161 138 l 161 729 q 151 787 161 772 q 111 801 142 801 l 64 800 l 57 811 l 67 893 l 260 892 q 367 896 299 892 q 458 901 436 900 l 450 808 q 380 787 397 801 q 360 733 363 772 m 254 975 q 181 1002 207 975 q 156 1075 156 1029 q 186 1155 156 1124 q 267 1186 217 1186 q 338 1159 313 1186 q 364 1086 364 1132 q 333 1006 364 1038 q 254 975 303 975 z "},"Ì":{"ha":507,"x_min":25,"x_max":463,"o":"m 360 733 q 343 185 343 397 q 354 109 343 128 q 397 90 365 90 q 435 92 419 90 q 456 94 451 93 l 463 85 l 450 -4 q 365 -2 426 -4 q 244 0 303 0 q 132 -5 194 0 q 50 -12 69 -10 l 60 78 q 141 114 121 90 q 161 194 161 138 l 161 729 q 151 787 161 772 q 111 801 142 801 l 64 800 l 57 811 l 67 893 l 260 892 q 367 896 299 892 q 458 901 436 900 l 450 808 q 380 787 397 801 q 360 733 363 772 m 78 1190 q 199 1131 106 1176 q 388 1046 293 1086 l 369 981 l 351 968 q 156 1026 251 1000 q 32 1058 60 1051 l 25 1076 l 61 1183 l 78 1190 z "},"Ī":{"ha":507,"x_min":50,"x_max":471,"o":"m 360 733 q 343 185 343 397 q 354 109 343 128 q 397 90 365 90 q 435 92 419 90 q 456 94 451 93 l 463 85 l 450 -4 q 365 -2 426 -4 q 244 0 303 0 q 132 -5 194 0 q 50 -12 69 -10 l 60 78 q 141 114 121 90 q 161 194 161 138 l 161 729 q 151 787 161 772 q 111 801 142 801 l 64 800 l 57 811 l 67 893 l 260 892 q 367 896 299 892 q 458 901 436 900 l 450 808 q 380 787 397 801 q 360 733 363 772 m 258 983 l 65 982 l 50 999 l 69 1104 l 283 1103 q 384 1106 326 1103 q 460 1111 442 1110 l 471 1092 l 454 985 l 258 983 z "},"Į":{"ha":507,"x_min":50,"x_max":485,"o":"m 485 -243 q 458 -266 479 -249 q 405 -303 436 -283 q 343 -335 374 -324 q 222 -301 267 -335 q 176 -208 176 -267 q 207 -117 176 -165 q 303 0 238 -68 l 244 0 q 132 -5 194 0 q 50 -12 69 -10 l 60 78 q 141 114 121 90 q 161 194 161 138 l 161 729 q 151 787 161 772 q 111 801 142 801 l 64 800 l 57 811 l 67 893 l 260 892 q 367 896 299 892 q 458 901 436 900 l 450 808 q 380 787 397 801 q 360 733 363 772 q 343 185 343 397 q 354 109 343 128 q 397 90 365 90 q 435 92 419 90 q 456 94 451 93 l 463 85 l 450 -4 l 383 -3 q 310 -101 331 -65 q 289 -169 289 -137 q 308 -217 289 -199 q 358 -236 328 -236 q 403 -228 381 -236 q 440 -213 425 -221 q 458 -203 454 -206 l 485 -243 z "},"Ĩ":{"ha":507,"x_min":8,"x_max":508,"o":"m 360 733 q 343 185 343 397 q 354 109 343 128 q 397 90 365 90 q 435 92 419 90 q 456 94 451 93 l 463 85 l 450 -4 q 365 -2 426 -4 q 244 0 303 0 q 132 -5 194 0 q 50 -12 69 -10 l 60 78 q 141 114 121 90 q 161 194 161 138 l 161 729 q 151 787 161 772 q 111 801 142 801 l 64 800 l 57 811 l 67 893 l 260 892 q 367 896 299 892 q 458 901 436 900 l 450 808 q 380 787 397 801 q 360 733 363 772 m 8 1057 l 117 1197 l 140 1203 q 188 1195 157 1203 q 251 1179 219 1188 q 295 1167 258 1178 q 349 1157 332 1157 q 383 1174 363 1157 q 419 1210 403 1192 q 439 1235 435 1229 l 453 1235 l 508 1183 l 508 1169 l 400 1028 l 376 1022 q 265 1047 349 1022 q 222 1059 258 1049 q 168 1069 185 1069 q 133 1052 153 1069 q 99 1016 114 1035 q 79 992 83 997 l 64 992 l 8 1042 l 8 1057 z "},"J":{"ha":463,"x_min":14,"x_max":429,"o":"m 149 729 q 140 788 149 774 q 101 801 131 801 q 67 799 85 801 q 43 797 50 797 l 36 808 l 46 892 l 218 892 q 344 897 278 893 q 429 903 410 901 l 421 808 q 363 787 376 800 q 349 733 350 774 q 338 445 343 638 q 331 140 332 253 q 264 -82 331 3 q 53 -214 197 -167 l 14 -157 l 18 -142 q 99 -64 71 -103 q 138 28 126 -25 q 149 171 149 82 l 149 729 z "},"Ĵ":{"ha":463,"x_min":14,"x_max":467,"o":"m 149 729 q 140 788 149 774 q 101 801 131 801 q 67 799 85 801 q 43 797 50 797 l 36 808 l 46 892 l 218 892 q 344 897 278 893 q 429 903 410 901 l 421 808 q 363 787 376 800 q 349 733 350 774 q 338 445 343 638 q 331 140 332 253 q 264 -82 331 3 q 53 -214 197 -167 l 14 -157 l 18 -142 q 99 -64 71 -103 q 138 28 126 -25 q 149 171 149 82 l 149 729 m 17 1042 q 144 1167 79 1100 q 228 1256 208 1235 l 256 1256 q 340 1167 275 1235 q 467 1042 404 1100 l 426 985 l 404 979 q 271 1075 347 1024 l 242 1094 q 79 979 133 1022 l 57 985 l 17 1042 z "},"K":{"ha":915,"x_min":51,"x_max":910,"o":"m 163 729 q 153 787 163 772 q 113 801 143 801 l 71 800 l 63 811 l 74 894 l 261 892 q 365 896 299 892 q 453 901 431 900 l 444 808 q 376 782 393 797 q 357 728 358 767 l 344 185 q 353 109 343 128 q 397 90 364 90 q 433 92 418 90 q 451 94 447 93 l 458 85 l 446 -4 q 363 -2 424 -4 q 246 0 303 0 q 126 -1 182 0 q 51 -4 71 -3 l 64 85 q 126 102 106 92 q 153 133 146 113 q 161 194 161 154 l 163 729 m 579 692 q 615 760 615 728 q 599 791 615 781 q 543 803 582 801 l 538 813 l 549 899 q 627 894 568 897 q 722 892 686 892 q 818 894 769 892 q 885 897 867 896 l 894 882 l 883 803 q 801 751 840 785 q 701 644 761 717 l 558 483 l 742 203 q 819 113 783 140 q 900 82 854 85 l 910 69 l 897 -4 q 813 -14 875 -7 q 736 -21 751 -21 q 655 7 692 -21 q 581 96 618 35 l 371 439 l 375 469 l 579 692 z "},"Ķ":{"ha":915,"x_min":51,"x_max":910,"o":"m 163 729 q 153 787 163 772 q 113 801 143 801 l 71 800 l 63 811 l 74 894 l 261 892 q 365 896 299 892 q 453 901 431 900 l 444 808 q 376 782 393 797 q 357 728 358 767 l 344 185 q 353 109 343 128 q 397 90 364 90 q 433 92 418 90 q 451 94 447 93 l 458 85 l 446 -4 q 363 -2 424 -4 q 246 0 303 0 q 126 -1 182 0 q 51 -4 71 -3 l 64 85 q 126 102 106 92 q 153 133 146 113 q 161 194 161 154 l 163 729 m 579 692 q 615 760 615 728 q 599 791 615 781 q 543 803 582 801 l 538 813 l 549 899 q 627 894 568 897 q 722 892 686 892 q 818 894 769 892 q 885 897 867 896 l 894 882 l 883 803 q 801 751 840 785 q 701 644 761 717 l 558 483 l 742 203 q 819 113 783 140 q 900 82 854 85 l 910 69 l 897 -4 q 813 -14 875 -7 q 736 -21 751 -21 q 655 7 692 -21 q 581 96 618 35 l 371 439 l 375 469 l 579 692 m 383 -119 q 493 -71 444 -71 q 562 -103 535 -71 q 589 -190 589 -136 q 531 -326 589 -260 q 385 -442 474 -393 l 333 -400 l 333 -376 q 401 -309 375 -349 q 428 -235 428 -269 q 415 -181 428 -207 q 379 -139 401 -156 l 383 -119 z "},"L":{"ha":738,"x_min":58,"x_max":736,"o":"m 296 0 q 149 -6 219 0 q 58 -14 78 -11 l 68 81 q 141 115 121 89 q 161 200 161 140 l 163 729 q 152 788 163 774 q 111 801 142 801 l 69 800 l 63 811 l 72 893 l 261 892 q 376 896 300 892 q 476 901 451 900 l 467 803 q 398 788 419 797 q 369 760 376 778 q 360 701 363 742 q 344 193 344 465 q 351 140 344 157 q 375 116 357 122 q 431 110 393 110 q 532 126 499 110 q 582 185 565 142 q 610 321 599 228 l 726 333 l 736 319 q 720 200 732 293 q 700 4 708 107 l 686 -11 q 524 -5 649 -10 q 296 0 399 0 z "},"Ĺ":{"ha":738,"x_min":58,"x_max":736,"o":"m 296 0 q 149 -6 219 0 q 58 -14 78 -11 l 68 81 q 141 115 121 89 q 161 200 161 140 l 163 729 q 152 788 163 774 q 111 801 142 801 l 69 800 l 63 811 l 72 893 l 261 892 q 376 896 300 892 q 476 901 451 900 l 467 803 q 398 788 419 797 q 369 760 376 778 q 360 701 363 742 q 344 193 344 465 q 351 140 344 157 q 375 116 357 122 q 431 110 393 110 q 532 126 499 110 q 582 185 565 142 q 610 321 599 228 l 726 333 l 736 319 q 720 200 732 293 q 700 4 708 107 l 686 -11 q 524 -5 649 -10 q 296 0 399 0 m 499 1058 q 375 1025 471 1051 q 179 968 279 999 l 161 981 l 143 1046 q 331 1131 236 1086 q 453 1190 425 1176 l 469 1183 l 506 1076 l 499 1058 z "},"Ľ":{"ha":746,"x_min":58,"x_max":736,"o":"m 296 0 q 149 -6 219 0 q 58 -14 78 -11 l 68 81 q 141 115 121 89 q 161 200 161 140 l 163 729 q 152 788 163 774 q 111 801 142 801 l 69 800 l 63 811 l 72 893 l 261 892 q 376 896 300 892 q 476 901 451 900 l 467 803 q 398 788 419 797 q 369 760 376 778 q 360 701 363 742 q 344 193 344 465 q 351 140 344 157 q 375 116 357 122 q 431 110 393 110 q 532 126 499 110 q 582 185 565 142 q 610 321 599 228 l 726 333 l 736 319 q 720 200 732 293 q 700 4 708 107 l 686 -11 q 524 -5 649 -10 q 296 0 399 0 m 735 875 q 716 758 731 849 q 681 574 701 667 l 614 547 l 593 553 l 594 615 q 590 774 594 700 q 583 869 585 849 l 724 889 l 735 875 z "},"Ļ":{"ha":738,"x_min":58,"x_max":736,"o":"m 296 0 q 149 -6 219 0 q 58 -14 78 -11 l 68 81 q 141 115 121 89 q 161 200 161 140 l 163 729 q 152 788 163 774 q 111 801 142 801 l 69 800 l 63 811 l 72 893 l 261 892 q 376 896 300 892 q 476 901 451 900 l 467 803 q 398 788 419 797 q 369 760 376 778 q 360 701 363 742 q 344 193 344 465 q 351 140 344 157 q 375 116 357 122 q 431 110 393 110 q 532 126 499 110 q 582 185 565 142 q 610 321 599 228 l 726 333 l 736 319 q 720 200 732 293 q 700 4 708 107 l 686 -11 q 524 -5 649 -10 q 296 0 399 0 m 306 -119 q 415 -71 367 -71 q 484 -103 457 -71 q 511 -190 511 -136 q 453 -326 511 -260 q 307 -442 396 -393 l 256 -400 l 256 -376 q 324 -309 297 -349 q 350 -235 350 -269 q 337 -181 350 -207 q 301 -139 324 -156 l 306 -119 z "},"Ŀ":{"ha":757,"x_min":58,"x_max":742,"o":"m 296 0 q 149 -6 219 0 q 58 -14 78 -11 l 68 81 q 141 115 121 89 q 161 200 161 140 l 163 729 q 152 788 163 774 q 111 801 142 801 l 69 800 l 63 811 l 72 893 l 261 892 q 376 896 300 892 q 476 901 451 900 l 467 803 q 398 788 419 797 q 369 760 376 778 q 360 701 363 742 q 344 193 344 465 q 351 140 344 157 q 375 116 357 122 q 431 110 393 110 q 532 126 499 110 q 582 185 565 142 q 610 321 599 228 l 726 333 l 736 319 q 720 200 732 293 q 700 4 708 107 l 686 -11 q 524 -5 649 -10 q 296 0 399 0 m 628 528 q 551 556 578 528 q 525 633 525 585 q 556 715 525 683 q 638 747 586 747 q 714 718 686 747 q 742 642 742 689 q 710 560 742 592 q 628 528 679 528 z "},"Ł":{"ha":786,"x_min":54,"x_max":753,"o":"m 753 319 q 737 200 749 293 q 717 4 725 107 l 703 -11 q 540 -5 665 -10 q 313 0 415 0 q 165 -6 236 0 q 75 -14 94 -11 l 85 81 q 158 115 138 89 q 178 200 178 140 l 178 369 l 92 326 l 78 329 l 54 415 l 179 478 l 179 729 q 169 788 179 774 q 128 801 158 801 l 86 800 l 79 811 l 89 893 l 278 892 q 392 896 317 892 q 493 901 468 900 l 483 803 q 415 788 436 797 q 386 760 393 778 q 376 701 379 742 l 368 553 l 553 644 l 564 639 l 589 554 l 365 443 q 361 193 361 317 q 367 140 361 157 q 392 116 374 122 q 447 110 410 110 q 549 126 515 110 q 599 185 582 142 q 626 321 615 228 l 743 333 l 753 319 z "},"M":{"ha":1168,"x_min":38,"x_max":1133,"o":"m 511 -22 q 299 618 393 356 l 286 618 q 270 352 282 547 q 258 136 258 157 q 303 90 258 90 q 330 92 315 90 q 350 93 344 93 l 357 85 l 343 -6 q 274 -2 324 -4 q 178 0 224 0 q 97 -5 143 0 q 38 -11 51 -10 l 46 82 q 108 109 89 88 q 131 182 126 131 q 135 215 131 193 q 186 738 186 713 q 166 788 186 775 q 82 807 146 800 l 74 815 l 86 899 q 160 894 107 897 q 264 892 214 892 q 356 894 311 892 q 415 897 400 896 q 519 538 468 704 q 586 326 571 372 l 599 326 q 668 538 614 372 q 779 893 722 703 q 831 892 811 893 l 907 890 l 951 892 q 1037 896 996 893 q 1092 900 1078 899 l 1097 894 l 1089 808 q 1008 789 1029 804 q 988 735 988 774 q 999 517 988 690 q 1021 218 1010 344 q 1042 117 1028 143 q 1088 92 1056 92 q 1113 93 1101 92 q 1128 94 1124 94 l 1133 86 l 1121 -4 q 1066 -1 1107 -3 q 979 0 1025 0 q 865 -4 946 0 q 776 -11 783 -8 l 786 83 q 845 103 826 88 q 864 151 864 119 q 852 369 864 185 q 836 618 840 553 l 824 618 q 611 -10 708 296 l 511 -22 z "},"N":{"ha":1013,"x_min":47,"x_max":988,"o":"m 733 742 q 722 788 732 774 q 688 801 711 801 l 639 800 l 635 811 l 644 897 q 717 894 664 896 q 824 892 769 892 q 919 894 867 892 q 988 899 971 897 l 981 806 q 915 779 935 799 q 893 718 894 760 l 874 -19 l 728 -37 q 542 253 632 115 q 394 474 451 390 q 322 579 338 557 l 308 579 l 307 151 q 319 103 308 117 q 356 89 329 89 q 390 91 371 89 q 415 93 408 93 l 422 83 l 408 -6 q 335 -2 389 -4 q 229 0 282 0 q 128 -5 182 0 q 60 -11 75 -10 l 69 82 q 131 108 111 88 q 153 169 151 128 l 171 718 q 148 780 171 763 q 57 804 125 797 l 47 818 l 57 899 q 124 894 72 897 q 218 892 175 892 q 297 894 256 892 q 351 897 339 896 q 593 518 464 713 q 722 326 722 324 l 736 326 l 733 742 z "},"Ń":{"ha":1013,"x_min":47,"x_max":988,"o":"m 733 742 q 722 788 732 774 q 688 801 711 801 l 639 800 l 635 811 l 644 897 q 717 894 664 896 q 824 892 769 892 q 919 894 867 892 q 988 899 971 897 l 981 806 q 915 779 935 799 q 893 718 894 760 l 874 -19 l 728 -37 q 542 253 632 115 q 394 474 451 390 q 322 579 338 557 l 308 579 l 307 151 q 319 103 308 117 q 356 89 329 89 q 390 91 371 89 q 415 93 408 93 l 422 83 l 408 -6 q 335 -2 389 -4 q 229 0 282 0 q 128 -5 182 0 q 60 -11 75 -10 l 69 82 q 131 108 111 88 q 153 169 151 128 l 171 718 q 148 780 171 763 q 57 804 125 797 l 47 818 l 57 899 q 124 894 72 897 q 218 892 175 892 q 297 894 256 892 q 351 897 339 896 q 593 518 464 713 q 722 326 722 324 l 736 326 l 733 742 m 760 1058 q 636 1025 732 1051 q 440 968 540 999 l 422 981 l 404 1046 q 592 1131 497 1086 q 714 1190 686 1176 l 731 1183 l 767 1076 l 760 1058 z "},"Ň":{"ha":1013,"x_min":47,"x_max":988,"o":"m 733 742 q 722 788 732 774 q 688 801 711 801 l 639 800 l 635 811 l 644 897 q 717 894 664 896 q 824 892 769 892 q 919 894 867 892 q 988 899 971 897 l 981 806 q 915 779 935 799 q 893 718 894 760 l 874 -19 l 728 -37 q 542 253 632 115 q 394 474 451 390 q 322 579 338 557 l 308 579 l 307 151 q 319 103 308 117 q 356 89 329 89 q 390 91 371 89 q 415 93 408 93 l 422 83 l 408 -6 q 335 -2 389 -4 q 229 0 282 0 q 128 -5 182 0 q 60 -11 75 -10 l 69 82 q 131 108 111 88 q 153 169 151 128 l 171 718 q 148 780 171 763 q 57 804 125 797 l 47 818 l 57 899 q 124 894 72 897 q 218 892 175 892 q 297 894 256 892 q 351 897 339 896 q 593 518 464 713 q 722 326 722 324 l 736 326 l 733 742 m 754 1139 q 624 1038 690 1092 q 538 967 557 983 l 508 967 q 422 1038 489 983 q 292 1139 356 1092 l 325 1197 l 347 1201 q 524 1121 435 1157 q 699 1201 574 1142 l 721 1197 l 754 1139 z "},"Ņ":{"ha":1013,"x_min":47,"x_max":988,"o":"m 733 742 q 722 788 732 774 q 688 801 711 801 l 639 800 l 635 811 l 644 897 q 717 894 664 896 q 824 892 769 892 q 919 894 867 892 q 988 899 971 897 l 981 806 q 915 779 935 799 q 893 718 894 760 l 874 -19 l 728 -37 q 542 253 632 115 q 394 474 451 390 q 322 579 338 557 l 308 579 l 307 151 q 319 103 308 117 q 356 89 329 89 q 390 91 371 89 q 415 93 408 93 l 422 83 l 408 -6 q 335 -2 389 -4 q 229 0 282 0 q 128 -5 182 0 q 60 -11 75 -10 l 69 82 q 131 108 111 88 q 153 169 151 128 l 171 718 q 148 780 171 763 q 57 804 125 797 l 47 818 l 57 899 q 124 894 72 897 q 218 892 175 892 q 297 894 256 892 q 351 897 339 896 q 593 518 464 713 q 722 326 722 324 l 736 326 l 733 742 m 417 -119 q 526 -71 478 -71 q 595 -103 568 -71 q 622 -190 622 -136 q 565 -326 622 -260 q 418 -442 507 -393 l 367 -400 l 367 -376 q 435 -309 408 -349 q 461 -235 461 -269 q 448 -181 461 -207 q 413 -139 435 -156 l 417 -119 z "},"Ŋ":{"ha":1010,"x_min":50,"x_max":986,"o":"m 215 892 q 294 894 254 892 q 347 897 333 896 q 505 647 421 776 q 649 429 589 518 q 726 317 710 340 l 739 317 l 736 744 q 725 790 736 776 q 690 804 714 804 l 643 803 l 638 811 l 647 897 q 724 894 669 896 q 825 892 779 892 q 917 895 864 892 q 986 900 969 899 l 979 808 q 912 783 932 803 q 890 721 892 763 l 876 119 q 808 -99 872 -18 q 603 -226 744 -181 l 565 -171 l 568 -156 q 660 -83 628 -121 q 706 6 692 -46 q 463 378 575 211 q 319 590 351 546 l 307 590 l 304 150 q 315 101 304 115 q 353 88 325 88 l 413 90 l 419 82 l 407 -6 q 324 -2 388 -4 q 206 0 260 0 q 124 -5 171 0 q 63 -11 76 -10 l 72 79 q 137 108 118 85 q 157 185 156 131 l 174 721 q 151 781 174 764 q 60 807 129 799 l 50 821 l 60 899 q 130 894 76 897 q 215 892 183 892 z "},"Ñ":{"ha":1013,"x_min":47,"x_max":988,"o":"m 733 742 q 722 788 732 774 q 688 801 711 801 l 639 800 l 635 811 l 644 897 q 717 894 664 896 q 824 892 769 892 q 919 894 867 892 q 988 899 971 897 l 981 806 q 915 779 935 799 q 893 718 894 760 l 874 -19 l 728 -37 q 542 253 632 115 q 394 474 451 390 q 322 579 338 557 l 308 579 l 307 151 q 319 103 308 117 q 356 89 329 89 q 390 91 371 89 q 415 93 408 93 l 422 83 l 408 -6 q 335 -2 389 -4 q 229 0 282 0 q 128 -5 182 0 q 60 -11 75 -10 l 69 82 q 131 108 111 88 q 153 169 151 128 l 171 718 q 148 780 171 763 q 57 804 125 797 l 47 818 l 57 899 q 124 894 72 897 q 218 892 175 892 q 297 894 256 892 q 351 897 339 896 q 593 518 464 713 q 722 326 722 324 l 736 326 l 733 742 m 276 1021 l 385 1154 l 408 1160 q 519 1135 436 1160 q 563 1123 526 1133 q 617 1113 600 1113 q 651 1128 631 1113 q 687 1162 671 1144 q 707 1185 703 1179 l 721 1185 l 776 1133 l 776 1119 l 668 985 l 644 979 q 532 1004 618 979 q 438 1026 454 1026 q 402 1010 422 1026 q 367 977 382 994 q 347 954 351 960 l 332 954 l 276 1006 l 276 1021 z "},"O":{"ha":936,"x_min":39,"x_max":897,"o":"m 438 -17 q 225 37 315 -17 q 87 189 135 90 q 39 422 39 288 q 95 678 39 568 q 255 848 151 788 q 494 908 358 908 q 790 793 683 908 q 897 474 897 678 q 840 217 897 328 q 678 44 783 106 q 438 -17 574 -17 m 474 104 q 626 182 571 104 q 681 400 681 260 q 622 678 681 583 q 457 774 564 774 q 308 697 361 774 q 254 478 254 619 q 311 200 254 296 q 474 104 368 104 z "},"Ó":{"ha":936,"x_min":39,"x_max":897,"o":"m 438 -17 q 225 37 315 -17 q 87 189 135 90 q 39 422 39 288 q 95 678 39 568 q 255 848 151 788 q 494 908 358 908 q 790 793 683 908 q 897 474 897 678 q 840 217 897 328 q 678 44 783 106 q 438 -17 574 -17 m 474 104 q 626 182 571 104 q 681 400 681 260 q 622 678 681 583 q 457 774 564 774 q 308 697 361 774 q 254 478 254 619 q 311 200 254 296 q 474 104 368 104 m 699 1058 q 575 1025 671 1051 q 379 968 479 999 l 361 981 l 343 1046 q 531 1131 436 1086 q 653 1190 625 1176 l 669 1183 l 706 1076 l 699 1058 z "},"Ŏ":{"ha":936,"x_min":39,"x_max":897,"o":"m 438 -17 q 225 37 315 -17 q 87 189 135 90 q 39 422 39 288 q 95 678 39 568 q 255 848 151 788 q 494 908 358 908 q 790 793 683 908 q 897 474 897 678 q 840 217 897 328 q 678 44 783 106 q 438 -17 574 -17 m 474 104 q 626 182 571 104 q 681 400 681 260 q 622 678 681 583 q 457 774 564 774 q 308 697 361 774 q 254 478 254 619 q 311 200 254 296 q 474 104 368 104 m 451 1135 q 538 1159 500 1135 q 594 1229 576 1183 l 618 1225 l 657 1176 q 585 1052 636 1101 q 451 1003 533 1003 q 317 1053 369 1003 q 246 1176 265 1103 l 285 1225 l 308 1229 q 365 1159 326 1183 q 451 1135 403 1135 z "},"Ô":{"ha":936,"x_min":39,"x_max":897,"o":"m 438 -17 q 225 37 315 -17 q 87 189 135 90 q 39 422 39 288 q 95 678 39 568 q 255 848 151 788 q 494 908 358 908 q 790 793 683 908 q 897 474 897 678 q 840 217 897 328 q 678 44 783 106 q 438 -17 574 -17 m 474 104 q 626 182 571 104 q 681 400 681 260 q 622 678 681 583 q 457 774 564 774 q 308 697 361 774 q 254 478 254 619 q 311 200 254 296 q 474 104 368 104 m 232 1044 q 363 1146 296 1092 q 450 1217 431 1200 l 478 1217 q 543 1165 478 1219 q 610 1111 563 1150 q 694 1044 657 1072 l 661 988 l 639 982 q 464 1063 561 1021 q 288 982 403 1038 l 267 988 l 232 1044 z "},"Ö":{"ha":936,"x_min":39,"x_max":897,"o":"m 438 -17 q 225 37 315 -17 q 87 189 135 90 q 39 422 39 288 q 95 678 39 568 q 255 848 151 788 q 494 908 358 908 q 790 793 683 908 q 897 474 897 678 q 840 217 897 328 q 678 44 783 106 q 438 -17 574 -17 m 474 104 q 626 182 571 104 q 681 400 681 260 q 622 678 681 583 q 457 774 564 774 q 308 697 361 774 q 254 478 254 619 q 311 200 254 296 q 474 104 368 104 m 333 981 q 273 1003 294 981 q 251 1065 251 1026 q 277 1132 251 1106 q 344 1158 303 1158 q 406 1135 383 1158 q 428 1075 428 1113 q 402 1007 428 1033 q 333 981 376 981 m 582 981 q 520 1003 542 981 q 499 1065 499 1026 q 524 1132 499 1106 q 592 1158 550 1158 q 653 1135 631 1158 q 675 1075 675 1113 q 649 1007 675 1033 q 582 981 624 981 z "},"Ò":{"ha":936,"x_min":39,"x_max":897,"o":"m 438 -17 q 225 37 315 -17 q 87 189 135 90 q 39 422 39 288 q 95 678 39 568 q 255 848 151 788 q 494 908 358 908 q 790 793 683 908 q 897 474 897 678 q 840 217 897 328 q 678 44 783 106 q 438 -17 574 -17 m 474 104 q 626 182 571 104 q 681 400 681 260 q 622 678 681 583 q 457 774 564 774 q 308 697 361 774 q 254 478 254 619 q 311 200 254 296 q 474 104 368 104 m 283 1190 q 405 1131 311 1176 q 593 1046 499 1086 l 575 981 l 557 968 q 361 1026 457 1000 q 238 1058 265 1051 l 231 1076 l 267 1183 l 283 1190 z "},"Ő":{"ha":936,"x_min":39,"x_max":897,"o":"m 438 -17 q 225 37 315 -17 q 87 189 135 90 q 39 422 39 288 q 95 678 39 568 q 255 848 151 788 q 494 908 358 908 q 790 793 683 908 q 897 474 897 678 q 840 217 897 328 q 678 44 783 106 q 438 -17 574 -17 m 474 104 q 626 182 571 104 q 681 400 681 260 q 622 678 681 583 q 457 774 564 774 q 308 697 361 774 q 254 478 254 619 q 311 200 254 296 q 474 104 368 104 m 557 1086 q 466 1035 536 1075 q 322 950 396 996 l 304 957 l 272 1004 q 406 1122 349 1071 q 482 1190 464 1174 l 499 1189 l 558 1103 l 557 1086 m 790 1081 q 699 1030 769 1069 q 556 944 629 990 l 538 950 l 506 997 q 640 1116 582 1064 q 715 1185 697 1168 l 732 1181 l 792 1097 l 790 1081 z "},"Ō":{"ha":936,"x_min":39,"x_max":897,"o":"m 438 -17 q 225 37 315 -17 q 87 189 135 90 q 39 422 39 288 q 95 678 39 568 q 255 848 151 788 q 494 908 358 908 q 790 793 683 908 q 897 474 897 678 q 840 217 897 328 q 678 44 783 106 q 438 -17 574 -17 m 474 104 q 626 182 571 104 q 681 400 681 260 q 622 678 681 583 q 457 774 564 774 q 308 697 361 774 q 254 478 254 619 q 311 200 254 296 q 474 104 368 104 m 464 983 l 271 982 l 256 999 l 275 1104 l 489 1103 q 590 1106 532 1103 q 665 1111 647 1110 l 676 1092 l 660 985 l 464 983 z "},"Ø":{"ha":936,"x_min":39,"x_max":897,"o":"m 753 828 q 860 682 824 772 q 897 474 897 592 q 840 217 897 328 q 678 44 783 106 q 438 -17 574 -17 q 272 14 343 -17 l 175 -149 l 92 -108 l 88 -94 l 183 65 q 76 213 113 122 q 39 422 39 304 q 95 678 39 568 q 255 848 151 788 q 494 908 358 908 q 661 879 588 908 l 742 1013 l 828 972 l 831 954 l 753 828 m 474 104 q 626 182 571 104 q 681 400 681 260 q 622 678 681 583 q 457 774 564 774 q 308 697 361 774 q 254 478 254 619 q 311 200 254 296 q 474 104 368 104 z "},"Ǿ":{"ha":936,"x_min":39,"x_max":897,"o":"m 753 828 q 860 682 824 772 q 897 474 897 592 q 840 217 897 328 q 678 44 783 106 q 438 -17 574 -17 q 272 14 343 -17 l 175 -149 l 92 -108 l 88 -94 l 183 65 q 76 213 113 122 q 39 422 39 304 q 95 678 39 568 q 255 848 151 788 q 494 908 358 908 q 661 879 588 908 l 742 1013 l 828 972 l 831 954 l 753 828 m 474 104 q 626 182 571 104 q 681 400 681 260 q 622 678 681 583 q 457 774 564 774 q 308 697 361 774 q 254 478 254 619 q 311 200 254 296 q 474 104 368 104 m 697 1058 q 574 1025 669 1051 q 378 968 478 999 l 360 981 l 342 1046 q 529 1131 435 1086 q 651 1190 624 1176 l 668 1183 l 704 1076 l 697 1058 z "},"Õ":{"ha":936,"x_min":39,"x_max":897,"o":"m 438 -17 q 225 37 315 -17 q 87 189 135 90 q 39 422 39 288 q 95 678 39 568 q 255 848 151 788 q 494 908 358 908 q 790 793 683 908 q 897 474 897 678 q 840 217 897 328 q 678 44 783 106 q 438 -17 574 -17 m 474 104 q 626 182 571 104 q 681 400 681 260 q 622 678 681 583 q 457 774 564 774 q 308 697 361 774 q 254 478 254 619 q 311 200 254 296 q 474 104 368 104 m 215 1021 l 324 1154 l 347 1160 q 458 1135 375 1160 q 502 1123 465 1133 q 556 1113 539 1113 q 590 1128 569 1113 q 626 1162 610 1144 q 646 1185 642 1179 l 660 1185 l 715 1133 l 715 1119 l 607 985 l 583 979 q 471 1004 557 979 q 376 1026 393 1026 q 341 1010 361 1026 q 306 977 321 994 q 286 954 290 960 l 271 954 l 215 1006 l 215 1021 z "},"Œ":{"ha":1306,"x_min":40,"x_max":1253,"o":"m 819 193 q 825 138 819 154 q 849 115 831 121 q 908 110 867 110 q 1039 121 999 110 q 1097 163 1079 132 q 1125 268 1115 194 l 1242 278 l 1253 264 q 1235 165 1249 242 q 1214 6 1222 89 l 1200 -10 q 1014 -2 1156 -7 q 764 3 872 3 q 574 -7 710 3 q 438 -15 474 -15 q 227 38 317 -15 q 89 189 138 90 q 40 422 40 288 q 95 676 40 568 q 251 843 150 785 q 488 901 353 901 q 622 893 528 901 q 799 883 749 883 q 1042 890 928 883 q 1231 908 1156 897 l 1242 893 q 1226 797 1238 872 q 1210 640 1215 721 l 1083 632 q 1085 654 1083 638 q 1086 688 1086 671 q 1074 745 1086 728 q 1027 769 1063 763 q 910 775 992 775 q 861 772 875 775 q 842 760 847 769 q 836 729 838 751 l 826 514 l 957 513 q 1043 517 986 513 q 1118 524 1100 522 l 1129 511 l 1110 392 q 1039 394 1092 393 q 928 396 986 396 l 822 388 l 819 193 m 468 101 q 602 143 561 101 q 644 281 643 185 l 646 631 q 605 747 646 715 q 460 779 564 779 q 307 701 361 779 q 253 479 253 624 q 308 198 253 294 q 468 101 364 101 z "},"P":{"ha":801,"x_min":54,"x_max":794,"o":"m 249 892 q 368 894 303 892 q 460 899 433 897 q 717 823 639 899 q 794 631 794 747 q 748 476 794 549 q 625 359 701 403 q 463 315 549 315 l 344 315 l 343 213 q 348 135 343 160 q 366 100 353 110 q 408 90 379 90 q 446 92 428 90 q 469 94 464 93 l 474 86 l 461 -4 q 389 -2 442 -4 q 286 0 336 0 q 160 -4 240 0 q 54 -11 81 -8 l 65 83 q 142 117 122 93 q 161 199 161 140 l 161 726 q 152 786 161 771 q 117 801 143 801 q 88 800 101 801 q 69 799 74 799 l 61 810 l 74 893 l 249 892 m 471 422 q 597 611 597 449 q 549 739 597 699 q 393 779 500 779 q 369 776 374 779 q 363 754 364 772 q 349 439 353 575 l 471 422 z "},"Þ":{"ha":796,"x_min":50,"x_max":779,"o":"m 360 744 q 358 726 360 735 q 358 711 357 718 l 464 711 q 779 467 779 711 q 735 331 779 392 q 613 235 690 269 q 442 200 536 200 l 343 200 l 343 158 q 354 103 343 117 q 397 90 365 90 q 440 92 422 90 q 463 94 457 93 l 469 85 l 457 -4 q 369 -2 433 -4 q 244 0 304 0 q 133 -5 196 0 q 50 -12 69 -10 l 60 78 q 141 113 121 90 q 161 194 161 136 l 161 729 q 151 787 161 772 q 111 801 142 801 l 64 800 l 57 811 l 67 893 l 260 892 q 367 896 299 892 q 458 901 436 900 l 450 808 q 379 788 396 800 q 360 744 363 776 m 346 322 q 408 308 374 314 q 463 303 442 303 q 582 453 582 322 q 535 564 582 529 q 386 599 489 599 q 360 594 367 599 q 353 579 354 590 l 346 322 z "},"Q":{"ha":943,"x_min":39,"x_max":1133,"o":"m 438 -17 q 225 37 315 -17 q 87 189 135 90 q 39 422 39 288 q 95 678 39 568 q 255 848 151 788 q 494 908 358 908 q 790 793 683 908 q 897 474 897 678 q 821 194 897 315 q 617 21 744 72 l 617 8 q 822 -109 731 -71 q 989 -147 913 -147 q 1063 -142 1029 -147 q 1107 -133 1097 -136 l 1118 -143 l 1133 -201 q 1085 -237 1122 -210 q 1006 -291 1047 -265 q 947 -317 964 -317 q 825 -294 882 -317 q 683 -210 768 -272 q 438 -17 597 -149 m 474 104 q 626 182 571 104 q 681 400 681 260 q 622 678 681 583 q 457 774 564 774 q 308 697 361 774 q 254 478 254 619 q 311 200 254 296 q 474 104 368 104 z "},"R":{"ha":893,"x_min":50,"x_max":889,"o":"m 343 196 q 350 126 343 147 q 376 98 357 106 q 443 89 396 90 l 447 81 l 435 -6 q 345 -3 410 -4 q 228 -1 281 -1 q 122 -4 176 -1 q 50 -8 67 -7 l 63 85 q 141 116 121 93 q 161 199 161 139 l 161 733 q 152 787 161 772 q 118 801 143 801 q 88 800 103 801 q 69 799 74 799 l 61 810 l 74 894 q 146 893 93 894 q 249 892 199 892 q 371 894 306 892 q 461 899 436 897 q 706 837 621 899 q 790 660 790 775 q 742 510 790 578 q 604 394 694 442 l 725 200 q 799 109 763 138 q 879 81 836 81 l 889 67 l 879 -7 l 714 -22 q 561 107 622 -22 l 443 349 l 346 349 l 343 196 m 475 460 q 593 633 593 508 q 542 747 593 710 q 386 783 492 783 q 368 778 372 783 q 363 753 364 772 q 350 474 351 581 l 475 460 z "},"Ŕ":{"ha":893,"x_min":50,"x_max":889,"o":"m 343 196 q 350 126 343 147 q 376 98 357 106 q 443 89 396 90 l 447 81 l 435 -6 q 345 -3 410 -4 q 228 -1 281 -1 q 122 -4 176 -1 q 50 -8 67 -7 l 63 85 q 141 116 121 93 q 161 199 161 139 l 161 733 q 152 787 161 772 q 118 801 143 801 q 88 800 103 801 q 69 799 74 799 l 61 810 l 74 894 q 146 893 93 894 q 249 892 199 892 q 371 894 306 892 q 461 899 436 897 q 706 837 621 899 q 790 660 790 775 q 742 510 790 578 q 604 394 694 442 l 725 200 q 799 109 763 138 q 879 81 836 81 l 889 67 l 879 -7 l 714 -22 q 561 107 622 -22 l 443 349 l 346 349 l 343 196 m 475 460 q 593 633 593 508 q 542 747 593 710 q 386 783 492 783 q 368 778 372 783 q 363 753 364 772 q 350 474 351 581 l 475 460 m 683 1058 q 560 1025 656 1051 q 364 968 464 999 l 346 981 l 328 1046 q 515 1131 421 1086 q 638 1190 610 1176 l 654 1183 l 690 1076 l 683 1058 z "},"Ř":{"ha":893,"x_min":50,"x_max":889,"o":"m 343 196 q 350 126 343 147 q 376 98 357 106 q 443 89 396 90 l 447 81 l 435 -6 q 345 -3 410 -4 q 228 -1 281 -1 q 122 -4 176 -1 q 50 -8 67 -7 l 63 85 q 141 116 121 93 q 161 199 161 139 l 161 733 q 152 787 161 772 q 118 801 143 801 q 88 800 103 801 q 69 799 74 799 l 61 810 l 74 894 q 146 893 93 894 q 249 892 199 892 q 371 894 306 892 q 461 899 436 897 q 706 837 621 899 q 790 660 790 775 q 742 510 790 578 q 604 394 694 442 l 725 200 q 799 109 763 138 q 879 81 836 81 l 889 67 l 879 -7 l 714 -22 q 561 107 622 -22 l 443 349 l 346 349 l 343 196 m 475 460 q 593 633 593 508 q 542 747 593 710 q 386 783 492 783 q 368 778 372 783 q 363 753 364 772 q 350 474 351 581 l 475 460 m 679 1139 q 549 1038 615 1092 q 463 967 482 983 l 433 967 q 347 1038 414 983 q 217 1139 281 1092 l 250 1197 l 272 1201 q 449 1121 360 1157 q 624 1201 499 1142 l 646 1197 l 679 1139 z "},"Ŗ":{"ha":893,"x_min":50,"x_max":889,"o":"m 343 196 q 350 126 343 147 q 376 98 357 106 q 443 89 396 90 l 447 81 l 435 -6 q 345 -3 410 -4 q 228 -1 281 -1 q 122 -4 176 -1 q 50 -8 67 -7 l 63 85 q 141 116 121 93 q 161 199 161 139 l 161 733 q 152 787 161 772 q 118 801 143 801 q 88 800 103 801 q 69 799 74 799 l 61 810 l 74 894 q 146 893 93 894 q 249 892 199 892 q 371 894 306 892 q 461 899 436 897 q 706 837 621 899 q 790 660 790 775 q 742 510 790 578 q 604 394 694 442 l 725 200 q 799 109 763 138 q 879 81 836 81 l 889 67 l 879 -7 l 714 -22 q 561 107 622 -22 l 443 349 l 346 349 l 343 196 m 475 460 q 593 633 593 508 q 542 747 593 710 q 386 783 492 783 q 368 778 372 783 q 363 753 364 772 q 350 474 351 581 l 475 460 m 361 -119 q 471 -71 422 -71 q 540 -103 513 -71 q 567 -190 567 -136 q 509 -326 567 -260 q 363 -442 451 -393 l 311 -400 l 311 -376 q 379 -309 353 -349 q 406 -235 406 -269 q 392 -181 406 -207 q 357 -139 379 -156 l 361 -119 z "},"S":{"ha":750,"x_min":50,"x_max":693,"o":"m 307 -17 q 188 -5 242 -17 q 97 21 133 7 q 61 36 61 35 l 50 56 q 56 98 51 65 q 67 186 61 131 q 72 292 72 242 l 189 301 q 203 182 189 224 q 249 124 217 140 q 342 107 282 107 q 447 136 407 107 q 486 214 486 165 q 464 271 486 246 q 410 315 442 296 q 317 364 378 333 l 281 381 q 119 486 178 431 q 61 631 61 542 q 108 774 61 711 q 240 873 156 838 q 433 908 325 908 q 547 900 494 908 q 631 883 600 892 q 671 871 663 874 l 681 853 q 665 763 676 833 q 647 614 653 693 l 542 606 l 529 615 q 530 633 529 619 q 531 664 531 646 q 500 751 531 725 q 397 776 469 776 q 301 749 339 776 q 264 678 264 721 q 308 598 264 631 q 446 522 353 565 q 574 454 524 485 q 658 376 624 424 q 693 264 693 328 q 645 117 693 181 q 510 18 597 53 q 307 -17 422 -17 z "},"Ś":{"ha":750,"x_min":50,"x_max":693,"o":"m 307 -17 q 188 -5 242 -17 q 97 21 133 7 q 61 36 61 35 l 50 56 q 56 98 51 65 q 67 186 61 131 q 72 292 72 242 l 189 301 q 203 182 189 224 q 249 124 217 140 q 342 107 282 107 q 447 136 407 107 q 486 214 486 165 q 464 271 486 246 q 410 315 442 296 q 317 364 378 333 l 281 381 q 119 486 178 431 q 61 631 61 542 q 108 774 61 711 q 240 873 156 838 q 433 908 325 908 q 547 900 494 908 q 631 883 600 892 q 671 871 663 874 l 681 853 q 665 763 676 833 q 647 614 653 693 l 542 606 l 529 615 q 530 633 529 619 q 531 664 531 646 q 500 751 531 725 q 397 776 469 776 q 301 749 339 776 q 264 678 264 721 q 308 598 264 631 q 446 522 353 565 q 574 454 524 485 q 658 376 624 424 q 693 264 693 328 q 645 117 693 181 q 510 18 597 53 q 307 -17 422 -17 m 615 1058 q 492 1025 588 1051 q 296 968 396 999 l 278 981 l 260 1046 q 447 1131 353 1086 q 569 1190 542 1176 l 586 1183 l 622 1076 l 615 1058 z "},"Š":{"ha":750,"x_min":50,"x_max":693,"o":"m 307 -17 q 188 -5 242 -17 q 97 21 133 7 q 61 36 61 35 l 50 56 q 56 98 51 65 q 67 186 61 131 q 72 292 72 242 l 189 301 q 203 182 189 224 q 249 124 217 140 q 342 107 282 107 q 447 136 407 107 q 486 214 486 165 q 464 271 486 246 q 410 315 442 296 q 317 364 378 333 l 281 381 q 119 486 178 431 q 61 631 61 542 q 108 774 61 711 q 240 873 156 838 q 433 908 325 908 q 547 900 494 908 q 631 883 600 892 q 671 871 663 874 l 681 853 q 665 763 676 833 q 647 614 653 693 l 542 606 l 529 615 q 530 633 529 619 q 531 664 531 646 q 500 751 531 725 q 397 776 469 776 q 301 749 339 776 q 264 678 264 721 q 308 598 264 631 q 446 522 353 565 q 574 454 524 485 q 658 376 624 424 q 693 264 693 328 q 645 117 693 181 q 510 18 597 53 q 307 -17 422 -17 m 611 1139 q 481 1038 547 1092 q 394 967 414 983 l 365 967 q 279 1038 346 983 q 149 1139 213 1092 l 182 1197 l 204 1201 q 381 1121 292 1157 q 556 1201 431 1142 l 578 1197 l 611 1139 z "},"Ş":{"ha":750,"x_min":50,"x_max":693,"o":"m 693 264 q 609 77 693 151 q 382 -12 525 3 l 368 -61 q 465 -128 429 -97 q 501 -196 501 -158 q 475 -262 501 -232 q 406 -311 449 -293 q 317 -329 364 -329 q 242 -312 276 -329 q 208 -269 208 -296 q 260 -182 208 -243 l 272 -182 q 293 -240 274 -219 q 344 -260 313 -260 q 384 -248 368 -260 q 400 -218 400 -236 q 367 -172 400 -197 q 281 -119 333 -147 l 310 -17 l 307 -17 q 188 -5 242 -17 q 97 21 133 7 q 61 36 61 35 l 50 56 q 56 98 51 65 q 67 186 61 131 q 72 292 72 242 l 189 301 q 203 182 189 224 q 249 124 217 140 q 342 107 282 107 q 447 136 407 107 q 486 214 486 165 q 464 271 486 246 q 410 315 442 296 q 317 364 378 333 l 281 381 q 119 486 178 431 q 61 631 61 542 q 108 774 61 711 q 240 873 156 838 q 433 908 325 908 q 547 900 494 908 q 631 883 600 892 q 671 871 663 874 l 681 853 q 665 763 676 833 q 647 614 653 693 l 542 606 l 529 615 q 530 633 529 619 q 531 664 531 646 q 500 751 531 725 q 397 776 469 776 q 301 749 339 776 q 264 678 264 721 q 308 598 264 631 q 446 522 353 565 q 574 454 524 485 q 658 376 624 424 q 693 264 693 328 z "},"Ŝ":{"ha":750,"x_min":50,"x_max":693,"o":"m 182 1042 q 309 1167 244 1100 q 393 1256 374 1235 l 421 1256 q 505 1167 440 1235 q 632 1042 569 1100 l 592 985 l 569 979 q 436 1075 513 1024 l 407 1094 q 244 979 299 1022 l 222 985 l 182 1042 m 307 -17 q 188 -5 242 -17 q 97 21 133 7 q 61 36 61 35 l 50 56 q 56 98 51 65 q 67 186 61 131 q 72 292 72 242 l 189 301 q 203 182 189 224 q 249 124 217 140 q 342 107 282 107 q 447 136 407 107 q 486 214 486 165 q 464 271 486 246 q 410 315 442 296 q 317 364 378 333 l 281 381 q 119 486 178 431 q 61 631 61 542 q 108 774 61 711 q 240 873 156 838 q 433 908 325 908 q 547 900 494 908 q 631 883 600 892 q 671 871 663 874 l 681 853 q 665 763 676 833 q 647 614 653 693 l 542 606 l 529 615 q 530 633 529 619 q 531 664 531 646 q 500 751 531 725 q 397 776 469 776 q 301 749 339 776 q 264 678 264 721 q 308 598 264 631 q 446 522 353 565 q 574 454 524 485 q 658 376 624 424 q 693 264 693 328 q 645 117 693 181 q 510 18 597 53 q 307 -17 422 -17 z "},"Ș":{"ha":750,"x_min":50,"x_max":693,"o":"m 307 -17 q 188 -5 242 -17 q 97 21 133 7 q 61 36 61 35 l 50 56 q 56 98 51 65 q 67 186 61 131 q 72 292 72 242 l 189 301 q 203 182 189 224 q 249 124 217 140 q 342 107 282 107 q 447 136 407 107 q 486 214 486 165 q 464 271 486 246 q 410 315 442 296 q 317 364 378 333 l 281 381 q 119 486 178 431 q 61 631 61 542 q 108 774 61 711 q 240 873 156 838 q 433 908 325 908 q 547 900 494 908 q 631 883 600 892 q 671 871 663 874 l 681 853 q 665 763 676 833 q 647 614 653 693 l 542 606 l 529 615 q 530 633 529 619 q 531 664 531 646 q 500 751 531 725 q 397 776 469 776 q 301 749 339 776 q 264 678 264 721 q 308 598 264 631 q 446 522 353 565 q 574 454 524 485 q 658 376 624 424 q 693 264 693 328 q 645 117 693 181 q 510 18 597 53 q 307 -17 422 -17 m 249 -119 q 358 -71 310 -71 q 427 -103 400 -71 q 454 -190 454 -136 q 397 -326 454 -260 q 250 -442 339 -393 l 199 -400 l 199 -376 q 267 -309 240 -349 q 293 -235 293 -269 q 280 -181 293 -207 q 244 -139 267 -156 l 249 -119 z "},"T":{"ha":790,"x_min":7,"x_max":782,"o":"m 300 782 q 190 767 221 779 q 146 722 158 756 q 124 601 133 689 l 7 593 q 16 714 10 621 q 24 892 22 807 l 39 907 l 178 892 l 611 892 l 753 907 l 768 892 q 775 716 769 804 q 782 601 781 628 l 665 593 q 642 722 654 688 q 601 767 631 756 q 497 782 572 779 q 488 510 492 685 q 483 188 483 336 q 501 115 483 136 q 558 93 518 93 q 607 94 588 93 q 632 97 626 96 l 638 90 l 625 -6 q 524 -2 597 -4 q 383 0 451 0 q 256 -3 335 0 q 151 -8 176 -7 l 163 83 q 253 101 226 89 q 290 140 281 113 q 300 229 300 167 l 300 782 z "},"Ŧ":{"ha":790,"x_min":7,"x_max":782,"o":"m 665 593 q 642 722 654 688 q 601 767 631 756 q 497 782 572 779 q 486 463 490 667 l 588 468 l 607 449 l 600 385 l 485 383 q 483 188 483 317 q 501 115 483 136 q 558 93 518 93 q 607 94 588 93 q 632 97 626 96 l 638 90 l 625 -6 q 524 -2 597 -4 q 383 0 451 0 q 256 -3 335 0 q 151 -8 176 -7 l 163 83 q 253 101 226 89 q 290 140 281 113 q 300 229 300 167 l 300 383 l 181 382 l 167 396 l 176 463 l 300 461 l 300 782 q 190 767 221 779 q 146 722 158 756 q 124 601 133 689 l 7 593 q 16 714 10 621 q 24 892 22 807 l 39 907 l 178 892 l 611 892 l 753 907 l 768 892 q 775 716 769 804 q 782 601 781 628 l 665 593 z "},"Ť":{"ha":790,"x_min":7,"x_max":782,"o":"m 300 782 q 190 767 221 779 q 146 722 158 756 q 124 601 133 689 l 7 593 q 16 714 10 621 q 24 892 22 807 l 39 907 l 178 892 l 611 892 l 753 907 l 768 892 q 775 716 769 804 q 782 601 781 628 l 665 593 q 642 722 654 688 q 601 767 631 756 q 497 782 572 779 q 488 510 492 685 q 483 188 483 336 q 501 115 483 136 q 558 93 518 93 q 607 94 588 93 q 632 97 626 96 l 638 90 l 625 -6 q 524 -2 597 -4 q 383 0 451 0 q 256 -3 335 0 q 151 -8 176 -7 l 163 83 q 253 101 226 89 q 290 140 281 113 q 300 229 300 167 l 300 782 m 631 1139 q 500 1038 567 1092 q 414 967 433 983 l 385 967 q 299 1038 365 983 q 168 1139 232 1092 l 201 1197 l 224 1201 q 400 1121 311 1157 q 575 1201 450 1142 l 597 1197 l 631 1139 z "},"Ţ":{"ha":790,"x_min":7,"x_max":782,"o":"m 665 593 q 642 722 654 688 q 601 767 631 756 q 497 782 572 779 q 488 510 492 685 q 483 188 483 336 q 501 115 483 136 q 558 93 518 93 q 607 94 588 93 q 632 97 626 96 l 638 90 l 625 -6 q 549 -3 606 -4 q 428 0 493 -1 l 410 -61 q 507 -128 471 -97 q 543 -196 543 -158 q 517 -262 543 -232 q 448 -311 490 -293 q 358 -329 406 -329 q 284 -312 318 -329 q 250 -269 250 -296 q 301 -182 250 -243 l 314 -182 q 335 -240 315 -219 q 386 -260 354 -260 q 426 -248 410 -260 q 442 -218 442 -236 q 408 -172 442 -197 q 322 -119 375 -147 l 356 0 q 231 -4 289 -1 q 151 -8 172 -7 l 163 83 q 253 101 226 89 q 290 140 281 113 q 300 229 300 167 l 300 782 q 190 767 221 779 q 146 722 158 756 q 124 601 133 689 l 7 593 q 16 714 10 621 q 24 892 22 807 l 39 907 l 178 892 l 611 892 l 753 907 l 768 892 q 775 716 769 804 q 782 601 781 628 l 665 593 z "},"Ț":{"ha":790,"x_min":7,"x_max":782,"o":"m 300 782 q 190 767 221 779 q 146 722 158 756 q 124 601 133 689 l 7 593 q 16 714 10 621 q 24 892 22 807 l 39 907 l 178 892 l 611 892 l 753 907 l 768 892 q 775 716 769 804 q 782 601 781 628 l 665 593 q 642 722 654 688 q 601 767 631 756 q 497 782 572 779 q 488 510 492 685 q 483 188 483 336 q 501 115 483 136 q 558 93 518 93 q 607 94 588 93 q 632 97 626 96 l 638 90 l 625 -6 q 524 -2 597 -4 q 383 0 451 0 q 256 -3 335 0 q 151 -8 176 -7 l 163 83 q 253 101 226 89 q 290 140 281 113 q 300 229 300 167 l 300 782 m 300 -119 q 410 -71 361 -71 q 478 -103 451 -71 q 506 -190 506 -136 q 448 -326 506 -260 q 301 -442 390 -393 l 250 -400 l 250 -376 q 318 -309 292 -349 q 344 -235 344 -269 q 331 -181 344 -207 q 296 -139 318 -156 l 300 -119 z "},"U":{"ha":910,"x_min":25,"x_max":886,"o":"m 304 328 q 349 167 304 224 q 476 110 393 110 q 646 290 646 110 q 644 534 646 397 q 640 726 642 671 q 630 787 638 772 q 596 801 622 801 q 569 800 582 801 q 550 799 556 799 l 546 804 l 558 896 q 625 894 576 896 q 721 892 674 892 q 818 895 765 892 q 886 900 871 899 l 878 807 q 810 783 825 796 q 796 738 796 771 l 796 306 q 704 67 796 150 q 439 -17 613 -17 q 117 283 117 -17 l 117 726 q 108 787 117 772 q 72 801 100 801 q 45 800 58 801 q 28 799 32 799 l 25 804 l 36 896 q 113 893 56 894 q 236 892 171 892 q 328 895 272 892 q 401 900 383 899 l 392 806 q 331 785 347 800 q 314 732 315 769 l 304 328 z "},"Ú":{"ha":910,"x_min":25,"x_max":886,"o":"m 304 328 q 349 167 304 224 q 476 110 393 110 q 646 290 646 110 q 644 534 646 397 q 640 726 642 671 q 630 787 638 772 q 596 801 622 801 q 569 800 582 801 q 550 799 556 799 l 546 804 l 558 896 q 625 894 576 896 q 721 892 674 892 q 818 895 765 892 q 886 900 871 899 l 878 807 q 810 783 825 796 q 796 738 796 771 l 796 306 q 704 67 796 150 q 439 -17 613 -17 q 117 283 117 -17 l 117 726 q 108 787 117 772 q 72 801 100 801 q 45 800 58 801 q 28 799 32 799 l 25 804 l 36 896 q 113 893 56 894 q 236 892 171 892 q 328 895 272 892 q 401 900 383 899 l 392 806 q 331 785 347 800 q 314 732 315 769 l 304 328 m 707 1058 q 583 1025 679 1051 q 388 968 488 999 l 369 981 l 351 1046 q 539 1131 444 1086 q 661 1190 633 1176 l 678 1183 l 714 1076 l 707 1058 z "},"Ŭ":{"ha":910,"x_min":25,"x_max":886,"o":"m 304 328 q 349 167 304 224 q 476 110 393 110 q 646 290 646 110 q 644 534 646 397 q 640 726 642 671 q 630 787 638 772 q 596 801 622 801 q 569 800 582 801 q 550 799 556 799 l 546 804 l 558 896 q 625 894 576 896 q 721 892 674 892 q 818 895 765 892 q 886 900 871 899 l 878 807 q 810 783 825 796 q 796 738 796 771 l 796 306 q 704 67 796 150 q 439 -17 613 -17 q 117 283 117 -17 l 117 726 q 108 787 117 772 q 72 801 100 801 q 45 800 58 801 q 28 799 32 799 l 25 804 l 36 896 q 113 893 56 894 q 236 892 171 892 q 328 895 272 892 q 401 900 383 899 l 392 806 q 331 785 347 800 q 314 732 315 769 l 304 328 m 463 1135 q 549 1159 511 1135 q 606 1229 588 1183 l 629 1225 l 668 1176 q 596 1052 647 1101 q 463 1003 544 1003 q 328 1053 381 1003 q 257 1176 276 1103 l 296 1225 l 319 1229 q 376 1159 338 1183 q 463 1135 414 1135 z "},"Û":{"ha":910,"x_min":25,"x_max":886,"o":"m 304 328 q 349 167 304 224 q 476 110 393 110 q 646 290 646 110 q 644 534 646 397 q 640 726 642 671 q 630 787 638 772 q 596 801 622 801 q 569 800 582 801 q 550 799 556 799 l 546 804 l 558 896 q 625 894 576 896 q 721 892 674 892 q 818 895 765 892 q 886 900 871 899 l 878 807 q 810 783 825 796 q 796 738 796 771 l 796 306 q 704 67 796 150 q 439 -17 613 -17 q 117 283 117 -17 l 117 726 q 108 787 117 772 q 72 801 100 801 q 45 800 58 801 q 28 799 32 799 l 25 804 l 36 896 q 113 893 56 894 q 236 892 171 892 q 328 895 272 892 q 401 900 383 899 l 392 806 q 331 785 347 800 q 314 732 315 769 l 304 328 m 242 1044 q 373 1146 306 1092 q 460 1217 440 1200 l 488 1217 q 553 1165 488 1219 q 619 1111 572 1150 q 704 1044 667 1072 l 671 988 l 649 982 q 474 1063 571 1021 q 297 982 413 1038 l 276 988 l 242 1044 z "},"Ü":{"ha":910,"x_min":25,"x_max":886,"o":"m 304 328 q 349 167 304 224 q 476 110 393 110 q 646 290 646 110 q 644 534 646 397 q 640 726 642 671 q 630 787 638 772 q 596 801 622 801 q 569 800 582 801 q 550 799 556 799 l 546 804 l 558 896 q 625 894 576 896 q 721 892 674 892 q 818 895 765 892 q 886 900 871 899 l 878 807 q 810 783 825 796 q 796 738 796 771 l 796 306 q 704 67 796 150 q 439 -17 613 -17 q 117 283 117 -17 l 117 726 q 108 787 117 772 q 72 801 100 801 q 45 800 58 801 q 28 799 32 799 l 25 804 l 36 896 q 113 893 56 894 q 236 892 171 892 q 328 895 272 892 q 401 900 383 899 l 392 806 q 331 785 347 800 q 314 732 315 769 l 304 328 m 342 981 q 281 1003 303 981 q 260 1065 260 1026 q 285 1132 260 1106 q 353 1158 311 1158 q 414 1135 392 1158 q 436 1075 436 1113 q 410 1007 436 1033 q 342 981 385 981 m 590 981 q 528 1003 550 981 q 507 1065 507 1026 q 533 1132 507 1106 q 600 1158 558 1158 q 661 1135 639 1158 q 683 1075 683 1113 q 658 1007 683 1033 q 590 981 632 981 z "},"Ù":{"ha":910,"x_min":25,"x_max":886,"o":"m 304 328 q 349 167 304 224 q 476 110 393 110 q 646 290 646 110 q 644 534 646 397 q 640 726 642 671 q 630 787 638 772 q 596 801 622 801 q 569 800 582 801 q 550 799 556 799 l 546 804 l 558 896 q 625 894 576 896 q 721 892 674 892 q 818 895 765 892 q 886 900 871 899 l 878 807 q 810 783 825 796 q 796 738 796 771 l 796 306 q 704 67 796 150 q 439 -17 613 -17 q 117 283 117 -17 l 117 726 q 108 787 117 772 q 72 801 100 801 q 45 800 58 801 q 28 799 32 799 l 25 804 l 36 896 q 113 893 56 894 q 236 892 171 892 q 328 895 272 892 q 401 900 383 899 l 392 806 q 331 785 347 800 q 314 732 315 769 l 304 328 m 292 1190 q 413 1131 319 1176 q 601 1046 507 1086 l 583 981 l 565 968 q 369 1026 465 1000 q 246 1058 274 1051 l 239 1076 l 275 1183 l 292 1190 z "},"Ű":{"ha":910,"x_min":25,"x_max":886,"o":"m 304 328 q 349 167 304 224 q 476 110 393 110 q 646 290 646 110 q 644 534 646 397 q 640 726 642 671 q 630 787 638 772 q 596 801 622 801 q 569 800 582 801 q 550 799 556 799 l 546 804 l 558 896 q 625 894 576 896 q 721 892 674 892 q 818 895 765 892 q 886 900 871 899 l 878 807 q 810 783 825 796 q 796 738 796 771 l 796 306 q 704 67 796 150 q 439 -17 613 -17 q 117 283 117 -17 l 117 726 q 108 787 117 772 q 72 801 100 801 q 45 800 58 801 q 28 799 32 799 l 25 804 l 36 896 q 113 893 56 894 q 236 892 171 892 q 328 895 272 892 q 401 900 383 899 l 392 806 q 331 785 347 800 q 314 732 315 769 l 304 328 m 567 1086 q 476 1035 546 1075 q 332 950 406 996 l 314 957 l 282 1004 q 416 1122 358 1071 q 492 1190 474 1174 l 508 1189 l 568 1103 l 567 1086 m 800 1081 q 709 1030 779 1069 q 565 944 639 990 l 547 950 l 515 997 q 649 1116 592 1064 q 725 1185 707 1168 l 742 1181 l 801 1097 l 800 1081 z "},"Ū":{"ha":910,"x_min":25,"x_max":886,"o":"m 304 328 q 349 167 304 224 q 476 110 393 110 q 646 290 646 110 q 644 534 646 397 q 640 726 642 671 q 630 787 638 772 q 596 801 622 801 q 569 800 582 801 q 550 799 556 799 l 546 804 l 558 896 q 625 894 576 896 q 721 892 674 892 q 818 895 765 892 q 886 900 871 899 l 878 807 q 810 783 825 796 q 796 738 796 771 l 796 306 q 704 67 796 150 q 439 -17 613 -17 q 117 283 117 -17 l 117 726 q 108 787 117 772 q 72 801 100 801 q 45 800 58 801 q 28 799 32 799 l 25 804 l 36 896 q 113 893 56 894 q 236 892 171 892 q 328 895 272 892 q 401 900 383 899 l 392 806 q 331 785 347 800 q 314 732 315 769 l 304 328 m 472 983 l 279 982 l 264 999 l 283 1104 l 497 1103 q 598 1106 540 1103 q 674 1111 656 1110 l 685 1092 l 668 985 l 472 983 z "},"Ų":{"ha":910,"x_min":25,"x_max":886,"o":"m 747 -243 q 720 -266 742 -249 q 667 -303 699 -283 q 606 -335 636 -324 q 484 -301 529 -335 q 439 -208 439 -267 q 467 -120 439 -167 q 561 -3 494 -74 q 439 -17 507 -17 q 117 283 117 -17 l 117 726 q 108 787 117 772 q 72 801 100 801 q 45 800 58 801 q 28 799 32 799 l 25 804 l 36 896 q 113 893 56 894 q 236 892 171 892 q 328 895 272 892 q 401 900 383 899 l 392 806 q 332 784 349 800 q 314 732 315 768 l 304 328 q 349 166 304 222 q 476 110 393 110 q 646 290 646 110 q 644 534 646 397 q 640 726 642 671 q 630 787 638 772 q 596 801 622 801 q 569 800 582 801 q 550 799 556 799 l 546 804 l 558 896 q 625 894 576 896 q 721 892 674 892 q 818 895 765 892 q 886 900 871 899 l 878 807 q 824 792 840 799 q 801 773 807 785 q 796 738 796 761 l 796 306 q 774 176 796 233 q 708 67 753 118 q 607 -53 639 -12 q 563 -118 575 -93 q 551 -169 551 -143 q 571 -218 551 -200 q 621 -236 590 -236 q 665 -228 643 -236 q 702 -213 688 -221 q 721 -203 717 -206 l 747 -243 z "},"Ů":{"ha":910,"x_min":25,"x_max":886,"o":"m 304 328 q 349 167 304 224 q 476 110 393 110 q 646 290 646 110 q 644 534 646 397 q 640 726 642 671 q 630 787 638 772 q 596 801 622 801 q 569 800 582 801 q 550 799 556 799 l 546 804 l 558 896 q 625 894 576 896 q 721 892 674 892 q 818 895 765 892 q 886 900 871 899 l 878 807 q 810 783 825 796 q 796 738 796 771 l 796 306 q 704 67 796 150 q 439 -17 613 -17 q 117 283 117 -17 l 117 726 q 108 787 117 772 q 72 801 100 801 q 45 800 58 801 q 28 799 32 799 l 25 804 l 36 896 q 113 893 56 894 q 236 892 171 892 q 328 895 272 892 q 401 900 383 899 l 392 806 q 331 785 347 800 q 314 732 315 769 l 304 328 m 465 942 q 375 976 407 942 q 343 1068 343 1011 q 380 1163 343 1125 q 476 1200 417 1200 q 570 1165 539 1200 q 601 1079 601 1131 q 565 983 601 1024 q 465 942 528 942 m 475 1015 q 514 1026 497 1015 q 531 1065 531 1036 q 514 1108 531 1092 q 468 1124 497 1124 q 426 1110 440 1124 q 413 1074 413 1097 q 432 1030 413 1044 q 475 1015 451 1015 z "},"Ũ":{"ha":910,"x_min":25,"x_max":886,"o":"m 304 328 q 349 167 304 224 q 476 110 393 110 q 646 290 646 110 q 644 534 646 397 q 640 726 642 671 q 630 787 638 772 q 596 801 622 801 q 569 800 582 801 q 550 799 556 799 l 546 804 l 558 896 q 625 894 576 896 q 721 892 674 892 q 818 895 765 892 q 886 900 871 899 l 878 807 q 810 783 825 796 q 796 738 796 771 l 796 306 q 704 67 796 150 q 439 -17 613 -17 q 117 283 117 -17 l 117 726 q 108 787 117 772 q 72 801 100 801 q 45 800 58 801 q 28 799 32 799 l 25 804 l 36 896 q 113 893 56 894 q 236 892 171 892 q 328 895 272 892 q 401 900 383 899 l 392 806 q 331 785 347 800 q 314 732 315 769 l 304 328 m 210 1057 l 318 1197 l 342 1203 q 390 1195 358 1203 q 453 1179 421 1188 q 497 1167 460 1178 q 550 1157 533 1157 q 584 1174 564 1157 q 620 1210 604 1192 q 640 1235 636 1229 l 654 1235 l 710 1183 l 710 1169 l 601 1028 l 578 1022 q 467 1047 550 1022 q 423 1059 460 1049 q 369 1069 386 1069 q 335 1052 354 1069 q 300 1016 315 1035 q 281 992 285 997 l 265 992 l 210 1042 l 210 1057 z "},"V":{"ha":868,"x_min":-10,"x_max":872,"o":"m 99 715 q 63 780 86 760 q -4 801 39 800 l -10 811 l 0 894 q 71 893 19 894 q 175 892 122 892 q 314 897 239 892 q 411 903 389 901 l 419 892 l 413 807 q 342 798 364 803 q 313 783 321 793 q 306 754 306 774 q 359 493 306 722 q 432 182 413 264 l 453 182 q 556 497 485 264 q 628 760 628 729 q 612 793 628 783 q 557 803 596 803 l 503 803 l 496 813 l 506 899 q 590 894 525 897 q 711 892 656 892 q 812 893 767 892 q 872 894 857 894 l 863 803 q 815 784 829 797 q 788 731 801 771 l 532 7 l 303 -21 q 215 306 282 58 q 99 715 149 553 z "},"W":{"ha":1339,"x_min":-8,"x_max":1342,"o":"m 794 -21 q 751 172 786 29 q 675 475 717 315 l 661 475 l 517 7 l 293 -21 q 210 306 274 58 q 97 715 146 553 q 61 778 85 758 q -3 801 38 799 l -8 811 l 1 894 q 69 893 19 894 q 171 892 119 892 q 310 897 242 892 q 399 903 379 901 l 406 892 l 399 807 q 331 798 351 803 q 302 784 310 793 q 294 756 294 775 q 347 492 294 721 q 418 182 399 264 l 436 182 q 569 618 474 281 l 589 682 q 578 740 586 710 q 549 787 571 774 q 476 801 526 800 l 469 811 l 481 894 q 558 893 501 894 q 671 892 614 892 q 806 897 736 892 q 897 903 876 901 l 904 892 l 897 807 q 828 798 849 803 q 801 784 808 793 q 793 754 793 775 q 845 494 793 724 q 917 182 897 264 l 935 182 q 1035 499 965 265 q 1106 764 1106 733 q 1090 794 1106 786 q 1036 803 1075 803 l 983 803 l 976 813 l 988 899 q 1070 894 1007 897 q 1186 892 1133 892 q 1284 893 1240 892 q 1342 894 1328 894 l 1332 803 q 1287 784 1300 797 q 1260 731 1274 771 l 1015 7 l 794 -21 z "},"Ẃ":{"ha":1339,"x_min":-8,"x_max":1342,"o":"m 794 -21 q 751 172 786 29 q 675 475 717 315 l 661 475 l 517 7 l 293 -21 q 210 306 274 58 q 97 715 146 553 q 61 778 85 758 q -3 801 38 799 l -8 811 l 1 894 q 69 893 19 894 q 171 892 119 892 q 310 897 242 892 q 399 903 379 901 l 406 892 l 399 807 q 331 798 351 803 q 302 784 310 793 q 294 756 294 775 q 347 492 294 721 q 418 182 399 264 l 436 182 q 569 618 474 281 l 589 682 q 578 740 586 710 q 549 787 571 774 q 476 801 526 800 l 469 811 l 481 894 q 558 893 501 894 q 671 892 614 892 q 806 897 736 892 q 897 903 876 901 l 904 892 l 897 807 q 828 798 849 803 q 801 784 808 793 q 793 754 793 775 q 845 494 793 724 q 917 182 897 264 l 935 182 q 1035 499 965 265 q 1106 764 1106 733 q 1090 794 1106 786 q 1036 803 1075 803 l 983 803 l 976 813 l 988 899 q 1070 894 1007 897 q 1186 892 1133 892 q 1284 893 1240 892 q 1342 894 1328 894 l 1332 803 q 1287 784 1300 797 q 1260 731 1274 771 l 1015 7 l 794 -21 m 917 1058 q 793 1025 889 1051 q 597 968 697 999 l 579 981 l 561 1046 q 749 1131 654 1086 q 871 1190 843 1176 l 888 1183 l 924 1076 l 917 1058 z "},"Ŵ":{"ha":1339,"x_min":-8,"x_max":1342,"o":"m 794 -21 q 751 172 786 29 q 675 475 717 315 l 661 475 l 517 7 l 293 -21 q 210 306 274 58 q 97 715 146 553 q 61 778 85 758 q -3 801 38 799 l -8 811 l 1 894 q 69 893 19 894 q 171 892 119 892 q 310 897 242 892 q 399 903 379 901 l 406 892 l 399 807 q 331 798 351 803 q 302 784 310 793 q 294 756 294 775 q 347 492 294 721 q 418 182 399 264 l 436 182 q 569 618 474 281 l 589 682 q 578 740 586 710 q 549 787 571 774 q 476 801 526 800 l 469 811 l 481 894 q 558 893 501 894 q 671 892 614 892 q 806 897 736 892 q 897 903 876 901 l 904 892 l 897 807 q 828 798 849 803 q 801 784 808 793 q 793 754 793 775 q 845 494 793 724 q 917 182 897 264 l 935 182 q 1035 499 965 265 q 1106 764 1106 733 q 1090 794 1106 786 q 1036 803 1075 803 l 983 803 l 976 813 l 988 899 q 1070 894 1007 897 q 1186 892 1133 892 q 1284 893 1240 892 q 1342 894 1328 894 l 1332 803 q 1287 784 1300 797 q 1260 731 1274 771 l 1015 7 l 794 -21 m 451 1044 q 583 1146 515 1092 q 669 1217 650 1200 l 697 1217 q 763 1165 697 1219 q 829 1111 782 1150 q 914 1044 876 1072 l 881 988 l 858 982 q 683 1063 781 1021 q 507 982 622 1038 l 486 988 l 451 1044 z "},"Ẅ":{"ha":1339,"x_min":-8,"x_max":1342,"o":"m 794 -21 q 751 172 786 29 q 675 475 717 315 l 661 475 l 517 7 l 293 -21 q 210 306 274 58 q 97 715 146 553 q 61 778 85 758 q -3 801 38 799 l -8 811 l 1 894 q 69 893 19 894 q 171 892 119 892 q 310 897 242 892 q 399 903 379 901 l 406 892 l 399 807 q 331 798 351 803 q 302 784 310 793 q 294 756 294 775 q 347 492 294 721 q 418 182 399 264 l 436 182 q 569 618 474 281 l 589 682 q 578 740 586 710 q 549 787 571 774 q 476 801 526 800 l 469 811 l 481 894 q 558 893 501 894 q 671 892 614 892 q 806 897 736 892 q 897 903 876 901 l 904 892 l 897 807 q 828 798 849 803 q 801 784 808 793 q 793 754 793 775 q 845 494 793 724 q 917 182 897 264 l 935 182 q 1035 499 965 265 q 1106 764 1106 733 q 1090 794 1106 786 q 1036 803 1075 803 l 983 803 l 976 813 l 988 899 q 1070 894 1007 897 q 1186 892 1133 892 q 1284 893 1240 892 q 1342 894 1328 894 l 1332 803 q 1287 784 1300 797 q 1260 731 1274 771 l 1015 7 l 794 -21 m 551 981 q 491 1003 513 981 q 469 1065 469 1026 q 495 1132 469 1106 q 563 1158 521 1158 q 624 1135 601 1158 q 646 1075 646 1113 q 620 1007 646 1033 q 551 981 594 981 m 800 981 q 738 1003 760 981 q 717 1065 717 1026 q 742 1132 717 1106 q 810 1158 768 1158 q 871 1135 849 1158 q 893 1075 893 1113 q 867 1007 893 1033 q 800 981 842 981 z "},"Ẁ":{"ha":1339,"x_min":-8,"x_max":1342,"o":"m 794 -21 q 751 172 786 29 q 675 475 717 315 l 661 475 l 517 7 l 293 -21 q 210 306 274 58 q 97 715 146 553 q 61 778 85 758 q -3 801 38 799 l -8 811 l 1 894 q 69 893 19 894 q 171 892 119 892 q 310 897 242 892 q 399 903 379 901 l 406 892 l 399 807 q 331 798 351 803 q 302 784 310 793 q 294 756 294 775 q 347 492 294 721 q 418 182 399 264 l 436 182 q 569 618 474 281 l 589 682 q 578 740 586 710 q 549 787 571 774 q 476 801 526 800 l 469 811 l 481 894 q 558 893 501 894 q 671 892 614 892 q 806 897 736 892 q 897 903 876 901 l 904 892 l 897 807 q 828 798 849 803 q 801 784 808 793 q 793 754 793 775 q 845 494 793 724 q 917 182 897 264 l 935 182 q 1035 499 965 265 q 1106 764 1106 733 q 1090 794 1106 786 q 1036 803 1075 803 l 983 803 l 976 813 l 988 899 q 1070 894 1007 897 q 1186 892 1133 892 q 1284 893 1240 892 q 1342 894 1328 894 l 1332 803 q 1287 784 1300 797 q 1260 731 1274 771 l 1015 7 l 794 -21 m 503 1190 q 624 1131 531 1176 q 813 1046 718 1086 l 794 981 l 776 968 q 581 1026 676 1000 q 457 1058 485 1051 l 450 1076 l 486 1183 l 503 1190 z "},"X":{"ha":947,"x_min":10,"x_max":938,"o":"m 219 278 q 19 92 99 121 l 10 8 l 15 -6 q 88 -1 33 -4 q 176 1 143 1 q 272 -3 207 1 q 357 -8 336 -7 l 365 78 l 360 88 q 308 100 324 90 q 292 129 292 110 q 302 163 292 143 q 340 221 313 183 l 432 350 l 551 174 q 574 124 574 143 q 555 97 574 106 q 497 85 536 88 l 490 0 l 497 -10 q 615 -3 526 -8 q 747 1 703 1 q 853 -1 800 1 q 926 -3 907 -3 l 938 89 l 933 94 q 835 125 876 97 q 751 211 793 153 l 588 446 l 738 653 q 822 750 786 719 q 921 801 858 781 l 929 886 l 924 896 q 864 893 908 894 q 767 892 819 892 q 651 894 726 892 l 585 896 l 576 815 l 579 808 q 631 799 615 807 q 646 774 646 790 q 622 720 646 758 q 554 618 599 682 q 511 556 510 554 q 415 702 442 657 q 388 767 388 747 q 407 797 388 786 q 469 808 426 807 l 476 889 l 469 901 q 380 896 449 900 q 257 892 311 892 q 117 893 179 892 q 36 894 56 894 l 25 806 l 31 799 q 131 763 90 788 q 208 682 171 738 l 358 460 l 219 278 z "},"Y":{"ha":831,"x_min":-14,"x_max":846,"o":"m 317 767 q 435 481 317 738 l 447 481 l 557 710 q 576 776 576 749 q 560 799 576 792 q 506 808 543 807 l 503 815 l 513 896 l 581 893 q 697 890 656 890 q 782 892 738 890 q 840 896 826 894 l 846 886 l 836 801 q 747 747 781 783 q 667 624 714 710 l 535 375 q 512 305 515 340 q 508 175 508 269 q 523 111 508 129 q 574 93 538 93 q 617 94 597 93 q 643 97 636 96 l 647 90 l 635 -6 q 540 -2 608 -4 q 406 0 471 0 q 283 -6 356 0 q 189 -15 211 -12 l 199 81 q 280 100 254 88 q 315 138 306 113 q 324 211 324 163 l 324 253 q 315 319 324 289 q 283 394 307 350 l 147 660 q 83 756 114 726 q -10 799 51 786 l -14 806 l -3 894 q 72 892 18 894 q 176 890 125 890 q 299 895 222 890 q 400 901 375 900 l 407 889 l 399 808 q 335 797 353 807 q 317 767 317 788 z "},"Ý":{"ha":831,"x_min":-14,"x_max":846,"o":"m 317 767 q 435 481 317 738 l 447 481 l 557 710 q 576 776 576 749 q 560 799 576 792 q 506 808 543 807 l 503 815 l 513 896 l 581 893 q 697 890 656 890 q 782 892 738 890 q 840 896 826 894 l 846 886 l 836 801 q 747 747 781 783 q 667 624 714 710 l 535 375 q 512 305 515 340 q 508 175 508 269 q 523 111 508 129 q 574 93 538 93 q 617 94 597 93 q 643 97 636 96 l 647 90 l 635 -6 q 540 -2 608 -4 q 406 0 471 0 q 283 -6 356 0 q 189 -15 211 -12 l 199 81 q 280 100 254 88 q 315 138 306 113 q 324 211 324 163 l 324 253 q 315 319 324 289 q 283 394 307 350 l 147 660 q 83 756 114 726 q -10 799 51 786 l -14 806 l -3 894 q 72 892 18 894 q 176 890 125 890 q 299 895 222 890 q 400 901 375 900 l 407 889 l 399 808 q 335 797 353 807 q 317 767 317 788 m 683 1058 q 560 1025 656 1051 q 364 968 464 999 l 346 981 l 328 1046 q 515 1131 421 1086 q 638 1190 610 1176 l 654 1183 l 690 1076 l 683 1058 z "},"Ŷ":{"ha":831,"x_min":-14,"x_max":846,"o":"m 317 767 q 435 481 317 738 l 447 481 l 557 710 q 576 776 576 749 q 560 799 576 792 q 506 808 543 807 l 503 815 l 513 896 l 581 893 q 697 890 656 890 q 782 892 738 890 q 840 896 826 894 l 846 886 l 836 801 q 747 747 781 783 q 667 624 714 710 l 535 375 q 512 305 515 340 q 508 175 508 269 q 523 111 508 129 q 574 93 538 93 q 617 94 597 93 q 643 97 636 96 l 647 90 l 635 -6 q 540 -2 608 -4 q 406 0 471 0 q 283 -6 356 0 q 189 -15 211 -12 l 199 81 q 280 100 254 88 q 315 138 306 113 q 324 211 324 163 l 324 253 q 315 319 324 289 q 283 394 307 350 l 147 660 q 83 756 114 726 q -10 799 51 786 l -14 806 l -3 894 q 72 892 18 894 q 176 890 125 890 q 299 895 222 890 q 400 901 375 900 l 407 889 l 399 808 q 335 797 353 807 q 317 767 317 788 m 218 1044 q 349 1146 282 1092 q 436 1217 417 1200 l 464 1217 q 529 1165 464 1219 q 596 1111 549 1150 q 681 1044 643 1072 l 647 988 l 625 982 q 450 1063 547 1021 q 274 982 389 1038 l 253 988 l 218 1044 z "},"Ÿ":{"ha":831,"x_min":-14,"x_max":846,"o":"m 317 767 q 435 481 317 738 l 447 481 l 557 710 q 576 776 576 749 q 560 799 576 792 q 506 808 543 807 l 503 815 l 513 896 l 581 893 q 697 890 656 890 q 782 892 738 890 q 840 896 826 894 l 846 886 l 836 801 q 747 747 781 783 q 667 624 714 710 l 535 375 q 512 305 515 340 q 508 175 508 269 q 523 111 508 129 q 574 93 538 93 q 617 94 597 93 q 643 97 636 96 l 647 90 l 635 -6 q 540 -2 608 -4 q 406 0 471 0 q 283 -6 356 0 q 189 -15 211 -12 l 199 81 q 280 100 254 88 q 315 138 306 113 q 324 211 324 163 l 324 253 q 315 319 324 289 q 283 394 307 350 l 147 660 q 83 756 114 726 q -10 799 51 786 l -14 806 l -3 894 q 72 892 18 894 q 176 890 125 890 q 299 895 222 890 q 400 901 375 900 l 407 889 l 399 808 q 335 797 353 807 q 317 767 317 788 m 318 981 q 258 1003 279 981 q 236 1065 236 1026 q 262 1132 236 1106 q 329 1158 288 1158 q 390 1135 368 1158 q 413 1075 413 1113 q 387 1007 413 1033 q 318 981 361 981 m 567 981 q 505 1003 526 981 q 483 1065 483 1026 q 509 1132 483 1106 q 576 1158 535 1158 q 638 1135 615 1158 q 660 1075 660 1113 q 634 1007 660 1033 q 567 981 608 981 z "},"Ỳ":{"ha":831,"x_min":-14,"x_max":846,"o":"m 317 767 q 435 481 317 738 l 447 481 l 557 710 q 576 776 576 749 q 560 799 576 792 q 506 808 543 807 l 503 815 l 513 896 l 581 893 q 697 890 656 890 q 782 892 738 890 q 840 896 826 894 l 846 886 l 836 801 q 747 747 781 783 q 667 624 714 710 l 535 375 q 512 305 515 340 q 508 175 508 269 q 523 111 508 129 q 574 93 538 93 q 617 94 597 93 q 643 97 636 96 l 647 90 l 635 -6 q 540 -2 608 -4 q 406 0 471 0 q 283 -6 356 0 q 189 -15 211 -12 l 199 81 q 280 100 254 88 q 315 138 306 113 q 324 211 324 163 l 324 253 q 315 319 324 289 q 283 394 307 350 l 147 660 q 83 756 114 726 q -10 799 51 786 l -14 806 l -3 894 q 72 892 18 894 q 176 890 125 890 q 299 895 222 890 q 400 901 375 900 l 407 889 l 399 808 q 335 797 353 807 q 317 767 317 788 m 269 1190 q 391 1131 297 1176 q 579 1046 485 1086 l 561 981 l 543 968 q 347 1026 443 1000 q 224 1058 251 1051 l 217 1076 l 253 1183 l 269 1190 z "},"Z":{"ha":806,"x_min":26,"x_max":776,"o":"m 61 -7 l 26 56 l 513 790 l 338 779 q 244 756 276 772 q 198 704 213 739 q 178 603 183 669 l 60 594 q 72 719 63 624 q 83 894 81 814 l 97 908 l 344 893 l 751 889 l 776 832 q 521 475 635 644 q 292 128 407 306 l 275 101 l 492 117 q 599 174 561 124 q 653 331 638 224 l 771 340 q 753 208 767 310 q 738 22 740 107 l 714 -4 l 165 4 l 61 -7 z "},"Ź":{"ha":806,"x_min":26,"x_max":776,"o":"m 61 -7 l 26 56 l 513 790 l 338 779 q 244 756 276 772 q 198 704 213 739 q 178 603 183 669 l 60 594 q 72 719 63 624 q 83 894 81 814 l 97 908 l 344 893 l 751 889 l 776 832 q 521 475 635 644 q 292 128 407 306 l 275 101 l 492 117 q 599 174 561 124 q 653 331 638 224 l 771 340 q 753 208 767 310 q 738 22 740 107 l 714 -4 l 165 4 l 61 -7 m 667 1058 q 543 1025 639 1051 q 347 968 447 999 l 329 981 l 311 1046 q 499 1131 404 1086 q 621 1190 593 1176 l 638 1183 l 674 1076 l 667 1058 z "},"Ž":{"ha":806,"x_min":26,"x_max":776,"o":"m 61 -7 l 26 56 l 513 790 l 338 779 q 244 756 276 772 q 198 704 213 739 q 178 603 183 669 l 60 594 q 72 719 63 624 q 83 894 81 814 l 97 908 l 344 893 l 751 889 l 776 832 q 521 475 635 644 q 292 128 407 306 l 275 101 l 492 117 q 599 174 561 124 q 653 331 638 224 l 771 340 q 753 208 767 310 q 738 22 740 107 l 714 -4 l 165 4 l 61 -7 m 663 1139 q 532 1038 599 1092 q 446 967 465 983 l 417 967 q 331 1038 397 983 q 200 1139 264 1092 l 233 1197 l 256 1201 q 432 1121 343 1157 q 607 1201 482 1142 l 629 1197 l 663 1139 z "},"Ż":{"ha":806,"x_min":26,"x_max":776,"o":"m 61 -7 l 26 56 l 513 790 l 338 779 q 244 756 276 772 q 198 704 213 739 q 178 603 183 669 l 60 594 q 72 719 63 624 q 83 894 81 814 l 97 908 l 344 893 l 751 889 l 776 832 q 521 475 635 644 q 292 128 407 306 l 275 101 l 492 117 q 599 174 561 124 q 653 331 638 224 l 771 340 q 753 208 767 310 q 738 22 740 107 l 714 -4 l 165 4 l 61 -7 m 428 975 q 355 1002 381 975 q 329 1075 329 1029 q 360 1155 329 1124 q 440 1186 390 1186 q 512 1159 486 1186 q 538 1086 538 1132 q 507 1006 538 1038 q 428 975 476 975 z "},"a":{"ha":665,"x_min":38,"x_max":667,"o":"m 388 401 q 356 494 388 461 q 269 526 325 526 q 188 508 235 526 q 106 461 142 489 l 94 468 l 68 551 q 224 628 150 597 q 325 658 297 658 q 497 608 435 658 q 558 468 558 558 q 546 342 558 439 q 531 183 531 207 q 544 142 531 157 q 579 128 557 128 q 646 151 608 128 l 667 122 q 601 31 639 71 q 532 -17 563 -8 q 434 10 469 -17 q 392 90 399 38 l 382 94 q 292 17 333 46 q 228 -11 250 -11 q 131 15 175 -11 q 63 88 88 42 q 38 192 38 135 q 60 267 38 236 q 118 307 82 299 l 386 369 l 388 401 m 238 253 q 204 208 204 243 q 226 146 204 168 q 286 124 247 124 q 331 134 306 124 q 379 163 356 144 l 382 293 l 238 253 z "},"á":{"ha":665,"x_min":38,"x_max":667,"o":"m 388 401 q 356 494 388 461 q 269 526 325 526 q 188 508 235 526 q 106 461 142 489 l 94 468 l 68 551 q 224 628 150 597 q 325 658 297 658 q 497 608 435 658 q 558 468 558 558 q 546 342 558 439 q 531 183 531 207 q 544 142 531 157 q 579 128 557 128 q 646 151 608 128 l 667 122 q 601 31 639 71 q 532 -17 563 -8 q 434 10 469 -17 q 392 90 399 38 l 382 94 q 292 17 333 46 q 228 -11 250 -11 q 131 15 175 -11 q 63 88 88 42 q 38 192 38 135 q 60 267 38 236 q 118 307 82 299 l 386 369 l 388 401 m 238 253 q 204 208 204 243 q 226 146 204 168 q 286 124 247 124 q 331 134 306 124 q 379 163 356 144 l 382 293 l 238 253 m 525 907 q 422 840 501 893 q 263 728 343 788 l 242 733 l 200 789 q 343 930 272 857 q 433 1025 414 1003 l 451 1024 l 526 926 l 525 907 z "},"ă":{"ha":665,"x_min":38,"x_max":667,"o":"m 388 401 q 356 494 388 461 q 269 526 325 526 q 188 508 235 526 q 106 461 142 489 l 94 468 l 68 551 q 224 628 150 597 q 325 658 297 658 q 497 608 435 658 q 558 468 558 558 q 546 342 558 439 q 531 183 531 207 q 544 142 531 157 q 579 128 557 128 q 646 151 608 128 l 667 122 q 601 31 639 71 q 532 -17 563 -8 q 434 10 469 -17 q 392 90 399 38 l 382 94 q 292 17 333 46 q 228 -11 250 -11 q 131 15 175 -11 q 63 88 88 42 q 38 192 38 135 q 60 267 38 236 q 118 307 82 299 l 386 369 l 388 401 m 238 253 q 204 208 204 243 q 226 146 204 168 q 286 124 247 124 q 331 134 306 124 q 379 163 356 144 l 382 293 l 238 253 m 317 893 q 403 917 365 893 q 460 988 442 942 l 483 983 l 522 935 q 450 810 501 860 q 317 761 399 761 q 183 811 235 761 q 111 935 131 861 l 150 983 l 174 988 q 230 917 192 942 q 317 893 268 893 z "},"â":{"ha":665,"x_min":38,"x_max":667,"o":"m 388 401 q 356 494 388 461 q 269 526 325 526 q 188 508 235 526 q 106 461 142 489 l 94 468 l 68 551 q 224 628 150 597 q 325 658 297 658 q 497 608 435 658 q 558 468 558 558 q 546 342 558 439 q 531 183 531 207 q 544 142 531 157 q 579 128 557 128 q 646 151 608 128 l 667 122 q 601 31 639 71 q 532 -17 563 -8 q 434 10 469 -17 q 392 90 399 38 l 382 94 q 292 17 333 46 q 228 -11 250 -11 q 131 15 175 -11 q 63 88 88 42 q 38 192 38 135 q 60 267 38 236 q 118 307 82 299 l 386 369 l 388 401 m 238 253 q 204 208 204 243 q 226 146 204 168 q 286 124 247 124 q 331 134 306 124 q 379 163 356 144 l 382 293 l 238 253 m 93 800 q 220 926 156 858 q 304 1014 285 993 l 332 1014 q 416 926 351 993 q 543 800 481 858 l 503 743 l 481 738 q 347 833 424 782 l 318 853 q 156 738 210 781 l 133 743 l 93 800 z "},"ä":{"ha":665,"x_min":38,"x_max":667,"o":"m 388 401 q 356 494 388 461 q 269 526 325 526 q 188 508 235 526 q 106 461 142 489 l 94 468 l 68 551 q 224 628 150 597 q 325 658 297 658 q 497 608 435 658 q 558 468 558 558 q 546 342 558 439 q 531 183 531 207 q 544 142 531 157 q 579 128 557 128 q 646 151 608 128 l 667 122 q 601 31 639 71 q 532 -17 563 -8 q 434 10 469 -17 q 392 90 399 38 l 382 94 q 292 17 333 46 q 228 -11 250 -11 q 131 15 175 -11 q 63 88 88 42 q 38 192 38 135 q 60 267 38 236 q 118 307 82 299 l 386 369 l 388 401 m 238 253 q 204 208 204 243 q 226 146 204 168 q 286 124 247 124 q 331 134 306 124 q 379 163 356 144 l 382 293 l 238 253 m 185 783 q 124 806 146 783 q 103 867 103 829 q 128 935 103 908 q 196 961 154 961 q 257 938 235 961 q 279 876 279 914 q 253 810 279 836 q 185 783 228 783 m 433 783 q 372 806 393 783 q 350 867 350 829 q 376 935 350 908 q 443 961 401 961 q 504 938 482 961 q 526 876 526 914 q 501 810 526 836 q 433 783 475 783 z "},"à":{"ha":665,"x_min":38,"x_max":667,"o":"m 388 401 q 356 494 388 461 q 269 526 325 526 q 188 508 235 526 q 106 461 142 489 l 94 468 l 68 551 q 224 628 150 597 q 325 658 297 658 q 497 608 435 658 q 558 468 558 558 q 546 342 558 439 q 531 183 531 207 q 544 142 531 157 q 579 128 557 128 q 646 151 608 128 l 667 122 q 601 31 639 71 q 532 -17 563 -8 q 434 10 469 -17 q 392 90 399 38 l 382 94 q 292 17 333 46 q 228 -11 250 -11 q 131 15 175 -11 q 63 88 88 42 q 38 192 38 135 q 60 267 38 236 q 118 307 82 299 l 386 369 l 388 401 m 238 253 q 204 208 204 243 q 226 146 204 168 q 286 124 247 124 q 331 134 306 124 q 379 163 356 144 l 382 293 l 238 253 m 222 1024 q 313 930 242 1003 q 454 789 383 857 l 413 733 l 392 728 q 232 840 311 788 q 129 906 153 892 l 128 925 l 203 1022 l 222 1024 z "},"ā":{"ha":665,"x_min":38,"x_max":667,"o":"m 388 401 q 356 494 388 461 q 269 526 325 526 q 188 508 235 526 q 106 461 142 489 l 94 468 l 68 551 q 224 628 150 597 q 325 658 297 658 q 497 608 435 658 q 558 468 558 558 q 546 342 558 439 q 531 183 531 207 q 544 142 531 157 q 579 128 557 128 q 646 151 608 128 l 667 122 q 601 31 639 71 q 532 -17 563 -8 q 434 10 469 -17 q 392 90 399 38 l 382 94 q 292 17 333 46 q 228 -11 250 -11 q 131 15 175 -11 q 63 88 88 42 q 38 192 38 135 q 60 267 38 236 q 118 307 82 299 l 386 369 l 388 401 m 238 253 q 204 208 204 243 q 226 146 204 168 q 286 124 247 124 q 331 134 306 124 q 379 163 356 144 l 382 293 l 238 253 m 315 808 l 122 807 l 107 822 l 126 928 l 340 926 q 441 930 383 926 q 517 935 499 933 l 528 915 l 511 810 l 315 808 z "},"ą":{"ha":665,"x_min":38,"x_max":674,"o":"m 674 -242 q 647 -265 668 -247 q 594 -303 626 -283 q 532 -335 563 -324 q 410 -301 454 -335 q 365 -207 365 -267 q 392 -123 365 -168 q 481 -11 418 -78 q 419 24 442 -3 q 392 90 396 50 l 382 94 q 290 17 331 44 q 228 -11 250 -11 q 131 15 175 -11 q 63 88 88 42 q 38 192 38 135 q 60 267 38 235 q 118 307 82 299 l 386 369 l 388 401 q 356 494 388 461 q 269 526 325 526 q 197 512 233 526 q 136 482 160 497 q 106 461 113 467 l 94 468 l 68 551 q 124 581 81 558 q 221 626 168 604 q 307 654 274 649 q 333 657 324 657 l 350 656 q 487 610 435 650 q 551 503 539 571 q 556 431 557 476 q 538 260 550 346 q 531 183 531 201 q 544 143 531 158 q 579 128 557 128 q 609 133 594 128 q 633 144 624 139 q 646 151 643 150 l 669 117 q 522 -69 565 -4 q 479 -169 479 -133 q 498 -217 479 -199 q 547 -236 517 -236 q 592 -228 569 -236 q 628 -213 614 -221 q 647 -203 643 -206 l 674 -242 m 238 253 q 204 208 204 243 q 226 147 204 171 q 281 124 247 124 q 330 134 303 124 q 379 163 357 144 l 382 293 l 238 253 z "},"å":{"ha":665,"x_min":38,"x_max":667,"o":"m 388 401 q 356 494 388 461 q 269 526 325 526 q 188 508 235 526 q 106 461 142 489 l 94 468 l 68 551 q 224 628 150 597 q 325 658 297 658 q 497 608 435 658 q 558 468 558 558 q 546 342 558 439 q 531 183 531 207 q 544 142 531 157 q 579 128 557 128 q 646 151 608 128 l 667 122 q 601 31 639 71 q 532 -17 563 -8 q 434 10 469 -17 q 392 90 399 38 l 382 94 q 292 17 333 46 q 228 -11 250 -11 q 131 15 175 -11 q 63 88 88 42 q 38 192 38 135 q 60 267 38 236 q 118 307 82 299 l 386 369 l 388 401 m 238 253 q 204 208 204 243 q 226 146 204 168 q 286 124 247 124 q 331 134 306 124 q 379 163 356 144 l 382 293 l 238 253 m 311 756 q 221 790 253 756 q 189 882 189 825 q 226 976 189 939 q 322 1014 263 1014 q 416 979 385 1014 q 447 894 447 944 q 410 797 447 838 q 311 756 374 756 m 321 829 q 360 840 343 829 q 376 881 376 851 q 360 922 376 907 q 314 938 343 938 q 272 924 286 938 q 258 889 258 911 q 278 844 258 858 q 321 829 297 829 z "},"ǻ":{"ha":665,"x_min":38,"x_max":667,"o":"m 388 401 q 356 494 388 461 q 269 526 325 526 q 188 508 235 526 q 106 461 142 489 l 94 468 l 68 551 q 224 628 150 597 q 325 658 297 658 q 497 608 435 658 q 558 468 558 558 q 546 342 558 439 q 531 183 531 207 q 544 142 531 157 q 579 128 557 128 q 646 151 608 128 l 667 122 q 601 31 639 71 q 532 -17 563 -8 q 434 10 469 -17 q 392 90 399 38 l 382 94 q 292 17 333 46 q 228 -11 250 -11 q 131 15 175 -11 q 63 88 88 42 q 38 192 38 135 q 60 267 38 236 q 118 307 82 299 l 386 369 l 388 401 m 238 253 q 204 208 204 243 q 226 146 204 168 q 286 124 247 124 q 331 134 306 124 q 379 163 356 144 l 382 293 l 238 253 m 320 676 q 239 707 268 676 q 210 790 210 738 q 243 875 210 841 q 330 908 277 908 q 415 877 387 908 q 443 800 443 846 q 410 713 443 750 q 320 676 377 676 m 329 742 q 364 751 349 742 q 379 787 379 761 q 364 825 379 811 q 323 840 349 840 q 285 828 298 840 q 273 795 273 816 q 290 755 273 768 q 329 742 308 742 m 513 990 q 402 960 488 984 q 226 909 316 936 l 210 920 l 193 979 q 362 1056 277 1015 q 472 1109 447 1096 l 487 1102 l 520 1006 l 513 990 z "},"ã":{"ha":665,"x_min":38,"x_max":667,"o":"m 388 401 q 356 494 388 461 q 269 526 325 526 q 188 508 235 526 q 106 461 142 489 l 94 468 l 68 551 q 224 628 150 597 q 325 658 297 658 q 497 608 435 658 q 558 468 558 558 q 546 342 558 439 q 531 183 531 207 q 544 142 531 157 q 579 128 557 128 q 646 151 608 128 l 667 122 q 601 31 639 71 q 532 -17 563 -8 q 434 10 469 -17 q 392 90 399 38 l 382 94 q 292 17 333 46 q 228 -11 250 -11 q 131 15 175 -11 q 63 88 88 42 q 38 192 38 135 q 60 267 38 236 q 118 307 82 299 l 386 369 l 388 401 m 238 253 q 204 208 204 243 q 226 146 204 168 q 286 124 247 124 q 331 134 306 124 q 379 163 356 144 l 382 293 l 238 253 m 63 815 l 171 956 l 194 961 q 242 953 211 961 q 306 938 274 946 q 349 926 313 936 q 403 915 386 915 q 437 933 417 915 q 473 969 457 950 q 493 993 489 988 l 507 993 l 563 942 l 563 928 l 454 786 l 431 781 q 319 806 403 781 q 276 817 313 807 q 222 828 239 828 q 188 810 207 828 q 153 774 168 793 q 133 750 138 756 l 118 750 l 63 800 l 63 815 z "},"æ":{"ha":931,"x_min":25,"x_max":907,"o":"m 907 86 q 864 57 907 85 q 769 6 821 29 q 675 -17 718 -17 q 515 19 583 -17 q 410 119 446 54 q 300 28 351 63 q 215 -11 249 -6 q 79 47 133 -11 q 25 189 25 104 q 49 268 25 235 q 115 310 74 301 l 367 363 l 367 406 q 336 496 367 464 q 250 528 306 528 q 177 513 214 528 q 116 483 140 499 q 85 461 92 467 l 74 468 l 49 551 q 112 585 63 560 q 218 635 161 611 q 304 658 275 658 q 476 568 421 658 q 570 635 517 613 q 685 658 624 658 q 843 597 786 658 q 900 425 900 535 q 899 399 900 410 q 897 385 897 388 l 882 368 l 528 307 q 583 166 538 215 q 706 117 629 117 q 781 126 744 117 q 842 147 818 136 q 874 161 867 157 l 883 157 l 907 86 m 700 425 q 725 446 725 432 q 703 515 725 489 q 644 542 681 542 q 556 505 589 542 q 524 406 524 468 l 524 381 l 700 425 m 231 253 q 190 204 190 244 q 212 144 190 168 q 265 121 233 121 q 320 136 289 121 q 385 178 351 151 q 367 289 367 229 l 231 253 z "},"ǽ":{"ha":931,"x_min":25,"x_max":907,"o":"m 907 86 q 864 57 907 85 q 769 6 821 29 q 675 -17 718 -17 q 515 19 583 -17 q 410 119 446 54 q 300 28 351 63 q 215 -11 249 -6 q 79 47 133 -11 q 25 189 25 104 q 49 268 25 235 q 115 310 74 301 l 367 363 l 367 406 q 336 496 367 464 q 250 528 306 528 q 177 513 214 528 q 116 483 140 499 q 85 461 92 467 l 74 468 l 49 551 q 112 585 63 560 q 218 635 161 611 q 304 658 275 658 q 476 568 421 658 q 570 635 517 613 q 685 658 624 658 q 843 597 786 658 q 900 425 900 535 q 899 399 900 410 q 897 385 897 388 l 882 368 l 528 307 q 583 166 538 215 q 706 117 629 117 q 781 126 744 117 q 842 147 818 136 q 874 161 867 157 l 883 157 l 907 86 m 700 425 q 725 446 725 432 q 703 515 725 489 q 644 542 681 542 q 556 505 589 542 q 524 406 524 468 l 524 381 l 700 425 m 231 253 q 190 204 190 244 q 212 144 190 168 q 265 121 233 121 q 320 136 289 121 q 385 178 351 151 q 367 289 367 229 l 231 253 m 699 906 q 596 839 675 892 q 436 726 517 786 l 415 732 l 374 788 q 517 928 446 856 q 607 1024 588 1001 l 625 1022 l 700 925 l 699 906 z "},"b":{"ha":714,"x_min":-4,"x_max":678,"o":"m 93 829 q 80 890 93 872 q 33 907 67 907 l 1 906 l -4 911 l 4 986 q 174 1011 85 996 q 290 1031 264 1026 l 300 1004 q 278 872 288 989 q 263 564 268 756 q 414 654 388 654 q 606 572 535 654 q 678 347 678 489 q 633 161 678 243 q 508 33 588 79 q 328 -14 429 -14 q 228 -9 278 -14 q 147 1 179 -4 q 106 8 114 7 l 93 22 l 93 829 m 257 124 q 301 108 271 115 q 358 101 331 101 q 460 152 424 101 q 497 294 497 203 q 460 460 497 399 q 361 521 422 521 q 309 508 338 521 q 261 476 281 496 l 257 124 z "},"c":{"ha":600,"x_min":35,"x_max":556,"o":"m 551 88 q 507 54 542 79 q 426 6 472 29 q 342 -17 379 -17 q 117 69 199 -17 q 35 304 35 156 q 78 488 35 407 q 198 613 121 568 q 374 658 275 658 q 459 652 419 658 q 522 639 499 646 q 550 629 544 632 l 556 617 q 548 578 554 608 q 535 501 542 549 q 525 401 528 453 l 435 396 l 435 442 q 412 515 435 489 q 349 540 389 540 q 251 493 285 540 q 218 357 218 446 q 258 183 218 243 q 371 124 297 124 q 438 133 404 124 q 492 151 471 142 q 518 164 513 161 l 529 160 l 551 88 z "},"ć":{"ha":600,"x_min":35,"x_max":563,"o":"m 551 88 q 507 54 542 79 q 426 6 472 29 q 342 -17 379 -17 q 117 69 199 -17 q 35 304 35 156 q 78 488 35 407 q 198 613 121 568 q 374 658 275 658 q 459 652 419 658 q 522 639 499 646 q 550 629 544 632 l 556 617 q 548 578 554 608 q 535 501 542 549 q 525 401 528 453 l 435 396 l 435 442 q 412 515 435 489 q 349 540 389 540 q 251 493 285 540 q 218 357 218 446 q 258 183 218 243 q 371 124 297 124 q 438 133 404 124 q 492 151 471 142 q 518 164 513 161 l 529 160 l 551 88 m 561 906 q 458 839 538 892 q 299 726 379 786 l 278 732 l 236 788 q 379 928 308 856 q 469 1024 450 1001 l 488 1022 l 563 925 l 561 906 z "},"č":{"ha":600,"x_min":35,"x_max":582,"o":"m 551 88 q 507 54 542 79 q 426 6 472 29 q 342 -17 379 -17 q 117 69 199 -17 q 35 304 35 156 q 78 488 35 407 q 198 613 121 568 q 374 658 275 658 q 459 652 419 658 q 522 639 499 646 q 550 629 544 632 l 556 617 q 548 578 554 608 q 535 501 542 549 q 525 401 528 453 l 435 396 l 435 442 q 412 515 435 489 q 349 540 389 540 q 251 493 285 540 q 218 357 218 446 q 258 183 218 243 q 371 124 297 124 q 438 133 404 124 q 492 151 471 142 q 518 164 513 161 l 529 160 l 551 88 m 185 1006 q 351 888 247 957 q 518 1006 464 963 l 539 1001 l 582 943 q 451 813 518 882 q 365 724 385 744 l 338 724 q 252 813 318 744 q 122 943 186 882 l 164 1001 l 185 1006 z "},"ç":{"ha":600,"x_min":35,"x_max":556,"o":"m 551 88 q 514 60 543 81 q 444 16 485 39 q 368 -14 404 -7 l 354 -61 q 451 -128 415 -97 q 488 -196 488 -158 q 461 -262 488 -232 q 392 -311 435 -293 q 303 -329 350 -329 q 228 -312 263 -329 q 194 -269 194 -296 q 246 -182 194 -243 l 258 -182 q 279 -240 260 -219 q 331 -260 299 -260 q 370 -248 354 -260 q 386 -218 386 -236 q 353 -172 386 -197 q 267 -119 319 -147 l 296 -14 q 104 84 174 0 q 35 304 35 168 q 78 488 35 407 q 198 613 121 568 q 374 658 275 658 q 459 652 419 658 q 522 639 499 646 q 550 629 544 632 l 556 617 q 548 578 554 608 q 535 501 542 549 q 525 401 528 453 l 435 396 l 435 442 q 412 515 435 489 q 349 540 389 540 q 251 493 285 540 q 218 357 218 446 q 258 183 218 243 q 371 124 297 124 q 438 133 404 124 q 492 151 471 142 q 518 164 513 161 l 529 160 l 551 88 z "},"ĉ":{"ha":600,"x_min":35,"x_max":594,"o":"m 551 88 q 507 54 542 79 q 426 6 472 29 q 342 -17 379 -17 q 117 69 199 -17 q 35 304 35 156 q 78 488 35 407 q 198 613 121 568 q 374 658 275 658 q 459 652 419 658 q 522 639 499 646 q 550 629 544 632 l 556 617 q 548 578 554 608 q 535 501 542 549 q 525 401 528 453 l 435 396 l 435 442 q 412 515 435 489 q 349 540 389 540 q 251 493 285 540 q 218 357 218 446 q 258 183 218 243 q 371 124 297 124 q 438 133 404 124 q 492 151 471 142 q 518 164 513 161 l 529 160 l 551 88 m 144 799 q 272 924 207 857 q 356 1013 336 992 l 383 1013 q 467 924 403 992 q 594 799 532 857 l 554 742 l 532 736 q 399 832 475 781 l 369 851 q 207 736 261 779 l 185 742 l 144 799 z "},"ċ":{"ha":600,"x_min":35,"x_max":556,"o":"m 551 88 q 507 54 542 79 q 426 6 472 29 q 342 -17 379 -17 q 117 69 199 -17 q 35 304 35 156 q 78 488 35 407 q 198 613 121 568 q 374 658 275 658 q 459 652 419 658 q 522 639 499 646 q 550 629 544 632 l 556 617 q 548 578 554 608 q 535 501 542 549 q 525 401 528 453 l 435 396 l 435 442 q 412 515 435 489 q 349 540 389 540 q 251 493 285 540 q 218 357 218 446 q 258 183 218 243 q 371 124 297 124 q 438 133 404 124 q 492 151 471 142 q 518 164 513 161 l 529 160 l 551 88 m 346 797 q 273 824 299 797 q 247 897 247 851 q 278 977 247 946 q 358 1008 308 1008 q 430 981 404 1008 q 456 908 456 954 q 425 828 456 860 q 346 797 394 797 z "},"d":{"ha":746,"x_min":35,"x_max":747,"o":"m 460 86 q 299 -11 325 -11 q 106 71 176 -11 q 35 293 35 153 q 80 479 35 397 q 204 608 125 561 q 385 654 283 654 q 456 651 431 654 l 456 826 q 442 887 456 869 q 396 904 429 904 q 375 903 385 904 q 363 900 365 901 l 372 985 q 540 1010 454 996 q 650 1031 625 1025 l 663 1007 q 632 738 644 981 q 619 185 619 494 q 631 143 619 158 q 663 128 643 128 q 692 133 678 128 q 715 144 706 139 q 726 151 724 150 l 747 122 q 724 85 743 114 q 674 26 704 57 q 608 -17 643 -6 q 469 83 485 -17 l 460 86 m 456 514 q 440 521 453 515 q 404 532 426 526 q 356 538 382 538 q 253 487 290 538 q 217 344 217 436 q 253 181 217 242 q 351 119 290 119 q 397 130 374 119 q 436 151 421 140 q 456 165 451 161 l 456 514 z "},"ð":{"ha":706,"x_min":40,"x_max":667,"o":"m 433 832 q 607 604 547 728 q 667 347 667 481 q 626 158 667 240 q 510 29 585 75 q 339 -17 436 -17 q 121 67 201 -17 q 40 292 40 150 q 78 469 40 389 q 180 597 115 550 q 324 643 244 643 q 375 625 350 639 q 403 610 400 611 l 407 617 q 301 764 365 700 l 122 675 l 108 679 l 85 764 l 222 832 q 51 944 149 893 l 96 1022 l 114 1029 q 350 897 247 974 l 546 994 l 557 989 l 581 906 l 433 832 m 478 283 q 457 485 478 393 q 350 521 414 521 q 255 476 285 521 q 225 324 225 431 q 263 150 225 210 q 369 90 300 90 q 450 139 422 90 q 478 283 478 188 z "},"ď":{"ha":842,"x_min":35,"x_max":867,"o":"m 460 86 q 299 -11 325 -11 q 106 71 176 -11 q 35 293 35 153 q 80 479 35 397 q 204 608 125 561 q 385 654 283 654 q 456 651 431 654 l 456 826 q 442 887 456 869 q 396 904 429 904 q 375 903 385 904 q 363 900 365 901 l 372 985 q 540 1010 454 996 q 650 1031 625 1025 l 663 1007 q 632 738 644 981 q 619 185 619 494 q 631 143 619 158 q 663 128 643 128 q 692 133 678 128 q 715 144 706 139 q 726 151 724 150 l 747 122 q 724 85 743 114 q 674 26 704 57 q 608 -17 643 -6 q 469 83 485 -17 l 460 86 m 867 960 q 848 843 863 933 q 813 660 833 753 l 746 633 l 725 639 l 726 701 q 722 860 726 786 q 715 954 717 933 l 856 974 l 867 960 m 456 514 q 440 521 453 515 q 404 532 426 526 q 356 538 382 538 q 253 487 290 538 q 217 344 217 436 q 253 181 217 242 q 351 119 290 119 q 397 130 374 119 q 436 151 421 140 q 456 165 451 161 l 456 514 z "},"đ":{"ha":746,"x_min":35,"x_max":751,"o":"m 663 128 q 692 133 678 128 q 715 144 706 139 q 726 151 724 150 l 747 122 q 724 85 743 114 q 674 26 704 57 q 608 -17 643 -6 q 469 83 485 -17 l 460 86 q 299 -11 325 -11 q 106 71 176 -11 q 35 293 35 153 q 80 479 35 397 q 204 608 125 561 q 385 654 283 654 q 456 651 431 654 l 456 726 l 310 725 l 296 739 l 306 806 l 456 804 l 456 826 q 442 887 456 869 q 396 904 429 904 q 375 903 385 904 q 363 900 365 901 l 372 985 q 540 1010 454 996 q 650 1031 625 1025 l 663 1007 q 636 807 647 983 l 732 811 l 751 792 l 744 728 l 632 726 q 619 185 619 506 q 631 143 619 158 q 663 128 643 128 m 456 514 q 440 521 453 515 q 404 532 426 526 q 356 538 382 538 q 253 487 290 538 q 217 344 217 436 q 253 181 217 242 q 351 119 290 119 q 397 130 374 119 q 436 151 421 140 q 456 165 451 161 l 456 514 z "},"e":{"ha":643,"x_min":35,"x_max":599,"o":"m 215 313 q 265 170 219 221 q 388 119 310 119 q 464 128 426 119 q 525 148 501 138 q 556 161 549 158 l 565 157 l 589 86 q 545 57 589 85 q 448 6 501 29 q 350 -17 394 -17 q 119 69 203 -17 q 35 304 35 156 q 78 485 35 404 q 196 612 121 565 q 364 658 271 658 q 599 419 599 658 q 594 371 599 394 q 589 340 590 347 l 572 325 l 215 325 l 215 313 m 401 413 q 422 421 417 415 q 428 444 428 426 q 340 547 428 547 q 253 510 286 547 q 215 403 221 474 l 401 413 z "},"é":{"ha":643,"x_min":35,"x_max":599,"o":"m 215 313 q 265 170 219 221 q 388 119 310 119 q 464 128 426 119 q 525 148 501 138 q 556 161 549 158 l 565 157 l 589 86 q 545 57 589 85 q 448 6 501 29 q 350 -17 394 -17 q 119 69 203 -17 q 35 304 35 156 q 78 485 35 404 q 196 612 121 565 q 364 658 271 658 q 599 419 599 658 q 594 371 599 394 q 589 340 590 347 l 572 325 l 215 325 l 215 313 m 401 413 q 422 421 417 415 q 428 444 428 426 q 340 547 428 547 q 253 510 286 547 q 215 403 221 474 l 401 413 m 567 906 q 464 839 543 892 q 304 726 385 786 l 283 732 l 242 788 q 385 928 314 856 q 475 1024 456 1001 l 493 1022 l 568 925 l 567 906 z "},"ĕ":{"ha":643,"x_min":35,"x_max":599,"o":"m 215 313 q 265 170 219 221 q 388 119 310 119 q 464 128 426 119 q 525 148 501 138 q 556 161 549 158 l 565 157 l 589 86 q 545 57 589 85 q 448 6 501 29 q 350 -17 394 -17 q 119 69 203 -17 q 35 304 35 156 q 78 485 35 404 q 196 612 121 565 q 364 658 271 658 q 599 419 599 658 q 594 371 599 394 q 589 340 590 347 l 572 325 l 215 325 l 215 313 m 401 413 q 422 421 417 415 q 428 444 428 426 q 340 547 428 547 q 253 510 286 547 q 215 403 221 474 l 401 413 m 356 892 q 442 916 404 892 q 499 986 481 940 l 522 982 l 561 933 q 489 809 540 858 q 356 760 438 760 q 222 810 274 760 q 150 933 169 860 l 189 982 l 213 986 q 269 916 231 940 q 356 892 307 892 z "},"ě":{"ha":643,"x_min":35,"x_max":599,"o":"m 215 313 q 265 170 219 221 q 388 119 310 119 q 464 128 426 119 q 525 148 501 138 q 556 161 549 158 l 565 157 l 589 86 q 545 57 589 85 q 448 6 501 29 q 350 -17 394 -17 q 119 69 203 -17 q 35 304 35 156 q 78 485 35 404 q 196 612 121 565 q 364 658 271 658 q 599 419 599 658 q 594 371 599 394 q 589 340 590 347 l 572 325 l 215 325 l 215 313 m 401 413 q 422 421 417 415 q 428 444 428 426 q 340 547 428 547 q 253 510 286 547 q 215 403 221 474 l 401 413 m 179 1006 q 346 888 242 957 q 513 1006 458 963 l 533 1001 l 576 943 q 446 813 513 882 q 360 724 379 744 l 332 724 q 247 813 313 744 q 117 943 181 882 l 158 1001 l 179 1006 z "},"ê":{"ha":643,"x_min":35,"x_max":599,"o":"m 215 313 q 265 170 219 221 q 388 119 310 119 q 464 128 426 119 q 525 148 501 138 q 556 161 549 158 l 565 157 l 589 86 q 545 57 589 85 q 448 6 501 29 q 350 -17 394 -17 q 119 69 203 -17 q 35 304 35 156 q 78 485 35 404 q 196 612 121 565 q 364 658 271 658 q 599 419 599 658 q 594 371 599 394 q 589 340 590 347 l 572 325 l 215 325 l 215 313 m 401 413 q 422 421 417 415 q 428 444 428 426 q 340 547 428 547 q 253 510 286 547 q 215 403 221 474 l 401 413 m 124 800 q 251 926 186 858 q 335 1014 315 993 l 363 1014 q 447 926 382 993 q 574 800 511 858 l 533 743 l 511 738 q 378 833 454 782 l 349 853 q 186 738 240 781 l 164 743 l 124 800 z "},"ë":{"ha":643,"x_min":35,"x_max":599,"o":"m 215 313 q 265 170 219 221 q 388 119 310 119 q 464 128 426 119 q 525 148 501 138 q 556 161 549 158 l 565 157 l 589 86 q 545 57 589 85 q 448 6 501 29 q 350 -17 394 -17 q 119 69 203 -17 q 35 304 35 156 q 78 485 35 404 q 196 612 121 565 q 364 658 271 658 q 599 419 599 658 q 594 371 599 394 q 589 340 590 347 l 572 325 l 215 325 l 215 313 m 401 413 q 422 421 417 415 q 428 444 428 426 q 340 547 428 547 q 253 510 286 547 q 215 403 221 474 l 401 413 m 215 782 q 155 805 176 782 q 133 865 133 828 q 159 933 133 907 q 226 960 185 960 q 288 936 265 960 q 310 875 310 913 q 284 808 310 835 q 215 782 258 782 m 464 782 q 402 805 424 782 q 381 865 381 828 q 406 933 381 907 q 474 960 432 960 q 535 936 513 960 q 557 875 557 913 q 531 808 557 835 q 464 782 506 782 z "},"ė":{"ha":643,"x_min":35,"x_max":599,"o":"m 215 313 q 265 170 219 221 q 388 119 310 119 q 464 128 426 119 q 525 148 501 138 q 556 161 549 158 l 565 157 l 589 86 q 545 57 589 85 q 448 6 501 29 q 350 -17 394 -17 q 119 69 203 -17 q 35 304 35 156 q 78 485 35 404 q 196 612 121 565 q 364 658 271 658 q 599 419 599 658 q 594 371 599 394 q 589 340 590 347 l 572 325 l 215 325 l 215 313 m 401 413 q 422 421 417 415 q 428 444 428 426 q 340 547 428 547 q 253 510 286 547 q 215 403 221 474 l 401 413 m 340 797 q 267 824 293 797 q 242 897 242 851 q 272 977 242 946 q 353 1008 303 1008 q 424 981 399 1008 q 450 908 450 954 q 419 828 450 860 q 340 797 389 797 z "},"è":{"ha":643,"x_min":35,"x_max":599,"o":"m 215 313 q 265 170 219 221 q 388 119 310 119 q 464 128 426 119 q 525 148 501 138 q 556 161 549 158 l 565 157 l 589 86 q 545 57 589 85 q 448 6 501 29 q 350 -17 394 -17 q 119 69 203 -17 q 35 304 35 156 q 78 485 35 404 q 196 612 121 565 q 364 658 271 658 q 599 419 599 658 q 594 371 599 394 q 589 340 590 347 l 572 325 l 215 325 l 215 313 m 401 413 q 422 421 417 415 q 428 444 428 426 q 340 547 428 547 q 253 510 286 547 q 215 403 221 474 l 401 413 m 253 1022 q 343 928 272 1001 q 485 788 414 856 l 443 732 l 422 726 q 263 838 342 786 q 160 904 183 890 l 158 924 l 233 1021 l 253 1022 z "},"ē":{"ha":643,"x_min":35,"x_max":599,"o":"m 215 313 q 265 170 219 221 q 388 119 310 119 q 464 128 426 119 q 525 148 501 138 q 556 161 549 158 l 565 157 l 589 86 q 545 57 589 85 q 448 6 501 29 q 350 -17 394 -17 q 119 69 203 -17 q 35 304 35 156 q 78 485 35 404 q 196 612 121 565 q 364 658 271 658 q 599 419 599 658 q 594 371 599 394 q 589 340 590 347 l 572 325 l 215 325 l 215 313 m 401 413 q 422 421 417 415 q 428 444 428 426 q 340 547 428 547 q 253 510 286 547 q 215 403 221 474 l 401 413 m 346 807 l 153 806 l 138 821 l 157 926 l 371 925 q 472 928 414 925 q 547 933 529 932 l 558 914 l 542 808 l 346 807 z "},"ę":{"ha":643,"x_min":35,"x_max":613,"o":"m 613 -242 q 585 -265 607 -247 q 533 -303 564 -283 q 471 -335 501 -324 q 349 -301 394 -335 q 304 -207 304 -267 q 335 -115 304 -162 q 429 -1 365 -68 q 350 -17 386 -17 q 119 69 203 -17 q 35 304 35 156 q 78 485 35 404 q 196 612 121 565 q 364 658 271 658 q 599 419 599 658 q 594 371 599 394 q 589 340 590 347 l 572 325 l 215 325 l 215 313 q 265 170 219 221 q 388 119 310 119 q 464 128 426 119 q 525 148 501 138 q 556 161 549 158 l 565 157 l 589 86 q 451 -78 485 -31 q 417 -169 417 -126 q 436 -217 417 -199 q 486 -236 456 -236 q 531 -228 508 -236 q 567 -213 553 -221 q 586 -203 582 -206 l 613 -242 m 340 547 q 253 510 286 547 q 215 403 221 474 l 401 413 q 422 421 417 415 q 428 444 428 426 q 340 547 428 547 z "},"f":{"ha":475,"x_min":33,"x_max":644,"o":"m 129 631 l 129 642 q 172 848 129 760 q 294 983 215 936 q 479 1031 374 1031 q 556 1024 521 1031 q 613 1011 592 1018 q 639 1001 633 1004 l 644 979 q 627 937 640 969 q 597 856 614 904 l 579 851 q 555 868 575 856 q 503 892 535 881 q 433 904 471 904 q 331 855 361 904 q 299 689 300 806 l 299 625 q 415 626 368 625 q 476 629 463 628 l 482 622 l 467 528 q 410 529 454 528 q 297 532 365 531 l 293 157 q 307 108 293 124 q 351 93 321 93 q 406 94 382 93 q 436 96 429 96 l 440 89 l 428 -4 q 344 -2 404 -4 q 226 0 283 0 q 119 -3 178 0 q 42 -8 60 -7 l 51 78 q 110 102 92 83 q 129 157 129 121 l 129 481 q 110 523 128 513 q 39 536 92 533 l 33 544 l 43 617 l 129 631 z "},"g":{"ha":711,"x_min":57,"x_max":701,"o":"m 332 176 q 246 186 289 176 q 210 142 210 161 q 250 104 210 115 q 378 83 290 93 q 531 61 471 74 q 634 16 590 49 q 678 -76 678 -17 q 625 -202 678 -142 q 486 -299 572 -262 q 307 -336 400 -336 q 128 -283 196 -336 q 61 -140 61 -229 q 122 -93 81 -121 q 169 -60 163 -65 l 200 -39 l 200 -31 q 97 19 133 -18 q 57 113 60 56 q 171 206 108 167 l 171 215 q 94 291 121 242 q 67 403 67 340 q 104 534 67 475 q 207 626 142 593 q 354 660 272 660 q 439 651 389 660 q 499 646 481 646 q 649 681 542 649 l 693 692 l 701 685 l 683 578 q 582 569 650 572 l 576 561 q 631 424 631 503 q 592 297 631 354 q 486 208 554 240 q 332 176 418 176 m 356 271 q 432 305 406 271 q 458 404 458 339 q 428 514 458 474 q 342 554 397 554 q 240 419 240 554 q 270 311 240 351 q 356 271 300 271 m 361 -232 q 474 -203 429 -232 q 518 -129 518 -174 q 501 -94 518 -107 q 436 -72 483 -82 q 288 -49 389 -62 q 252 -90 268 -61 q 236 -146 236 -119 q 269 -209 236 -186 q 361 -232 301 -232 z "},"ğ":{"ha":711,"x_min":57,"x_max":701,"o":"m 332 176 q 246 186 289 176 q 210 142 210 161 q 250 104 210 115 q 378 83 290 93 q 531 61 471 74 q 634 16 590 49 q 678 -76 678 -17 q 625 -202 678 -142 q 486 -299 572 -262 q 307 -336 400 -336 q 128 -283 196 -336 q 61 -140 61 -229 q 122 -93 81 -121 q 169 -60 163 -65 l 200 -39 l 200 -31 q 97 19 133 -18 q 57 113 60 56 q 171 206 108 167 l 171 215 q 94 291 121 242 q 67 403 67 340 q 104 534 67 475 q 207 626 142 593 q 354 660 272 660 q 439 651 389 660 q 499 646 481 646 q 649 681 542 649 l 693 692 l 701 685 l 683 578 q 582 569 650 572 l 576 561 q 631 424 631 503 q 592 297 631 354 q 486 208 554 240 q 332 176 418 176 m 356 271 q 432 305 406 271 q 458 404 458 339 q 428 514 458 474 q 342 554 397 554 q 240 419 240 554 q 270 311 240 351 q 356 271 300 271 m 361 -232 q 474 -203 429 -232 q 518 -129 518 -174 q 501 -94 518 -107 q 436 -72 483 -82 q 288 -49 389 -62 q 252 -90 268 -61 q 236 -146 236 -119 q 269 -209 236 -186 q 361 -232 301 -232 m 356 892 q 442 916 404 892 q 499 986 481 940 l 522 982 l 561 933 q 489 809 540 858 q 356 760 438 760 q 222 810 274 760 q 150 933 169 860 l 189 982 l 213 986 q 269 916 231 940 q 356 892 307 892 z "},"ĝ":{"ha":711,"x_min":57,"x_max":701,"o":"m 332 176 q 246 186 289 176 q 210 142 210 161 q 250 104 210 115 q 378 83 290 93 q 531 61 471 74 q 634 16 590 49 q 678 -76 678 -17 q 625 -202 678 -142 q 486 -299 572 -262 q 307 -336 400 -336 q 128 -283 196 -336 q 61 -140 61 -229 q 122 -93 81 -121 q 169 -60 163 -65 l 200 -39 l 200 -31 q 97 19 133 -18 q 57 113 60 56 q 171 206 108 167 l 171 215 q 94 291 121 242 q 67 403 67 340 q 104 534 67 475 q 207 626 142 593 q 354 660 272 660 q 439 651 389 660 q 499 646 481 646 q 649 681 542 649 l 693 692 l 701 685 l 683 578 q 582 569 650 572 l 576 561 q 631 424 631 503 q 592 297 631 354 q 486 208 554 240 q 332 176 418 176 m 356 271 q 432 305 406 271 q 458 404 458 339 q 428 514 458 474 q 342 554 397 554 q 240 419 240 554 q 270 311 240 351 q 356 271 300 271 m 361 -232 q 474 -203 429 -232 q 518 -129 518 -174 q 501 -94 518 -107 q 436 -72 483 -82 q 288 -49 389 -62 q 252 -90 268 -61 q 236 -146 236 -119 q 269 -209 236 -186 q 361 -232 301 -232 m 150 799 q 277 924 213 857 q 361 1013 342 992 l 389 1013 q 473 924 408 992 q 600 799 538 857 l 560 742 l 538 736 q 404 832 481 781 l 375 851 q 213 736 267 779 l 190 742 l 150 799 z "},"ģ":{"ha":711,"x_min":57,"x_max":701,"o":"m 332 176 q 246 186 289 176 q 210 142 210 161 q 250 104 210 115 q 378 83 290 93 q 531 61 471 74 q 634 16 590 49 q 678 -76 678 -17 q 625 -202 678 -142 q 486 -299 572 -262 q 307 -336 400 -336 q 128 -283 196 -336 q 61 -140 61 -229 q 122 -93 81 -121 q 169 -60 163 -65 l 200 -39 l 200 -31 q 97 19 133 -18 q 57 113 60 56 q 171 206 108 167 l 171 215 q 94 291 121 242 q 67 403 67 340 q 104 534 67 475 q 207 626 142 593 q 354 660 272 660 q 439 651 389 660 q 499 646 481 646 q 649 681 542 649 l 693 692 l 701 685 l 683 578 q 582 569 650 572 l 576 561 q 631 424 631 503 q 592 297 631 354 q 486 208 554 240 q 332 176 418 176 m 356 271 q 432 305 406 271 q 458 404 458 339 q 428 514 458 474 q 342 554 397 554 q 240 419 240 554 q 270 311 240 351 q 356 271 300 271 m 361 -232 q 474 -203 429 -232 q 518 -129 518 -174 q 501 -94 518 -107 q 436 -72 483 -82 q 288 -49 389 -62 q 252 -90 268 -61 q 236 -146 236 -119 q 269 -209 236 -186 q 361 -232 301 -232 m 457 767 q 347 718 396 718 q 278 750 306 718 q 251 836 251 782 q 309 972 251 906 q 456 1089 367 1039 l 507 1047 l 507 1024 q 439 956 465 996 q 413 881 413 917 q 426 828 413 853 q 461 786 439 804 l 457 767 z "},"ġ":{"ha":711,"x_min":57,"x_max":701,"o":"m 332 176 q 246 186 289 176 q 210 142 210 161 q 250 104 210 115 q 378 83 290 93 q 531 61 471 74 q 634 16 590 49 q 678 -76 678 -17 q 625 -202 678 -142 q 486 -299 572 -262 q 307 -336 400 -336 q 128 -283 196 -336 q 61 -140 61 -229 q 122 -93 81 -121 q 169 -60 163 -65 l 200 -39 l 200 -31 q 97 19 133 -18 q 57 113 60 56 q 171 206 108 167 l 171 215 q 94 291 121 242 q 67 403 67 340 q 104 534 67 475 q 207 626 142 593 q 354 660 272 660 q 439 651 389 660 q 499 646 481 646 q 649 681 542 649 l 693 692 l 701 685 l 683 578 q 582 569 650 572 l 576 561 q 631 424 631 503 q 592 297 631 354 q 486 208 554 240 q 332 176 418 176 m 356 271 q 432 305 406 271 q 458 404 458 339 q 428 514 458 474 q 342 554 397 554 q 240 419 240 554 q 270 311 240 351 q 356 271 300 271 m 361 -232 q 474 -203 429 -232 q 518 -129 518 -174 q 501 -94 518 -107 q 436 -72 483 -82 q 288 -49 389 -62 q 252 -90 268 -61 q 236 -146 236 -119 q 269 -209 236 -186 q 361 -232 301 -232 m 350 797 q 277 824 303 797 q 251 897 251 851 q 282 977 251 946 q 363 1008 313 1008 q 434 981 408 1008 q 460 908 460 954 q 429 828 460 860 q 350 797 399 797 z "},"h":{"ha":756,"x_min":3,"x_max":724,"o":"m 33 82 q 85 102 71 86 q 100 157 100 118 l 100 829 q 88 889 100 872 q 40 906 75 906 l 8 906 l 3 913 l 11 986 q 181 1011 90 996 q 297 1031 271 1026 l 307 1004 q 283 864 293 988 q 268 538 274 740 q 367 617 310 576 q 451 658 425 658 q 607 612 553 658 q 661 478 661 565 q 649 331 661 443 q 635 151 635 192 q 645 101 635 117 q 679 86 656 86 l 721 88 l 724 82 l 710 -4 q 649 -1 693 -3 q 560 0 606 0 q 474 -5 526 0 q 404 -11 421 -10 l 411 76 q 460 102 446 85 q 475 154 475 119 l 481 392 q 393 513 482 513 q 267 456 339 513 q 264 149 264 360 q 273 100 264 114 q 304 86 282 86 q 326 88 315 86 q 339 89 336 89 l 343 81 l 329 -4 q 269 -1 314 -3 q 178 0 225 0 q 80 -1 124 0 q 22 -4 36 -3 l 33 82 z "},"ħ":{"ha":760,"x_min":-17,"x_max":728,"o":"m 714 -4 q 653 -1 697 -3 q 564 0 610 0 q 478 -5 531 0 q 408 -11 425 -10 l 415 76 q 465 102 450 85 q 479 154 479 119 l 485 392 q 397 513 486 513 q 271 456 343 513 q 268 149 268 360 q 277 100 268 114 q 308 86 286 86 q 330 88 319 86 q 343 89 340 89 l 347 81 l 333 -4 q 274 -1 318 -3 q 182 0 229 0 q 84 -1 128 0 q 26 -4 40 -3 l 38 82 q 90 102 75 86 q 104 157 104 118 l 104 717 l -3 715 l -17 728 l -7 794 l 104 793 l 104 829 q 92 889 104 872 q 44 906 79 906 l 13 906 l 7 913 l 15 986 q 185 1011 96 996 q 301 1031 275 1026 l 311 1004 q 283 794 294 983 q 356 797 325 796 q 397 800 388 799 l 417 781 l 410 717 l 279 717 q 272 538 274 613 q 372 617 314 576 q 456 658 429 658 q 611 612 557 658 q 665 478 665 565 q 653 331 665 443 q 639 151 639 192 q 649 101 639 117 q 683 86 660 86 l 725 88 l 728 82 l 714 -4 z "},"ĥ":{"ha":756,"x_min":-39,"x_max":724,"o":"m 33 82 q 85 102 71 86 q 100 157 100 118 l 100 829 q 88 889 100 872 q 40 906 75 906 l 8 906 l 3 913 l 11 986 q 181 1011 90 996 q 297 1031 271 1026 l 307 1004 q 283 864 293 988 q 268 538 274 740 q 367 617 310 576 q 451 658 425 658 q 607 612 553 658 q 661 478 661 565 q 649 331 661 443 q 635 151 635 192 q 645 101 635 117 q 679 86 656 86 l 721 88 l 724 82 l 710 -4 q 649 -1 693 -3 q 560 0 606 0 q 474 -5 526 0 q 404 -11 421 -10 l 411 76 q 460 102 446 85 q 475 154 475 119 l 481 392 q 393 513 482 513 q 267 456 339 513 q 264 149 264 360 q 273 100 264 114 q 304 86 282 86 q 326 88 315 86 q 339 89 336 89 l 343 81 l 329 -4 q 269 -1 314 -3 q 178 0 225 0 q 80 -1 124 0 q 22 -4 36 -3 l 33 82 m -39 1129 q 88 1255 24 1188 q 172 1343 153 1322 l 200 1343 q 284 1255 219 1322 q 411 1129 349 1188 l 371 1072 l 349 1067 q 215 1163 292 1111 l 186 1182 q 24 1067 78 1110 l 1 1072 l -39 1129 z "},"i":{"ha":407,"x_min":35,"x_max":376,"o":"m 207 797 q 134 824 160 797 q 108 897 108 850 q 139 978 108 947 q 219 1008 169 1008 q 290 982 264 1008 q 317 908 317 956 q 286 828 317 858 q 207 797 256 797 m 47 74 q 108 101 89 81 q 126 160 126 122 l 126 457 q 113 517 126 500 q 68 535 100 535 q 47 533 57 535 q 35 531 38 532 l 43 613 q 205 638 124 622 q 310 658 286 653 l 322 635 q 299 469 308 604 q 290 147 290 335 q 300 100 290 114 q 332 86 310 86 q 356 88 344 86 q 372 89 368 89 l 376 83 l 363 -4 q 301 -1 346 -3 q 208 0 257 0 q 110 -6 165 0 q 38 -15 54 -12 l 47 74 z "},"ı":{"ha":407,"x_min":35,"x_max":376,"o":"m 47 74 q 108 101 89 81 q 126 160 126 122 l 126 457 q 113 517 126 500 q 68 535 100 535 q 47 533 57 535 q 35 531 38 532 l 43 613 q 205 638 124 622 q 310 658 286 653 l 322 635 q 299 469 308 604 q 290 147 290 335 q 300 100 290 114 q 332 86 310 86 q 356 88 344 86 q 372 89 368 89 l 376 83 l 363 -4 q 301 -1 346 -3 q 208 0 257 0 q 110 -6 165 0 q 38 -15 54 -12 l 47 74 z "},"í":{"ha":407,"x_min":35,"x_max":419,"o":"m 47 74 q 108 101 89 81 q 126 160 126 122 l 126 457 q 113 517 126 500 q 68 535 100 535 q 47 533 57 535 q 35 531 38 532 l 43 613 q 205 638 124 622 q 310 658 286 653 l 322 635 q 299 469 308 604 q 290 147 290 335 q 300 100 290 114 q 332 86 310 86 q 356 88 344 86 q 372 89 368 89 l 376 83 l 363 -4 q 301 -1 346 -3 q 208 0 257 0 q 110 -6 165 0 q 38 -15 54 -12 l 47 74 m 418 906 q 315 839 394 892 q 156 726 236 786 l 135 732 l 93 788 q 236 928 165 856 q 326 1024 307 1001 l 344 1022 l 419 925 l 418 906 z "},"ĭ":{"ha":407,"x_min":1,"x_max":413,"o":"m 47 74 q 108 101 89 81 q 126 160 126 122 l 126 457 q 113 517 126 500 q 68 535 100 535 q 47 533 57 535 q 35 531 38 532 l 43 613 q 205 638 124 622 q 310 658 286 653 l 322 635 q 299 469 308 604 q 290 147 290 335 q 300 100 290 114 q 332 86 310 86 q 356 88 344 86 q 372 89 368 89 l 376 83 l 363 -4 q 301 -1 346 -3 q 208 0 257 0 q 110 -6 165 0 q 38 -15 54 -12 l 47 74 m 207 892 q 294 916 256 892 q 350 986 332 940 l 374 982 l 413 933 q 340 809 392 858 q 207 760 289 760 q 73 810 125 760 q 1 933 21 860 l 40 982 l 64 986 q 120 916 82 940 q 207 892 158 892 z "},"î":{"ha":407,"x_min":-11,"x_max":439,"o":"m 47 74 q 108 101 89 81 q 126 160 126 122 l 126 457 q 113 517 126 500 q 68 535 100 535 q 47 533 57 535 q 35 531 38 532 l 43 613 q 205 638 124 622 q 310 658 286 653 l 322 635 q 299 469 308 604 q 290 147 290 335 q 300 100 290 114 q 332 86 310 86 q 356 88 344 86 q 372 89 368 89 l 376 83 l 363 -4 q 301 -1 346 -3 q 208 0 257 0 q 110 -6 165 0 q 38 -15 54 -12 l 47 74 m -11 799 q 116 924 51 857 q 200 1013 181 992 l 228 1013 q 312 924 247 992 q 439 799 376 857 l 399 742 l 376 736 q 243 832 319 781 l 214 851 q 51 736 106 779 l 29 742 l -11 799 z "},"ï":{"ha":407,"x_min":-3,"x_max":421,"o":"m 47 74 q 108 101 89 81 q 126 160 126 122 l 126 457 q 113 517 126 500 q 68 535 100 535 q 47 533 57 535 q 35 531 38 532 l 43 613 q 205 638 124 622 q 310 658 286 653 l 322 635 q 299 469 308 604 q 290 147 290 335 q 300 100 290 114 q 332 86 310 86 q 356 88 344 86 q 372 89 368 89 l 376 83 l 363 -4 q 301 -1 346 -3 q 208 0 257 0 q 110 -6 165 0 q 38 -15 54 -12 l 47 74 m 79 782 q 19 805 40 782 q -3 865 -3 828 q 23 933 -3 907 q 90 960 49 960 q 151 936 129 960 q 174 875 174 913 q 148 808 174 835 q 79 782 122 782 m 328 782 q 266 805 288 782 q 244 865 244 828 q 270 933 244 907 q 338 960 296 960 q 399 936 376 960 q 421 875 421 913 q 395 808 421 835 q 328 782 369 782 z "},"ì":{"ha":407,"x_min":15,"x_max":376,"o":"m 47 74 q 108 101 89 81 q 126 160 126 122 l 126 457 q 113 517 126 500 q 68 535 100 535 q 47 533 57 535 q 35 531 38 532 l 43 613 q 205 638 124 622 q 310 658 286 653 l 322 635 q 299 469 308 604 q 290 147 290 335 q 300 100 290 114 q 332 86 310 86 q 356 88 344 86 q 372 89 368 89 l 376 83 l 363 -4 q 301 -1 346 -3 q 208 0 257 0 q 110 -6 165 0 q 38 -15 54 -12 l 47 74 m 110 1022 q 200 928 129 1001 q 342 788 271 856 l 300 732 l 279 726 q 119 838 199 786 q 17 904 40 890 l 15 924 l 90 1021 l 110 1022 z "},"ĳ":{"ha":789,"x_min":35,"x_max":715,"o":"m 207 797 q 134 824 160 797 q 108 897 108 850 q 139 978 108 947 q 219 1008 169 1008 q 290 982 264 1008 q 317 908 317 956 q 286 828 317 858 q 207 797 256 797 m 47 74 q 108 101 89 81 q 126 160 126 122 l 126 457 q 113 517 126 500 q 68 535 100 535 q 47 533 57 535 q 35 531 38 532 l 43 613 q 205 638 124 622 q 310 658 286 653 l 322 635 q 299 469 308 604 q 290 147 290 335 q 300 100 290 114 q 332 86 310 86 q 356 88 344 86 q 372 89 368 89 l 376 83 l 363 -4 q 301 -1 346 -3 q 208 0 257 0 q 110 -6 165 0 q 38 -15 54 -12 l 47 74 m 603 797 q 530 824 556 797 q 504 897 504 850 q 535 978 504 947 q 615 1008 565 1008 q 686 982 660 1008 q 713 908 713 956 q 682 828 713 858 q 603 797 651 797 m 419 -281 q 501 -153 479 -222 q 522 50 522 -83 l 522 457 q 511 518 522 501 q 471 535 500 535 q 444 533 456 535 q 429 531 433 532 l 438 611 q 593 637 508 621 q 703 658 678 653 l 715 635 q 686 -19 686 572 q 626 -201 686 -117 q 461 -339 567 -286 l 417 -297 l 419 -281 z "},"ī":{"ha":407,"x_min":11,"x_max":411,"o":"m 47 74 q 108 101 89 81 q 126 160 126 122 l 126 457 q 113 517 126 500 q 68 535 100 535 q 47 533 57 535 q 35 531 38 532 l 43 613 q 205 638 124 622 q 310 658 286 653 l 322 635 q 299 469 308 604 q 290 147 290 335 q 300 100 290 114 q 332 86 310 86 q 356 88 344 86 q 372 89 368 89 l 376 83 l 363 -4 q 301 -1 346 -3 q 208 0 257 0 q 110 -6 165 0 q 38 -15 54 -12 l 47 74 m 209 807 l 26 806 l 12 821 l 30 926 l 233 925 q 328 928 274 925 q 400 933 383 932 l 411 914 l 395 808 l 209 807 z "},"į":{"ha":407,"x_min":35,"x_max":393,"o":"m 207 797 q 134 824 160 797 q 108 897 108 850 q 139 978 108 947 q 219 1008 169 1008 q 290 982 264 1008 q 317 908 317 956 q 286 828 317 858 q 207 797 256 797 m 393 -237 q 366 -260 388 -243 q 313 -298 344 -278 q 251 -329 282 -318 q 130 -295 175 -329 q 85 -203 85 -261 q 115 -113 85 -160 q 207 0 144 -67 q 109 -6 164 0 q 38 -15 54 -12 l 47 74 q 108 101 89 81 q 126 160 126 122 l 126 457 q 113 517 126 500 q 68 535 100 535 q 47 533 57 535 q 35 531 38 532 l 43 613 q 205 638 124 622 q 310 658 286 653 l 322 635 q 299 469 308 604 q 290 147 290 335 q 300 100 290 114 q 332 86 310 86 q 356 88 344 86 q 372 89 368 89 l 376 83 l 363 -4 l 289 -1 q 217 -97 238 -62 q 197 -164 197 -132 q 217 -212 197 -193 q 267 -231 236 -231 q 311 -223 289 -231 q 348 -208 333 -215 q 367 -197 363 -200 l 393 -237 z "},"ĩ":{"ha":407,"x_min":-46,"x_max":454,"o":"m 47 74 q 108 101 89 81 q 126 160 126 122 l 126 457 q 113 517 126 500 q 68 535 100 535 q 47 533 57 535 q 35 531 38 532 l 43 613 q 205 638 124 622 q 310 658 286 653 l 322 635 q 299 469 308 604 q 290 147 290 335 q 300 100 290 114 q 332 86 310 86 q 356 88 344 86 q 372 89 368 89 l 376 83 l 363 -4 q 301 -1 346 -3 q 208 0 257 0 q 110 -6 165 0 q 38 -15 54 -12 l 47 74 m -46 814 l 63 954 l 86 960 q 134 952 103 960 q 197 936 165 944 q 241 924 204 935 q 294 914 278 914 q 328 931 308 914 q 365 967 349 949 q 385 992 381 986 l 399 992 l 454 940 l 454 926 l 346 785 l 322 779 q 211 804 294 779 q 167 816 204 806 q 114 826 131 826 q 79 809 99 826 q 44 773 60 792 q 25 749 29 754 l 10 749 l -46 799 l -46 814 z "},"j":{"ha":382,"x_min":10,"x_max":308,"o":"m 196 797 q 123 824 149 797 q 97 897 97 850 q 128 978 97 947 q 208 1008 158 1008 q 279 982 253 1008 q 306 908 306 956 q 275 828 306 858 q 196 797 244 797 m 13 -281 q 94 -153 72 -222 q 115 50 115 -83 l 115 457 q 104 518 115 501 q 64 535 93 535 q 38 533 49 535 q 22 531 26 532 l 31 611 q 186 637 101 621 q 296 658 271 653 l 308 635 q 279 -19 279 572 q 219 -201 279 -117 q 54 -339 160 -286 l 10 -297 l 13 -281 z "},"ȷ":{"ha":382,"x_min":10,"x_max":308,"o":"m 13 -281 q 94 -153 72 -222 q 115 50 115 -83 l 115 457 q 104 518 115 501 q 64 535 93 535 q 38 533 49 535 q 22 531 26 532 l 31 611 q 186 637 101 621 q 296 658 271 653 l 308 635 q 279 -19 279 572 q 219 -201 279 -117 q 54 -339 160 -286 l 10 -297 l 13 -281 z "},"ĵ":{"ha":382,"x_min":-33,"x_max":417,"o":"m 13 -281 q 94 -153 72 -222 q 115 50 115 -83 l 115 457 q 104 518 115 501 q 64 535 93 535 q 38 533 49 535 q 22 531 26 532 l 31 611 q 186 637 101 621 q 296 658 271 653 l 308 635 q 279 -19 279 572 q 219 -201 279 -117 q 54 -339 160 -286 l 10 -297 l 13 -281 m -33 800 q 94 926 29 858 q 178 1014 158 993 l 206 1014 q 290 926 225 993 q 417 800 354 858 l 376 743 l 354 738 q 221 833 297 782 l 192 853 q 29 738 83 781 l 7 743 l -33 800 z "},"k":{"ha":721,"x_min":4,"x_max":714,"o":"m 33 79 q 88 106 76 85 q 100 186 100 128 l 100 829 q 90 882 100 864 q 61 904 81 900 q 43 906 56 906 l 6 904 q 4 922 4 910 l 11 986 q 181 1011 90 996 q 297 1031 271 1026 l 307 1004 q 276 739 289 982 q 264 147 264 496 q 273 99 264 113 q 304 85 282 85 q 326 86 315 85 q 340 88 336 88 l 344 79 l 329 -6 q 268 -2 313 -4 q 178 0 224 0 q 85 -3 135 0 q 22 -8 36 -7 l 33 79 m 422 492 q 445 519 439 508 q 451 539 451 529 q 435 560 451 554 q 379 567 418 567 l 375 574 l 388 644 q 451 643 404 644 q 554 642 499 642 q 642 644 594 642 q 703 647 689 646 l 707 640 l 694 561 q 599 504 644 543 q 483 396 553 465 l 450 363 l 567 182 q 635 108 601 132 q 707 79 668 83 l 714 68 l 703 -1 q 658 -10 692 -4 q 601 -18 624 -17 q 540 -14 569 -19 q 478 19 504 -6 q 424 94 453 43 l 285 328 l 288 358 l 422 492 z "},"ķ":{"ha":721,"x_min":4,"x_max":714,"o":"m 33 79 q 88 106 76 85 q 100 186 100 128 l 100 829 q 90 882 100 864 q 61 904 81 900 q 43 906 56 906 l 6 904 q 4 922 4 910 l 11 986 q 181 1011 90 996 q 297 1031 271 1026 l 307 1004 q 276 739 289 982 q 264 147 264 496 q 273 99 264 113 q 304 85 282 85 q 326 86 315 85 q 340 88 336 88 l 344 79 l 329 -6 q 268 -2 313 -4 q 178 0 224 0 q 85 -3 135 0 q 22 -8 36 -7 l 33 79 m 422 492 q 445 519 439 508 q 451 539 451 529 q 435 560 451 554 q 379 567 418 567 l 375 574 l 388 644 q 451 643 404 644 q 554 642 499 642 q 642 644 594 642 q 703 647 689 646 l 707 640 l 694 561 q 599 504 644 543 q 483 396 553 465 l 450 363 l 567 182 q 635 108 601 132 q 707 79 668 83 l 714 68 l 703 -1 q 658 -10 692 -4 q 601 -18 624 -17 q 540 -14 569 -19 q 478 19 504 -6 q 424 94 453 43 l 285 328 l 288 358 l 422 492 m 275 -119 q 385 -71 336 -71 q 453 -103 426 -71 q 481 -190 481 -136 q 423 -326 481 -260 q 276 -442 365 -393 l 225 -400 l 225 -376 q 293 -309 267 -349 q 319 -235 319 -269 q 306 -181 319 -207 q 271 -139 293 -156 l 275 -119 z "},"ĸ":{"ha":746,"x_min":33,"x_max":740,"o":"m 53 79 q 112 108 97 85 q 126 186 126 131 l 126 469 q 110 529 126 514 q 42 544 93 544 l 33 553 l 42 628 q 194 644 114 633 q 297 658 274 654 l 308 640 q 290 147 290 568 q 300 99 290 113 q 332 85 310 85 q 352 86 342 85 q 367 88 363 88 l 371 79 l 356 -6 q 296 -2 340 -4 q 204 0 251 0 q 109 -3 161 0 q 42 -8 57 -7 l 53 79 m 449 492 q 472 519 465 508 q 478 539 478 529 q 461 560 478 554 q 406 567 444 567 l 401 574 l 414 644 q 478 643 431 644 q 581 642 525 642 q 668 644 621 642 q 729 647 715 646 l 733 640 l 721 561 q 625 504 671 543 q 510 396 579 465 l 476 363 l 593 182 q 661 108 628 132 q 733 79 694 83 l 740 68 l 729 -1 q 684 -10 718 -4 q 628 -18 650 -17 q 567 -14 596 -19 q 505 19 531 -6 q 450 94 479 43 l 311 328 l 314 358 l 449 492 z "},"l":{"ha":368,"x_min":4,"x_max":354,"o":"m 31 75 q 88 107 76 85 q 100 186 100 129 l 100 829 q 90 882 100 864 q 61 904 81 900 q 43 906 56 906 l 6 904 q 4 922 4 910 l 11 986 q 181 1011 90 996 q 297 1031 271 1026 l 307 1004 q 276 738 289 982 q 264 147 264 494 q 273 99 264 113 q 304 85 282 85 q 331 86 317 85 q 350 88 344 88 l 354 79 l 339 -4 q 275 -1 322 -3 q 179 0 228 0 q 86 -5 136 0 q 21 -12 36 -10 l 31 75 z "},"ĺ":{"ha":368,"x_min":4,"x_max":400,"o":"m 31 75 q 88 107 76 85 q 100 186 100 129 l 100 829 q 90 882 100 864 q 61 904 81 900 q 43 906 56 906 l 6 904 q 4 922 4 910 l 11 986 q 181 1011 90 996 q 297 1031 271 1026 l 307 1004 q 276 738 289 982 q 264 147 264 494 q 273 99 264 113 q 304 85 282 85 q 331 86 317 85 q 350 88 344 88 l 354 79 l 339 -4 q 275 -1 322 -3 q 179 0 228 0 q 86 -5 136 0 q 21 -12 36 -10 l 31 75 m 399 1238 q 296 1171 375 1224 q 136 1058 217 1118 l 115 1064 l 74 1119 q 217 1260 146 1188 q 307 1356 288 1333 l 325 1354 l 400 1257 l 399 1238 z "},"ľ":{"ha":506,"x_min":4,"x_max":506,"o":"m 31 75 q 88 107 76 85 q 100 186 100 129 l 100 829 q 90 882 100 864 q 61 904 81 900 q 43 906 56 906 l 6 904 q 4 922 4 910 l 11 986 q 181 1011 90 996 q 297 1031 271 1026 l 307 1004 q 276 738 289 982 q 264 147 264 494 q 273 99 264 113 q 304 85 282 85 q 331 86 317 85 q 350 88 344 88 l 354 79 l 339 -4 q 275 -1 322 -3 q 179 0 228 0 q 86 -5 136 0 q 21 -12 36 -10 l 31 75 m 506 947 q 487 831 501 921 q 451 647 472 740 l 385 621 l 364 626 l 365 688 q 360 847 365 772 q 354 942 356 921 l 494 961 l 506 947 z "},"ļ":{"ha":368,"x_min":4,"x_max":354,"o":"m 31 75 q 88 107 76 85 q 100 186 100 129 l 100 829 q 90 882 100 864 q 61 904 81 900 q 43 906 56 906 l 6 904 q 4 922 4 910 l 11 986 q 181 1011 90 996 q 297 1031 271 1026 l 307 1004 q 276 738 289 982 q 264 147 264 494 q 273 99 264 113 q 304 85 282 85 q 331 86 317 85 q 350 88 344 88 l 354 79 l 339 -4 q 275 -1 322 -3 q 179 0 228 0 q 86 -5 136 0 q 21 -12 36 -10 l 31 75 m 81 -119 q 190 -71 142 -71 q 259 -103 232 -71 q 286 -190 286 -136 q 228 -326 286 -260 q 82 -442 171 -393 l 31 -400 l 31 -376 q 99 -309 72 -349 q 125 -235 125 -269 q 112 -181 125 -207 q 76 -139 99 -156 l 81 -119 z "},"ŀ":{"ha":431,"x_min":4,"x_max":544,"o":"m 31 75 q 88 107 76 85 q 100 186 100 129 l 100 829 q 90 882 100 864 q 61 904 81 900 q 43 906 56 906 l 6 904 q 4 922 4 910 l 11 986 q 181 1011 90 996 q 297 1031 271 1026 l 307 1004 q 276 738 289 982 q 264 147 264 494 q 273 99 264 113 q 304 85 282 85 q 331 86 317 85 q 350 88 344 88 l 354 79 l 339 -4 q 275 -1 322 -3 q 179 0 228 0 q 86 -5 136 0 q 21 -12 36 -10 l 31 75 m 431 294 q 354 323 381 294 q 328 400 328 351 q 358 482 328 450 q 440 514 389 514 q 517 485 489 514 q 544 408 544 456 q 513 326 544 358 q 431 294 482 294 z "},"ł":{"ha":411,"x_min":-3,"x_max":410,"o":"m 324 85 q 350 86 336 85 q 369 88 364 88 l 374 79 l 358 -4 q 294 -1 342 -3 q 199 0 247 0 q 106 -5 156 0 q 40 -12 56 -10 l 50 75 q 108 107 96 85 q 119 186 119 129 l 119 426 l 36 383 l 22 386 l -3 472 l 119 536 l 119 829 q 110 882 119 864 q 81 904 100 900 q 63 906 75 906 l 25 904 q 24 922 24 910 l 31 986 q 201 1011 111 996 q 317 1031 290 1026 l 326 1004 q 306 883 315 989 q 290 607 296 776 l 374 651 l 385 646 l 410 561 l 288 497 q 283 147 283 338 q 292 99 283 113 q 324 85 301 85 z "},"m":{"ha":1165,"x_min":33,"x_max":1135,"o":"m 442 76 q 490 102 475 85 q 506 154 504 119 l 510 392 q 421 513 510 513 q 301 460 371 513 q 288 150 288 210 q 297 101 288 114 q 329 88 306 88 q 350 89 339 88 q 365 90 361 90 l 368 83 l 354 -4 q 296 -1 339 -3 q 207 0 253 0 q 103 -1 150 0 q 40 -4 56 -3 l 53 83 q 109 102 93 86 q 125 157 125 118 l 125 449 q 110 515 125 497 q 57 532 96 532 l 39 532 l 33 539 l 40 613 q 199 640 121 625 q 300 658 278 654 l 311 644 q 303 607 308 636 q 296 549 297 578 l 300 544 q 403 622 350 585 q 481 658 457 658 q 678 542 640 658 q 777 617 717 576 q 861 658 838 658 q 1016 611 961 658 q 1071 478 1071 564 q 1060 331 1071 456 q 1046 151 1046 192 q 1056 101 1046 115 q 1090 86 1065 86 l 1132 88 l 1135 82 l 1121 -4 q 1059 -1 1104 -3 q 968 0 1014 0 q 884 -3 935 0 q 817 -7 833 -6 l 826 82 q 872 102 858 86 q 886 154 885 118 l 890 392 q 801 513 890 513 q 685 463 750 513 l 667 151 q 676 101 667 115 q 708 86 686 86 l 747 88 l 750 82 l 736 -4 q 678 -1 721 -3 q 589 0 635 0 q 503 -5 556 0 q 433 -11 450 -10 l 442 76 z "},"n":{"ha":792,"x_min":33,"x_max":753,"o":"m 442 76 q 490 102 475 85 q 506 154 504 119 l 510 392 q 421 513 510 513 q 301 461 374 513 q 288 150 288 208 q 297 101 288 114 q 329 88 306 88 q 350 89 339 88 q 365 90 361 90 l 368 83 l 354 -4 q 296 -1 339 -3 q 207 0 253 0 q 109 -3 163 0 q 40 -8 56 -7 l 53 81 q 109 101 93 85 q 125 157 125 118 l 125 449 q 110 515 125 497 q 57 532 96 532 l 39 532 l 33 539 l 40 613 q 199 640 121 625 q 300 658 278 654 l 311 644 q 303 607 308 636 q 296 549 297 578 l 301 543 q 401 621 347 583 q 481 658 456 658 q 635 610 579 658 q 690 478 690 563 q 679 331 690 456 q 665 151 665 192 q 675 101 665 115 q 708 86 685 86 l 750 88 l 753 82 l 740 -4 q 679 -1 724 -3 q 589 0 635 0 q 503 -5 556 0 q 433 -11 450 -10 l 442 76 z "},"ń":{"ha":792,"x_min":33,"x_max":753,"o":"m 442 76 q 490 102 475 85 q 506 154 504 119 l 510 392 q 421 513 510 513 q 301 461 374 513 q 288 150 288 208 q 297 101 288 114 q 329 88 306 88 q 350 89 339 88 q 365 90 361 90 l 368 83 l 354 -4 q 296 -1 339 -3 q 207 0 253 0 q 109 -3 163 0 q 40 -8 56 -7 l 53 81 q 109 101 93 85 q 125 157 125 118 l 125 449 q 110 515 125 497 q 57 532 96 532 l 39 532 l 33 539 l 40 613 q 199 640 121 625 q 300 658 278 654 l 311 644 q 303 607 308 636 q 296 549 297 578 l 301 543 q 401 621 347 583 q 481 658 456 658 q 635 610 579 658 q 690 478 690 563 q 679 331 690 456 q 665 151 665 192 q 675 101 665 115 q 708 86 685 86 l 750 88 l 753 82 l 740 -4 q 679 -1 724 -3 q 589 0 635 0 q 503 -5 556 0 q 433 -11 450 -10 l 442 76 m 625 906 q 522 839 601 892 q 363 726 443 786 l 342 732 l 300 788 q 443 928 372 856 q 533 1024 514 1001 l 551 1022 l 626 925 l 625 906 z "},"ň":{"ha":792,"x_min":33,"x_max":753,"o":"m 442 76 q 490 102 475 85 q 506 154 504 119 l 510 392 q 421 513 510 513 q 301 461 374 513 q 288 150 288 208 q 297 101 288 114 q 329 88 306 88 q 350 89 339 88 q 365 90 361 90 l 368 83 l 354 -4 q 296 -1 339 -3 q 207 0 253 0 q 109 -3 163 0 q 40 -8 56 -7 l 53 81 q 109 101 93 85 q 125 157 125 118 l 125 449 q 110 515 125 497 q 57 532 96 532 l 39 532 l 33 539 l 40 613 q 199 640 121 625 q 300 658 278 654 l 311 644 q 303 607 308 636 q 296 549 297 578 l 301 543 q 401 621 347 583 q 481 658 456 658 q 635 610 579 658 q 690 478 690 563 q 679 331 690 456 q 665 151 665 192 q 675 101 665 115 q 708 86 685 86 l 750 88 l 753 82 l 740 -4 q 679 -1 724 -3 q 589 0 635 0 q 503 -5 556 0 q 433 -11 450 -10 l 442 76 m 249 1006 q 415 888 311 957 q 582 1006 528 963 l 603 1001 l 646 943 q 515 813 582 882 q 429 724 449 744 l 401 724 q 316 813 382 744 q 186 943 250 882 l 228 1001 l 249 1006 z "},"ņ":{"ha":792,"x_min":33,"x_max":753,"o":"m 442 76 q 490 102 475 85 q 506 154 504 119 l 510 392 q 421 513 510 513 q 301 461 374 513 q 288 150 288 208 q 297 101 288 114 q 329 88 306 88 q 350 89 339 88 q 365 90 361 90 l 368 83 l 354 -4 q 296 -1 339 -3 q 207 0 253 0 q 109 -3 163 0 q 40 -8 56 -7 l 53 81 q 109 101 93 85 q 125 157 125 118 l 125 449 q 110 515 125 497 q 57 532 96 532 l 39 532 l 33 539 l 40 613 q 199 640 121 625 q 300 658 278 654 l 311 644 q 303 607 308 636 q 296 549 297 578 l 301 543 q 401 621 347 583 q 481 658 456 658 q 635 610 579 658 q 690 478 690 563 q 679 331 690 456 q 665 151 665 192 q 675 101 665 115 q 708 86 685 86 l 750 88 l 753 82 l 740 -4 q 679 -1 724 -3 q 589 0 635 0 q 503 -5 556 0 q 433 -11 450 -10 l 442 76 m 293 -119 q 403 -71 354 -71 q 472 -103 444 -71 q 499 -190 499 -136 q 441 -326 499 -260 q 294 -442 383 -393 l 243 -400 l 243 -376 q 311 -309 285 -349 q 338 -235 338 -269 q 324 -181 338 -207 q 289 -139 311 -156 l 293 -119 z "},"ŋ":{"ha":761,"x_min":33,"x_max":690,"o":"m 481 658 q 635 610 579 658 q 690 478 690 563 l 668 129 q 631 -34 660 31 q 546 -142 603 -99 q 393 -214 489 -185 l 354 -157 l 357 -142 q 451 -67 419 -103 q 494 19 482 -31 q 508 154 507 69 l 510 392 q 421 513 510 513 q 301 461 371 513 q 288 150 288 218 q 297 101 288 114 q 329 88 306 88 q 350 89 339 88 q 365 90 361 90 l 368 83 l 354 -4 q 296 -1 339 -3 q 207 0 253 0 q 109 -3 163 0 q 40 -8 56 -7 l 53 81 q 109 101 93 85 q 125 157 125 118 l 125 449 q 110 515 125 497 q 57 532 96 532 l 39 532 l 33 539 l 40 613 q 199 640 121 625 q 300 658 278 654 l 311 644 q 303 607 308 636 q 296 549 297 578 l 301 543 q 400 622 344 585 q 481 658 456 658 z "},"ñ":{"ha":792,"x_min":33,"x_max":753,"o":"m 442 76 q 490 102 475 85 q 506 154 504 119 l 510 392 q 421 513 510 513 q 301 461 374 513 q 288 150 288 208 q 297 101 288 114 q 329 88 306 88 q 350 89 339 88 q 365 90 361 90 l 368 83 l 354 -4 q 296 -1 339 -3 q 207 0 253 0 q 109 -3 163 0 q 40 -8 56 -7 l 53 81 q 109 101 93 85 q 125 157 125 118 l 125 449 q 110 515 125 497 q 57 532 96 532 l 39 532 l 33 539 l 40 613 q 199 640 121 625 q 300 658 278 654 l 311 644 q 303 607 308 636 q 296 549 297 578 l 301 543 q 401 621 347 583 q 481 658 456 658 q 635 610 579 658 q 690 478 690 563 q 679 331 690 456 q 665 151 665 192 q 675 101 665 115 q 708 86 685 86 l 750 88 l 753 82 l 740 -4 q 679 -1 724 -3 q 589 0 635 0 q 503 -5 556 0 q 433 -11 450 -10 l 442 76 m 163 814 l 271 954 l 294 960 q 342 952 311 960 q 406 936 374 944 q 449 924 413 935 q 503 914 486 914 q 537 931 517 914 q 573 967 557 949 q 593 992 589 986 l 607 992 l 663 940 l 663 926 l 554 785 l 531 779 q 419 804 503 779 q 376 816 413 806 q 322 826 339 826 q 288 809 307 826 q 253 773 268 792 q 233 749 238 754 l 218 749 l 163 799 l 163 814 z "},"o":{"ha":699,"x_min":35,"x_max":663,"o":"m 328 -17 q 174 23 240 -17 q 71 135 107 63 q 35 301 35 207 q 77 488 35 407 q 196 613 119 568 q 371 658 272 658 q 584 573 506 658 q 663 340 663 488 q 621 154 663 235 q 503 28 579 74 q 328 -17 426 -17 m 357 90 q 475 276 475 90 q 440 473 475 407 q 338 539 404 539 q 249 492 279 539 q 219 353 219 444 q 255 156 219 222 q 357 90 290 90 z "},"ó":{"ha":699,"x_min":35,"x_max":663,"o":"m 328 -17 q 174 23 240 -17 q 71 135 107 63 q 35 301 35 207 q 77 488 35 407 q 196 613 119 568 q 371 658 272 658 q 584 573 506 658 q 663 340 663 488 q 621 154 663 235 q 503 28 579 74 q 328 -17 426 -17 m 357 90 q 475 276 475 90 q 440 473 475 407 q 338 539 404 539 q 249 492 279 539 q 219 353 219 444 q 255 156 219 222 q 357 90 290 90 m 568 906 q 465 839 544 892 q 306 726 386 786 l 285 732 l 243 788 q 386 928 315 856 q 476 1024 457 1001 l 494 1022 l 569 925 l 568 906 z "},"ŏ":{"ha":699,"x_min":35,"x_max":663,"o":"m 328 -17 q 174 23 240 -17 q 71 135 107 63 q 35 301 35 207 q 77 488 35 407 q 196 613 119 568 q 371 658 272 658 q 584 573 506 658 q 663 340 663 488 q 621 154 663 235 q 503 28 579 74 q 328 -17 426 -17 m 357 90 q 475 276 475 90 q 440 473 475 407 q 338 539 404 539 q 249 492 279 539 q 219 353 219 444 q 255 156 219 222 q 357 90 290 90 m 367 892 q 453 916 415 892 q 510 986 492 940 l 533 982 l 572 933 q 500 809 551 858 q 367 760 449 760 q 233 810 285 760 q 161 933 181 860 l 200 982 l 224 986 q 280 916 242 940 q 367 892 318 892 z "},"ô":{"ha":699,"x_min":35,"x_max":663,"o":"m 328 -17 q 174 23 240 -17 q 71 135 107 63 q 35 301 35 207 q 77 488 35 407 q 196 613 119 568 q 371 658 272 658 q 584 573 506 658 q 663 340 663 488 q 621 154 663 235 q 503 28 579 74 q 328 -17 426 -17 m 357 90 q 475 276 475 90 q 440 473 475 407 q 338 539 404 539 q 249 492 279 539 q 219 353 219 444 q 255 156 219 222 q 357 90 290 90 m 136 800 q 263 926 199 858 q 347 1014 328 993 l 375 1014 q 459 926 394 993 q 586 800 524 858 l 546 743 l 524 738 q 390 833 467 782 l 361 853 q 199 738 253 781 l 176 743 l 136 800 z "},"ö":{"ha":699,"x_min":35,"x_max":663,"o":"m 328 -17 q 174 23 240 -17 q 71 135 107 63 q 35 301 35 207 q 77 488 35 407 q 196 613 119 568 q 371 658 272 658 q 584 573 506 658 q 663 340 663 488 q 621 154 663 235 q 503 28 579 74 q 328 -17 426 -17 m 357 90 q 475 276 475 90 q 440 473 475 407 q 338 539 404 539 q 249 492 279 539 q 219 353 219 444 q 255 156 219 222 q 357 90 290 90 m 228 782 q 167 805 189 782 q 146 865 146 828 q 172 933 146 907 q 239 960 197 960 q 300 936 278 960 q 322 875 322 913 q 297 808 322 835 q 228 782 271 782 m 476 782 q 415 805 436 782 q 393 865 393 828 q 419 933 393 907 q 486 960 444 960 q 547 936 525 960 q 569 875 569 913 q 544 808 569 835 q 476 782 518 782 z "},"ò":{"ha":699,"x_min":35,"x_max":663,"o":"m 328 -17 q 174 23 240 -17 q 71 135 107 63 q 35 301 35 207 q 77 488 35 407 q 196 613 119 568 q 371 658 272 658 q 584 573 506 658 q 663 340 663 488 q 621 154 663 235 q 503 28 579 74 q 328 -17 426 -17 m 357 90 q 475 276 475 90 q 440 473 475 407 q 338 539 404 539 q 249 492 279 539 q 219 353 219 444 q 255 156 219 222 q 357 90 290 90 m 264 1022 q 354 928 283 1001 q 496 788 425 856 l 454 732 l 433 726 q 274 838 353 786 q 171 904 194 890 l 169 924 l 244 1021 l 264 1022 z "},"ő":{"ha":699,"x_min":35,"x_max":663,"o":"m 328 -17 q 174 23 240 -17 q 71 135 107 63 q 35 301 35 207 q 77 488 35 407 q 196 613 119 568 q 371 658 272 658 q 584 573 506 658 q 663 340 663 488 q 621 154 663 235 q 503 28 579 74 q 328 -17 426 -17 m 357 90 q 475 276 475 90 q 440 473 475 407 q 338 539 404 539 q 249 492 279 539 q 219 353 219 444 q 255 156 219 222 q 357 90 290 90 m 446 925 q 366 854 428 910 q 240 738 304 799 l 221 739 l 176 778 q 282 917 229 846 q 350 1008 335 988 l 365 1010 l 446 940 l 446 925 m 646 925 q 566 854 628 910 q 440 738 504 799 l 421 739 l 376 778 q 482 917 429 846 q 550 1008 535 988 l 565 1010 l 646 940 l 646 925 z "},"ō":{"ha":699,"x_min":35,"x_max":663,"o":"m 328 -17 q 174 23 240 -17 q 71 135 107 63 q 35 301 35 207 q 77 488 35 407 q 196 613 119 568 q 371 658 272 658 q 584 573 506 658 q 663 340 663 488 q 621 154 663 235 q 503 28 579 74 q 328 -17 426 -17 m 357 90 q 475 276 475 90 q 440 473 475 407 q 338 539 404 539 q 249 492 279 539 q 219 353 219 444 q 255 156 219 222 q 357 90 290 90 m 357 807 l 164 806 l 149 821 l 168 926 l 382 925 q 483 928 425 925 q 558 933 540 932 l 569 914 l 553 808 l 357 807 z "},"ø":{"ha":699,"x_min":33,"x_max":663,"o":"m 568 589 q 663 340 663 503 q 621 154 663 235 q 503 28 579 74 q 328 -17 426 -17 q 219 1 268 -17 l 121 -162 l 38 -122 l 33 -108 l 132 53 q 60 158 85 94 q 35 301 35 222 q 77 488 35 407 q 196 613 119 568 q 371 658 272 658 q 478 642 429 658 l 568 794 l 654 753 l 657 736 l 568 589 m 357 90 q 475 276 475 90 q 440 473 475 407 q 338 539 404 539 q 249 492 279 539 q 219 353 219 444 q 255 156 219 222 q 357 90 290 90 z "},"ǿ":{"ha":699,"x_min":33,"x_max":663,"o":"m 568 589 q 663 340 663 503 q 621 154 663 235 q 503 28 579 74 q 328 -17 426 -17 q 219 1 268 -17 l 121 -162 l 38 -122 l 33 -108 l 132 53 q 60 158 85 94 q 35 301 35 222 q 77 488 35 407 q 196 613 119 568 q 371 658 272 658 q 478 642 429 658 l 568 794 l 654 753 l 657 736 l 568 589 m 357 90 q 475 276 475 90 q 440 473 475 407 q 338 539 404 539 q 249 492 279 539 q 219 353 219 444 q 255 156 219 222 q 357 90 290 90 m 567 906 q 464 839 543 892 q 304 726 385 786 l 283 732 l 242 788 q 385 928 314 856 q 475 1024 456 1001 l 493 1022 l 568 925 l 567 906 z "},"õ":{"ha":699,"x_min":35,"x_max":663,"o":"m 328 -17 q 174 23 240 -17 q 71 135 107 63 q 35 301 35 207 q 77 488 35 407 q 196 613 119 568 q 371 658 272 658 q 584 573 506 658 q 663 340 663 488 q 621 154 663 235 q 503 28 579 74 q 328 -17 426 -17 m 357 90 q 475 276 475 90 q 440 473 475 407 q 338 539 404 539 q 249 492 279 539 q 219 353 219 444 q 255 156 219 222 q 357 90 290 90 m 106 814 l 214 954 l 238 960 q 285 952 254 960 q 349 936 317 944 q 392 924 356 935 q 446 914 429 914 q 480 931 460 914 q 516 967 500 949 q 536 992 532 986 l 550 992 l 606 940 l 606 926 l 497 785 l 474 779 q 363 804 446 779 q 319 816 356 806 q 265 826 282 826 q 231 809 250 826 q 196 773 211 792 q 176 749 181 754 l 161 749 l 106 799 l 106 814 z "},"œ":{"ha":1071,"x_min":35,"x_max":1028,"o":"m 815 119 q 892 128 854 119 q 953 148 929 138 q 983 161 976 158 l 993 157 l 1017 86 q 973 57 1017 85 q 876 6 929 29 q 778 -17 822 -17 q 640 16 704 -17 q 550 89 575 49 q 457 18 521 53 q 325 -17 393 -17 q 172 23 238 -17 q 71 135 107 63 q 35 301 35 207 q 76 488 35 407 q 194 613 118 568 q 367 658 269 658 q 493 624 433 658 q 574 553 553 589 q 666 624 603 590 q 792 658 729 658 q 970 597 913 658 q 1028 428 1028 536 q 1022 372 1028 397 q 1014 340 1017 347 l 997 325 l 643 325 l 643 311 q 693 169 649 219 q 815 119 738 119 m 768 547 q 681 510 714 547 q 643 401 649 472 l 829 413 q 850 420 844 414 q 856 444 856 426 q 768 547 856 547 m 353 90 q 468 276 468 90 q 433 473 468 407 q 335 539 399 539 q 249 492 278 539 q 219 353 219 444 q 254 156 219 222 q 353 90 289 90 z "},"p":{"ha":747,"x_min":31,"x_max":711,"o":"m 51 -242 q 103 -221 90 -237 q 115 -156 115 -204 l 122 57 l 122 449 q 108 515 122 497 q 54 532 93 532 l 36 532 l 31 539 l 38 613 q 194 640 117 625 q 294 658 272 654 l 307 644 q 300 609 306 636 q 292 557 294 582 l 297 550 q 387 626 350 599 q 436 653 424 653 q 581 615 518 653 q 677 507 643 576 q 711 347 711 438 q 664 158 711 240 q 533 31 617 76 q 343 -14 450 -14 q 308 -12 325 -14 q 285 -10 290 -11 l 285 -137 q 294 -214 285 -194 q 335 -233 303 -233 q 370 -232 356 -233 q 392 -231 385 -231 l 394 -236 l 379 -322 q 326 -321 350 -322 l 210 -319 q 108 -323 161 -319 q 40 -328 56 -326 l 51 -242 m 289 121 q 392 101 343 101 q 494 152 457 101 q 531 294 531 203 q 494 455 531 396 q 394 514 457 514 q 349 503 375 514 q 297 474 322 492 q 289 121 289 257 z "},"þ":{"ha":713,"x_min":-1,"x_max":679,"o":"m 94 829 q 81 890 94 872 q 35 907 68 907 q 13 906 22 907 q 0 904 4 904 q -1 913 -1 908 q -1 922 0 918 l 6 986 q 176 1012 86 997 q 292 1031 265 1026 l 301 1004 q 279 873 289 989 q 264 564 269 757 q 404 650 368 640 q 431 653 424 653 q 444 651 440 653 q 616 561 553 642 q 679 347 679 481 q 634 161 679 243 q 509 33 589 79 q 328 -14 429 -14 q 257 -10 285 -14 l 256 -115 q 266 -205 256 -176 q 307 -233 276 -233 q 344 -232 326 -233 q 369 -231 363 -231 l 372 -236 l 357 -322 q 315 -321 335 -322 l 206 -319 q 87 -322 149 -319 q 6 -328 25 -325 l 17 -242 q 63 -228 49 -239 q 83 -198 78 -218 q 89 -135 88 -178 l 94 104 l 94 829 m 258 124 q 302 108 272 115 q 360 101 332 101 q 462 152 425 101 q 499 294 499 203 q 461 460 499 399 q 363 521 424 521 q 313 508 342 521 q 261 475 283 496 l 258 124 z "},"q":{"ha":718,"x_min":35,"x_max":700,"o":"m 350 -239 q 413 -230 393 -236 q 441 -206 433 -224 q 450 -154 449 -189 l 456 82 q 299 -14 321 -14 q 106 69 178 -14 q 35 293 35 151 q 80 479 35 397 q 204 608 125 561 q 385 654 283 654 q 539 640 457 654 q 600 665 575 654 q 632 678 625 675 l 647 661 q 626 414 633 632 q 618 -140 618 196 q 622 -199 618 -181 q 633 -224 625 -217 q 661 -231 642 -231 q 685 -230 675 -231 q 697 -229 694 -229 l 700 -233 l 690 -319 l 513 -319 q 408 -322 457 -319 q 340 -325 358 -324 l 350 -239 m 456 514 q 440 521 453 515 q 404 532 426 526 q 356 538 382 538 q 253 487 290 538 q 217 344 217 436 q 253 179 217 240 q 351 118 290 118 q 397 128 374 118 q 436 150 421 139 q 456 165 451 161 l 456 514 z "},"r":{"ha":574,"x_min":38,"x_max":556,"o":"m 60 81 q 115 103 100 83 q 129 175 129 122 l 129 450 q 117 515 129 499 q 71 532 106 532 l 44 531 l 38 540 l 44 613 q 199 639 121 624 q 300 658 278 654 l 313 646 q 305 594 310 635 q 299 517 300 554 l 307 511 q 402 612 350 575 q 501 649 454 649 q 532 647 518 649 q 550 643 546 644 l 556 632 q 542 528 551 608 q 528 378 532 449 l 436 372 q 428 460 436 439 q 397 482 421 482 q 351 466 375 482 q 306 422 326 450 q 298 297 303 385 q 292 156 293 208 q 303 106 292 119 q 346 92 315 92 q 389 94 368 92 q 417 97 410 96 l 421 89 l 406 -6 q 333 -2 386 -4 q 224 0 279 0 q 117 -2 171 0 q 49 -6 64 -4 l 60 81 z "},"ŕ":{"ha":574,"x_min":38,"x_max":556,"o":"m 60 81 q 115 103 100 83 q 129 175 129 122 l 129 450 q 117 515 129 499 q 71 532 106 532 l 44 531 l 38 540 l 44 613 q 199 639 121 624 q 300 658 278 654 l 313 646 q 305 594 310 635 q 299 517 300 554 l 307 511 q 402 612 350 575 q 501 649 454 649 q 532 647 518 649 q 550 643 546 644 l 556 632 q 542 528 551 608 q 528 378 532 449 l 436 372 q 428 460 436 439 q 397 482 421 482 q 351 466 375 482 q 306 422 326 450 q 298 297 303 385 q 292 156 293 208 q 303 106 292 119 q 346 92 315 92 q 389 94 368 92 q 417 97 410 96 l 421 89 l 406 -6 q 333 -2 386 -4 q 224 0 279 0 q 117 -2 171 0 q 49 -6 64 -4 l 60 81 m 513 906 q 410 839 489 892 q 250 726 331 786 l 229 732 l 188 788 q 331 928 260 856 q 421 1024 401 1001 l 439 1022 l 514 925 l 513 906 z "},"ř":{"ha":574,"x_min":38,"x_max":556,"o":"m 60 81 q 115 103 100 83 q 129 175 129 122 l 129 450 q 117 515 129 499 q 71 532 106 532 l 44 531 l 38 540 l 44 613 q 199 639 121 624 q 300 658 278 654 l 313 646 q 305 594 310 635 q 299 517 300 554 l 307 511 q 402 612 350 575 q 501 649 454 649 q 532 647 518 649 q 550 643 546 644 l 556 632 q 542 528 551 608 q 528 378 532 449 l 436 372 q 428 460 436 439 q 397 482 421 482 q 351 466 375 482 q 306 422 326 450 q 298 297 303 385 q 292 156 293 208 q 303 106 292 119 q 346 92 315 92 q 389 94 368 92 q 417 97 410 96 l 421 89 l 406 -6 q 333 -2 386 -4 q 224 0 279 0 q 117 -2 171 0 q 49 -6 64 -4 l 60 81 m 136 1006 q 303 888 199 957 q 469 1006 415 963 l 490 1001 l 533 943 q 403 813 469 882 q 317 724 336 744 l 289 724 q 203 813 269 744 q 74 943 138 882 l 115 1001 l 136 1006 z "},"ŗ":{"ha":574,"x_min":38,"x_max":556,"o":"m 60 81 q 115 103 100 83 q 129 175 129 122 l 129 450 q 117 515 129 499 q 71 532 106 532 l 44 531 l 38 540 l 44 613 q 199 639 121 624 q 300 658 278 654 l 313 646 q 305 594 310 635 q 299 517 300 554 l 307 511 q 402 612 350 575 q 501 649 454 649 q 532 647 518 649 q 550 643 546 644 l 556 632 q 542 528 551 608 q 528 378 532 449 l 436 372 q 428 460 436 439 q 397 482 421 482 q 351 466 375 482 q 306 422 326 450 q 298 297 303 385 q 292 156 293 208 q 303 106 292 119 q 346 92 315 92 q 389 94 368 92 q 417 97 410 96 l 421 89 l 406 -6 q 333 -2 386 -4 q 224 0 279 0 q 117 -2 171 0 q 49 -6 64 -4 l 60 81 m 114 -119 q 224 -71 175 -71 q 292 -103 265 -71 q 319 -190 319 -136 q 262 -326 319 -260 q 115 -442 204 -393 l 64 -400 l 64 -376 q 132 -309 106 -349 q 158 -235 158 -269 q 145 -181 158 -207 q 110 -139 132 -156 l 114 -119 z "},"s":{"ha":568,"x_min":40,"x_max":521,"o":"m 235 -17 q 144 -8 185 -17 q 78 9 103 0 q 49 21 54 18 l 40 36 q 51 122 46 72 q 58 218 56 172 l 138 226 q 260 86 140 86 q 325 103 299 86 q 351 147 351 121 q 324 197 351 175 q 214 258 297 219 q 92 341 131 297 q 54 444 54 385 q 91 556 54 507 q 194 631 128 604 q 343 658 260 658 q 418 653 383 658 q 473 641 453 647 q 499 633 493 635 l 507 618 q 495 549 504 603 q 481 438 486 496 l 401 433 l 403 457 q 378 528 401 506 q 307 551 356 551 q 247 535 271 551 q 222 492 222 518 q 244 443 222 465 q 317 397 267 421 q 442 328 399 358 q 503 266 486 297 q 521 192 521 235 q 483 87 521 135 q 379 11 444 39 q 235 -17 314 -17 z "},"ś":{"ha":568,"x_min":40,"x_max":521,"o":"m 235 -17 q 144 -8 185 -17 q 78 9 103 0 q 49 21 54 18 l 40 36 q 51 122 46 72 q 58 218 56 172 l 138 226 q 260 86 140 86 q 325 103 299 86 q 351 147 351 121 q 324 197 351 175 q 214 258 297 219 q 92 341 131 297 q 54 444 54 385 q 91 556 54 507 q 194 631 128 604 q 343 658 260 658 q 418 653 383 658 q 473 641 453 647 q 499 633 493 635 l 507 618 q 495 549 504 603 q 481 438 486 496 l 401 433 l 403 457 q 378 528 401 506 q 307 551 356 551 q 247 535 271 551 q 222 492 222 518 q 244 443 222 465 q 317 397 267 421 q 442 328 399 358 q 503 266 486 297 q 521 192 521 235 q 483 87 521 135 q 379 11 444 39 q 235 -17 314 -17 m 510 906 q 407 839 486 892 q 247 726 328 786 l 226 732 l 185 788 q 328 928 257 856 q 418 1024 399 1001 l 436 1022 l 511 925 l 510 906 z "},"š":{"ha":568,"x_min":40,"x_max":531,"o":"m 235 -17 q 144 -8 185 -17 q 78 9 103 0 q 49 21 54 18 l 40 36 q 51 122 46 72 q 58 218 56 172 l 138 226 q 260 86 140 86 q 325 103 299 86 q 351 147 351 121 q 324 197 351 175 q 214 258 297 219 q 92 341 131 297 q 54 444 54 385 q 91 556 54 507 q 194 631 128 604 q 343 658 260 658 q 418 653 383 658 q 473 641 453 647 q 499 633 493 635 l 507 618 q 495 549 504 603 q 481 438 486 496 l 401 433 l 403 457 q 378 528 401 506 q 307 551 356 551 q 247 535 271 551 q 222 492 222 518 q 244 443 222 465 q 317 397 267 421 q 442 328 399 358 q 503 266 486 297 q 521 192 521 235 q 483 87 521 135 q 379 11 444 39 q 235 -17 314 -17 m 133 1006 q 300 888 196 957 q 467 1006 413 963 l 488 1001 l 531 943 q 400 813 467 882 q 314 724 333 744 l 286 724 q 201 813 267 744 q 71 943 135 882 l 113 1001 l 133 1006 z "},"ş":{"ha":568,"x_min":40,"x_max":521,"o":"m 521 192 q 457 59 521 115 q 293 -12 393 3 l 279 -61 q 376 -128 340 -97 q 413 -196 413 -158 q 386 -262 413 -232 q 317 -311 360 -293 q 228 -329 275 -329 q 153 -312 188 -329 q 119 -269 119 -296 q 171 -182 119 -243 l 183 -182 q 204 -240 185 -219 q 256 -260 224 -260 q 295 -248 279 -260 q 311 -218 311 -236 q 278 -172 311 -197 q 192 -119 244 -147 l 221 -17 q 137 -7 175 -15 q 76 10 99 1 q 49 21 54 18 l 40 36 q 51 122 46 72 q 58 218 56 172 l 138 226 q 260 86 140 86 q 325 103 299 86 q 351 147 351 121 q 324 197 351 175 q 214 258 297 219 q 92 341 131 297 q 54 444 54 385 q 91 556 54 507 q 194 631 128 604 q 343 658 260 658 q 418 653 383 658 q 473 641 453 647 q 499 633 493 635 l 507 618 q 495 549 504 603 q 481 438 486 496 l 401 433 l 403 457 q 378 528 401 506 q 307 551 356 551 q 247 535 271 551 q 222 492 222 518 q 244 443 222 465 q 317 397 267 421 q 442 328 399 358 q 503 266 486 297 q 521 192 521 235 z "},"ŝ":{"ha":568,"x_min":40,"x_max":521,"o":"m 235 -17 q 144 -8 185 -17 q 78 9 103 0 q 49 21 54 18 l 40 36 q 51 122 46 72 q 58 218 56 172 l 138 226 q 260 86 140 86 q 325 103 299 86 q 351 147 351 121 q 324 197 351 175 q 214 258 297 219 q 92 341 131 297 q 54 444 54 385 q 91 556 54 507 q 194 631 128 604 q 343 658 260 658 q 418 653 383 658 q 473 641 453 647 q 499 633 493 635 l 507 618 q 495 549 504 603 q 481 438 486 496 l 401 433 l 403 457 q 378 528 401 506 q 307 551 356 551 q 247 535 271 551 q 222 492 222 518 q 244 443 222 465 q 317 397 267 421 q 442 328 399 358 q 503 266 486 297 q 521 192 521 235 q 483 87 521 135 q 379 11 444 39 q 235 -17 314 -17 m 67 800 q 194 926 129 858 q 278 1014 258 993 l 306 1014 q 390 926 325 993 q 517 800 454 858 l 476 743 l 454 738 q 321 833 397 782 l 292 853 q 129 738 183 781 l 107 743 l 67 800 z "},"ș":{"ha":568,"x_min":40,"x_max":521,"o":"m 235 -17 q 144 -8 185 -17 q 78 9 103 0 q 49 21 54 18 l 40 36 q 51 122 46 72 q 58 218 56 172 l 138 226 q 260 86 140 86 q 325 103 299 86 q 351 147 351 121 q 324 197 351 175 q 214 258 297 219 q 92 341 131 297 q 54 444 54 385 q 91 556 54 507 q 194 631 128 604 q 343 658 260 658 q 418 653 383 658 q 473 641 453 647 q 499 633 493 635 l 507 618 q 495 549 504 603 q 481 438 486 496 l 401 433 l 403 457 q 378 528 401 506 q 307 551 356 551 q 247 535 271 551 q 222 492 222 518 q 244 443 222 465 q 317 397 267 421 q 442 328 399 358 q 503 266 486 297 q 521 192 521 235 q 483 87 521 135 q 379 11 444 39 q 235 -17 314 -17 m 182 -119 q 292 -71 243 -71 q 360 -103 333 -71 q 388 -190 388 -136 q 330 -326 388 -260 q 183 -442 272 -393 l 132 -400 l 132 -376 q 200 -309 174 -349 q 226 -235 226 -269 q 213 -181 226 -207 q 178 -139 200 -156 l 182 -119 z "},"ß":{"ha":889,"x_min":33,"x_max":882,"o":"m 419 65 q 440 144 421 94 q 479 218 460 193 l 507 217 q 542 128 510 161 q 625 94 574 94 q 683 119 660 94 q 707 179 707 143 q 677 243 707 217 q 586 304 647 269 q 497 360 531 336 q 440 422 464 385 q 415 511 415 460 q 438 590 415 556 q 501 668 460 625 q 556 732 538 706 q 574 789 574 758 q 535 872 574 840 q 433 904 496 904 q 331 856 361 904 q 299 689 300 807 l 293 157 q 340 93 293 93 q 374 94 361 93 q 392 94 388 94 l 396 89 l 383 -4 q 319 -2 365 -4 q 226 0 272 0 q 122 -3 182 0 q 42 -8 61 -6 l 51 78 q 113 102 97 83 q 129 167 129 121 l 129 481 q 108 524 126 513 q 39 536 90 535 l 33 544 l 43 617 l 129 631 q 222 925 129 819 q 479 1031 314 1031 q 614 1006 554 1031 q 707 935 674 981 q 740 835 740 890 q 718 749 740 785 q 651 665 696 713 q 601 606 618 631 q 585 553 585 582 q 613 497 585 521 q 700 439 640 472 q 794 380 758 406 q 856 313 831 354 q 882 217 882 272 q 845 99 882 153 q 744 15 808 46 q 604 -17 681 -17 q 480 7 533 -17 q 419 65 426 31 z "},"t":{"ha":461,"x_min":6,"x_max":446,"o":"m 94 463 q 79 522 94 507 q 19 538 64 536 l 6 547 l 14 617 q 121 675 68 642 q 208 734 174 708 q 251 767 243 760 l 290 746 q 284 705 289 738 q 275 625 279 672 l 438 629 l 443 622 l 429 528 l 267 532 q 258 232 258 411 q 278 147 258 174 q 346 121 299 121 q 399 130 371 121 q 428 140 428 139 l 446 94 q 407 60 438 86 q 340 8 376 33 q 285 -17 304 -17 q 140 24 186 -17 q 94 154 94 65 l 94 463 z "},"ŧ":{"ha":482,"x_min":8,"x_max":456,"o":"m 456 94 q 417 60 447 86 q 350 8 386 33 q 294 -17 314 -17 q 150 24 196 -17 q 104 154 104 65 l 104 314 l 22 313 l 8 326 l 18 393 l 104 392 l 104 463 q 89 521 104 506 q 29 538 74 536 l 15 547 l 24 617 q 131 675 78 642 q 218 734 183 708 q 261 767 253 760 l 300 746 q 294 705 299 738 q 285 625 289 672 l 447 629 l 453 622 l 439 528 l 276 532 q 269 392 271 453 q 361 394 321 393 q 415 397 401 396 l 435 378 l 429 315 l 268 314 l 268 232 q 288 147 268 174 q 356 121 308 121 q 409 130 381 121 q 438 140 438 139 l 456 94 z "},"ť":{"ha":608,"x_min":6,"x_max":619,"o":"m 94 463 q 79 522 94 507 q 19 538 64 536 l 6 547 l 14 617 q 121 675 68 642 q 208 734 174 708 q 251 767 243 760 l 290 746 q 284 705 289 738 q 275 625 279 672 l 422 629 l 428 622 l 414 528 l 267 532 q 258 232 258 411 q 278 147 258 174 q 346 121 299 121 q 399 130 371 121 q 428 140 428 139 l 446 94 q 407 60 438 86 q 340 8 376 33 q 285 -17 304 -17 q 140 24 186 -17 q 94 154 94 65 l 94 463 m 619 729 q 601 613 615 703 q 565 429 586 522 l 499 403 l 478 407 l 479 469 q 474 628 479 554 q 468 724 469 703 l 608 743 l 619 729 z "},"ţ":{"ha":461,"x_min":6,"x_max":446,"o":"m 275 -61 q 372 -128 336 -97 q 408 -196 408 -158 q 382 -262 408 -232 q 313 -311 356 -293 q 224 -329 271 -329 q 149 -312 183 -329 q 115 -269 115 -296 q 167 -182 115 -243 l 179 -182 q 200 -240 181 -219 q 251 -260 219 -260 q 291 -248 275 -260 q 307 -218 307 -236 q 274 -172 307 -197 q 188 -119 240 -147 l 218 -11 q 124 42 154 1 q 94 154 94 82 l 94 463 q 79 521 94 506 q 19 538 64 536 l 6 547 l 14 617 q 121 675 68 642 q 208 734 174 708 q 251 767 243 760 l 290 746 q 284 705 289 738 q 275 625 279 672 l 438 629 l 443 622 l 429 528 l 267 532 q 258 232 258 411 q 278 147 258 174 q 346 121 299 121 q 399 130 369 121 q 428 140 428 139 l 446 94 q 408 60 438 86 q 344 10 379 35 q 288 -17 308 -14 l 275 -61 z "},"ț":{"ha":461,"x_min":6,"x_max":446,"o":"m 94 463 q 79 522 94 507 q 19 538 64 536 l 6 547 l 14 617 q 121 675 68 642 q 208 734 174 708 q 251 767 243 760 l 290 746 q 284 705 289 738 q 275 625 279 672 l 438 629 l 443 622 l 429 528 l 267 532 q 258 232 258 411 q 278 147 258 174 q 346 121 299 121 q 399 130 371 121 q 428 140 428 139 l 446 94 q 407 60 438 86 q 340 8 376 33 q 285 -17 304 -17 q 140 24 186 -17 q 94 154 94 65 l 94 463 m 156 -119 q 265 -71 217 -71 q 334 -103 307 -71 q 361 -190 361 -136 q 303 -326 361 -260 q 157 -442 246 -393 l 106 -400 l 106 -376 q 174 -309 147 -349 q 200 -235 200 -269 q 187 -181 200 -207 q 151 -139 174 -156 l 156 -119 z "},"u":{"ha":760,"x_min":21,"x_max":764,"o":"m 103 467 q 92 519 103 503 q 56 535 81 535 q 33 533 43 535 q 21 531 24 532 l 29 613 q 181 638 103 624 q 283 658 260 653 l 297 635 q 271 484 282 601 q 260 243 260 367 q 281 158 260 186 q 346 131 301 131 q 399 144 372 131 q 464 182 425 157 l 464 465 q 452 519 464 506 q 404 533 440 532 l 381 532 l 392 613 q 547 638 467 624 q 651 656 628 651 l 665 632 q 639 470 650 600 q 628 185 628 340 q 641 143 628 158 q 676 128 654 128 q 706 133 692 128 q 730 144 721 139 q 742 151 739 150 l 764 122 q 735 83 758 113 q 681 22 713 53 q 618 -17 649 -10 q 476 90 492 -17 l 465 96 q 369 15 413 46 q 311 -15 326 -15 q 149 30 204 -15 q 93 160 93 75 l 103 467 z "},"ú":{"ha":760,"x_min":21,"x_max":764,"o":"m 103 467 q 92 519 103 503 q 56 535 81 535 q 33 533 43 535 q 21 531 24 532 l 29 613 q 181 638 103 624 q 283 658 260 653 l 297 635 q 271 484 282 601 q 260 243 260 367 q 281 158 260 186 q 346 131 301 131 q 399 144 372 131 q 464 182 425 157 l 464 465 q 452 519 464 506 q 404 533 440 532 l 381 532 l 392 613 q 547 638 467 624 q 651 656 628 651 l 665 632 q 639 470 650 600 q 628 185 628 340 q 641 143 628 158 q 676 128 654 128 q 706 133 692 128 q 730 144 721 139 q 742 151 739 150 l 764 122 q 735 83 758 113 q 681 22 713 53 q 618 -17 649 -10 q 476 90 492 -17 l 465 96 q 369 15 413 46 q 311 -15 326 -15 q 149 30 204 -15 q 93 160 93 75 l 103 467 m 576 906 q 474 839 553 892 q 314 726 394 786 l 293 732 l 251 788 q 394 928 324 856 q 485 1024 465 1001 l 503 1022 l 578 925 l 576 906 z "},"ŭ":{"ha":760,"x_min":21,"x_max":764,"o":"m 103 467 q 92 519 103 503 q 56 535 81 535 q 33 533 43 535 q 21 531 24 532 l 29 613 q 181 638 103 624 q 283 658 260 653 l 297 635 q 271 484 282 601 q 260 243 260 367 q 281 158 260 186 q 346 131 301 131 q 399 144 372 131 q 464 182 425 157 l 464 465 q 452 519 464 506 q 404 533 440 532 l 381 532 l 392 613 q 547 638 467 624 q 651 656 628 651 l 665 632 q 639 470 650 600 q 628 185 628 340 q 641 143 628 158 q 676 128 654 128 q 706 133 692 128 q 730 144 721 139 q 742 151 739 150 l 764 122 q 735 83 758 113 q 681 22 713 53 q 618 -17 649 -10 q 476 90 492 -17 l 465 96 q 369 15 413 46 q 311 -15 326 -15 q 149 30 204 -15 q 93 160 93 75 l 103 467 m 378 892 q 465 916 426 892 q 521 986 503 940 l 544 982 l 583 933 q 511 809 563 858 q 378 760 460 760 q 244 810 296 760 q 172 933 192 860 l 211 982 l 235 986 q 291 916 253 940 q 378 892 329 892 z "},"û":{"ha":760,"x_min":21,"x_max":764,"o":"m 103 467 q 92 519 103 503 q 56 535 81 535 q 33 533 43 535 q 21 531 24 532 l 29 613 q 181 638 103 624 q 283 658 260 653 l 297 635 q 271 484 282 601 q 260 243 260 367 q 281 158 260 186 q 346 131 301 131 q 399 144 372 131 q 464 182 425 157 l 464 465 q 452 519 464 506 q 404 533 440 532 l 381 532 l 392 613 q 547 638 467 624 q 651 656 628 651 l 665 632 q 639 470 650 600 q 628 185 628 340 q 641 143 628 158 q 676 128 654 128 q 706 133 692 128 q 730 144 721 139 q 742 151 739 150 l 764 122 q 735 83 758 113 q 681 22 713 53 q 618 -17 649 -10 q 476 90 492 -17 l 465 96 q 369 15 413 46 q 311 -15 326 -15 q 149 30 204 -15 q 93 160 93 75 l 103 467 m 144 800 q 272 926 207 858 q 356 1014 336 993 l 383 1014 q 467 926 403 993 q 594 800 532 858 l 554 743 l 532 738 q 399 833 475 782 l 369 853 q 207 738 261 781 l 185 743 l 144 800 z "},"ü":{"ha":760,"x_min":21,"x_max":764,"o":"m 103 467 q 92 519 103 503 q 56 535 81 535 q 33 533 43 535 q 21 531 24 532 l 29 613 q 181 638 103 624 q 283 658 260 653 l 297 635 q 271 484 282 601 q 260 243 260 367 q 281 158 260 186 q 346 131 301 131 q 399 144 372 131 q 464 182 425 157 l 464 465 q 452 519 464 506 q 404 533 440 532 l 381 532 l 392 613 q 547 638 467 624 q 651 656 628 651 l 665 632 q 639 470 650 600 q 628 185 628 340 q 641 143 628 158 q 676 128 654 128 q 706 133 692 128 q 730 144 721 139 q 742 151 739 150 l 764 122 q 735 83 758 113 q 681 22 713 53 q 618 -17 649 -10 q 476 90 492 -17 l 465 96 q 369 15 413 46 q 311 -15 326 -15 q 149 30 204 -15 q 93 160 93 75 l 103 467 m 236 782 q 176 805 197 782 q 154 865 154 828 q 180 933 154 907 q 247 960 206 960 q 308 936 286 960 q 331 875 331 913 q 305 808 331 835 q 236 782 279 782 m 485 782 q 423 805 444 782 q 401 865 401 828 q 427 933 401 907 q 494 960 453 960 q 556 936 533 960 q 578 875 578 913 q 552 808 578 835 q 485 782 526 782 z "},"ù":{"ha":760,"x_min":21,"x_max":764,"o":"m 103 467 q 92 519 103 503 q 56 535 81 535 q 33 533 43 535 q 21 531 24 532 l 29 613 q 181 638 103 624 q 283 658 260 653 l 297 635 q 271 484 282 601 q 260 243 260 367 q 281 158 260 186 q 346 131 301 131 q 399 144 372 131 q 464 182 425 157 l 464 465 q 452 519 464 506 q 404 533 440 532 l 381 532 l 392 613 q 547 638 467 624 q 651 656 628 651 l 665 632 q 639 470 650 600 q 628 185 628 340 q 641 143 628 158 q 676 128 654 128 q 706 133 692 128 q 730 144 721 139 q 742 151 739 150 l 764 122 q 735 83 758 113 q 681 22 713 53 q 618 -17 649 -10 q 476 90 492 -17 l 465 96 q 369 15 413 46 q 311 -15 326 -15 q 149 30 204 -15 q 93 160 93 75 l 103 467 m 274 1022 q 364 928 293 1001 q 506 788 435 856 l 464 732 l 443 726 q 283 838 363 786 q 181 904 204 890 l 179 924 l 254 1021 l 274 1022 z "},"ű":{"ha":760,"x_min":21,"x_max":764,"o":"m 103 467 q 92 519 103 503 q 56 535 81 535 q 33 533 43 535 q 21 531 24 532 l 29 613 q 181 638 103 624 q 283 658 260 653 l 297 635 q 271 484 282 601 q 260 243 260 367 q 281 158 260 186 q 346 131 301 131 q 399 144 372 131 q 464 182 425 157 l 464 465 q 452 519 464 506 q 404 533 440 532 l 381 532 l 392 613 q 547 638 467 624 q 651 656 628 651 l 665 632 q 639 470 650 600 q 628 185 628 340 q 641 143 628 158 q 676 128 654 128 q 706 133 692 128 q 730 144 721 139 q 742 151 739 150 l 764 122 q 735 83 758 113 q 681 22 713 53 q 618 -17 649 -10 q 476 90 492 -17 l 465 96 q 369 15 413 46 q 311 -15 326 -15 q 149 30 204 -15 q 93 160 93 75 l 103 467 m 454 925 q 374 854 436 910 q 249 738 313 799 l 229 739 l 185 778 q 290 917 238 846 q 358 1008 343 988 l 374 1010 l 454 940 l 454 925 m 654 925 q 574 854 636 910 q 449 738 513 799 l 429 739 l 385 778 q 490 917 438 846 q 558 1008 543 988 l 574 1010 l 654 940 l 654 925 z "},"ū":{"ha":760,"x_min":21,"x_max":764,"o":"m 103 467 q 92 519 103 503 q 56 535 81 535 q 33 533 43 535 q 21 531 24 532 l 29 613 q 181 638 103 624 q 283 658 260 653 l 297 635 q 271 484 282 601 q 260 243 260 367 q 281 158 260 186 q 346 131 301 131 q 399 144 372 131 q 464 182 425 157 l 464 465 q 452 519 464 506 q 404 533 440 532 l 381 532 l 392 613 q 547 638 467 624 q 651 656 628 651 l 665 632 q 639 470 650 600 q 628 185 628 340 q 641 143 628 158 q 676 128 654 128 q 706 133 692 128 q 730 144 721 139 q 742 151 739 150 l 764 122 q 735 83 758 113 q 681 22 713 53 q 618 -17 649 -10 q 476 90 492 -17 l 465 96 q 369 15 413 46 q 311 -15 326 -15 q 149 30 204 -15 q 93 160 93 75 l 103 467 m 367 807 l 174 806 l 158 821 l 178 926 l 392 925 q 492 928 435 925 q 568 933 550 932 l 579 914 l 563 808 l 367 807 z "},"ų":{"ha":760,"x_min":21,"x_max":778,"o":"m 778 -242 q 751 -265 772 -247 q 698 -303 729 -283 q 636 -335 667 -324 q 514 -301 558 -335 q 469 -207 469 -267 q 491 -126 469 -167 q 574 -12 513 -85 q 476 90 489 4 l 465 96 q 368 15 410 44 q 311 -15 326 -15 q 149 30 204 -15 q 93 160 93 75 l 103 467 q 92 519 103 503 q 56 535 81 535 q 33 533 43 535 q 21 531 24 532 l 29 613 q 181 638 103 624 q 283 658 260 653 l 297 635 q 271 483 282 600 q 260 243 260 365 q 281 158 260 186 q 346 131 301 131 q 395 142 368 131 q 464 182 422 154 l 464 465 q 452 517 464 504 q 404 533 440 531 l 381 532 l 392 613 q 547 638 467 624 q 651 656 628 651 l 665 632 q 639 470 650 600 q 628 185 628 340 q 641 143 628 158 q 676 128 654 128 q 706 133 692 128 q 730 144 721 139 q 742 151 739 150 l 768 118 l 763 113 q 649 -23 686 25 q 597 -103 613 -71 q 582 -164 582 -135 q 601 -216 582 -196 q 651 -236 621 -236 q 696 -228 674 -236 q 733 -213 718 -221 q 751 -203 747 -206 l 778 -242 z "},"ů":{"ha":760,"x_min":21,"x_max":764,"o":"m 103 467 q 92 519 103 503 q 56 535 81 535 q 33 533 43 535 q 21 531 24 532 l 29 613 q 181 638 103 624 q 283 658 260 653 l 297 635 q 271 484 282 601 q 260 243 260 367 q 281 158 260 186 q 346 131 301 131 q 399 144 372 131 q 464 182 425 157 l 464 465 q 452 519 464 506 q 404 533 440 532 l 381 532 l 392 613 q 547 638 467 624 q 651 656 628 651 l 665 632 q 639 470 650 600 q 628 185 628 340 q 641 143 628 158 q 676 128 654 128 q 706 133 692 128 q 730 144 721 139 q 742 151 739 150 l 764 122 q 735 83 758 113 q 681 22 713 53 q 618 -17 649 -10 q 476 90 492 -17 l 465 96 q 369 15 413 46 q 311 -15 326 -15 q 149 30 204 -15 q 93 160 93 75 l 103 467 m 363 754 q 272 789 304 754 q 240 881 240 824 q 277 975 240 938 q 374 1013 314 1013 q 467 978 436 1013 q 499 893 499 943 q 462 795 499 836 q 363 754 425 754 m 372 828 q 411 839 394 828 q 428 879 428 850 q 411 921 428 906 q 365 936 394 936 q 324 923 338 936 q 310 888 310 910 q 329 842 310 857 q 372 828 349 828 z "},"ũ":{"ha":760,"x_min":21,"x_max":764,"o":"m 103 467 q 92 519 103 503 q 56 535 81 535 q 33 533 43 535 q 21 531 24 532 l 29 613 q 181 638 103 624 q 283 658 260 653 l 297 635 q 271 484 282 601 q 260 243 260 367 q 281 158 260 186 q 346 131 301 131 q 399 144 372 131 q 464 182 425 157 l 464 465 q 452 519 464 506 q 404 533 440 532 l 381 532 l 392 613 q 547 638 467 624 q 651 656 628 651 l 665 632 q 639 470 650 600 q 628 185 628 340 q 641 143 628 158 q 676 128 654 128 q 706 133 692 128 q 730 144 721 139 q 742 151 739 150 l 764 122 q 735 83 758 113 q 681 22 713 53 q 618 -17 649 -10 q 476 90 492 -17 l 465 96 q 369 15 413 46 q 311 -15 326 -15 q 149 30 204 -15 q 93 160 93 75 l 103 467 m 125 814 l 233 954 l 257 960 q 305 952 274 960 q 368 936 336 944 q 412 924 375 935 q 465 914 449 914 q 499 931 479 914 q 535 967 519 949 q 556 992 551 986 l 569 992 l 625 940 l 625 926 l 517 785 l 493 779 q 382 804 465 779 q 338 816 375 806 q 285 826 301 826 q 250 809 269 826 q 215 773 231 792 q 196 749 200 754 l 181 749 l 125 799 l 125 814 z "},"v":{"ha":650,"x_min":-17,"x_max":661,"o":"m 461 528 q 452 550 461 544 q 417 556 443 556 l 378 556 l 372 565 l 383 643 l 535 642 l 661 643 l 650 557 q 606 538 619 553 q 574 476 593 524 l 400 0 l 217 -21 q 146 233 199 44 q 72 488 93 422 q -14 557 51 556 l -17 564 l -7 643 l 125 642 q 240 646 182 642 q 315 651 299 650 l 318 644 l 307 563 q 251 552 264 558 q 239 526 239 546 q 274 356 239 503 q 324 156 310 208 l 338 156 q 461 528 461 492 z "},"w":{"ha":1028,"x_min":-12,"x_max":1035,"o":"m 836 528 q 827 551 836 544 q 793 557 818 557 l 756 557 l 750 565 l 761 644 q 817 643 775 644 q 908 642 858 642 l 1035 643 l 1024 557 q 980 538 993 553 q 949 476 967 524 l 778 0 l 603 -21 q 546 211 596 19 l 517 324 l 501 324 l 397 0 l 217 -21 q 148 233 200 44 q 76 488 96 422 q 44 539 65 522 q -10 557 24 556 l -12 564 l -3 643 l 128 642 q 242 646 185 642 q 315 651 299 650 l 318 644 l 307 563 q 252 552 264 558 q 240 526 240 546 q 275 356 240 503 q 324 156 310 208 l 338 156 q 397 328 361 217 q 450 499 433 439 q 427 543 443 531 q 374 556 411 556 l 369 564 l 382 643 l 510 642 q 622 645 567 642 q 694 650 678 649 l 697 643 l 685 561 q 631 551 642 557 q 619 526 619 544 q 654 356 619 503 q 701 156 689 208 l 715 156 q 836 528 836 490 z "},"ẃ":{"ha":1028,"x_min":-12,"x_max":1035,"o":"m 836 528 q 827 551 836 544 q 793 557 818 557 l 756 557 l 750 565 l 761 644 q 817 643 775 644 q 908 642 858 642 l 1035 643 l 1024 557 q 980 538 993 553 q 949 476 967 524 l 778 0 l 603 -21 q 546 211 596 19 l 517 324 l 501 324 l 397 0 l 217 -21 q 148 233 200 44 q 76 488 96 422 q 44 539 65 522 q -10 557 24 556 l -12 564 l -3 643 l 128 642 q 242 646 185 642 q 315 651 299 650 l 318 644 l 307 563 q 252 552 264 558 q 240 526 240 546 q 275 356 240 503 q 324 156 310 208 l 338 156 q 397 328 361 217 q 450 499 433 439 q 427 543 443 531 q 374 556 411 556 l 369 564 l 382 643 l 510 642 q 622 645 567 642 q 694 650 678 649 l 697 643 l 685 561 q 631 551 642 557 q 619 526 619 544 q 654 356 619 503 q 701 156 689 208 l 715 156 q 836 528 836 490 m 729 906 q 626 839 706 892 q 467 726 547 786 l 446 732 l 404 788 q 547 928 476 856 q 638 1024 618 1001 l 656 1022 l 731 925 l 729 906 z "},"ŵ":{"ha":1028,"x_min":-12,"x_max":1035,"o":"m 836 528 q 827 551 836 544 q 793 557 818 557 l 756 557 l 750 565 l 761 644 q 817 643 775 644 q 908 642 858 642 l 1035 643 l 1024 557 q 980 538 993 553 q 949 476 967 524 l 778 0 l 603 -21 q 546 211 596 19 l 517 324 l 501 324 l 397 0 l 217 -21 q 148 233 200 44 q 76 488 96 422 q 44 539 65 522 q -10 557 24 556 l -12 564 l -3 643 l 128 642 q 242 646 185 642 q 315 651 299 650 l 318 644 l 307 563 q 252 552 264 558 q 240 526 240 546 q 275 356 240 503 q 324 156 310 208 l 338 156 q 397 328 361 217 q 450 499 433 439 q 427 543 443 531 q 374 556 411 556 l 369 564 l 382 643 l 510 642 q 622 645 567 642 q 694 650 678 649 l 697 643 l 685 561 q 631 551 642 557 q 619 526 619 544 q 654 356 619 503 q 701 156 689 208 l 715 156 q 836 528 836 490 m 297 800 q 424 926 360 858 q 508 1014 489 993 l 536 1014 q 620 926 556 993 q 747 800 685 858 l 707 743 l 685 738 q 551 833 628 782 l 522 853 q 360 738 414 781 l 338 743 l 297 800 z "},"ẅ":{"ha":1028,"x_min":-12,"x_max":1035,"o":"m 836 528 q 827 551 836 544 q 793 557 818 557 l 756 557 l 750 565 l 761 644 q 817 643 775 644 q 908 642 858 642 l 1035 643 l 1024 557 q 980 538 993 553 q 949 476 967 524 l 778 0 l 603 -21 q 546 211 596 19 l 517 324 l 501 324 l 397 0 l 217 -21 q 148 233 200 44 q 76 488 96 422 q 44 539 65 522 q -10 557 24 556 l -12 564 l -3 643 l 128 642 q 242 646 185 642 q 315 651 299 650 l 318 644 l 307 563 q 252 552 264 558 q 240 526 240 546 q 275 356 240 503 q 324 156 310 208 l 338 156 q 397 328 361 217 q 450 499 433 439 q 427 543 443 531 q 374 556 411 556 l 369 564 l 382 643 l 510 642 q 622 645 567 642 q 694 650 678 649 l 697 643 l 685 561 q 631 551 642 557 q 619 526 619 544 q 654 356 619 503 q 701 156 689 208 l 715 156 q 836 528 836 490 m 389 782 q 328 805 350 782 q 307 865 307 828 q 333 933 307 907 q 400 960 358 960 q 461 936 439 960 q 483 875 483 913 q 458 808 483 835 q 389 782 432 782 m 638 782 q 576 805 597 782 q 554 865 554 828 q 580 933 554 907 q 647 960 606 960 q 708 936 686 960 q 731 875 731 913 q 705 808 731 835 q 638 782 679 782 z "},"ẁ":{"ha":1028,"x_min":-12,"x_max":1035,"o":"m 836 528 q 827 551 836 544 q 793 557 818 557 l 756 557 l 750 565 l 761 644 q 817 643 775 644 q 908 642 858 642 l 1035 643 l 1024 557 q 980 538 993 553 q 949 476 967 524 l 778 0 l 603 -21 q 546 211 596 19 l 517 324 l 501 324 l 397 0 l 217 -21 q 148 233 200 44 q 76 488 96 422 q 44 539 65 522 q -10 557 24 556 l -12 564 l -3 643 l 128 642 q 242 646 185 642 q 315 651 299 650 l 318 644 l 307 563 q 252 552 264 558 q 240 526 240 546 q 275 356 240 503 q 324 156 310 208 l 338 156 q 397 328 361 217 q 450 499 433 439 q 427 543 443 531 q 374 556 411 556 l 369 564 l 382 643 l 510 642 q 622 645 567 642 q 694 650 678 649 l 697 643 l 685 561 q 631 551 642 557 q 619 526 619 544 q 654 356 619 503 q 701 156 689 208 l 715 156 q 836 528 836 490 m 426 1022 q 517 928 446 1001 q 658 788 588 856 l 617 732 l 596 726 q 436 838 515 786 q 333 904 357 890 l 332 924 l 407 1021 l 426 1022 z "}}}
